<svg viewBox="-40 0 3279.9999999999995 1920.0000000000005" xmlns="http://www.w3.org/2000/svg" xmlns:xlink="http://www.w3.org/1999/xlink" xmlns:blush="http://design.blush" overflow="visible" width="3279.9999999999995px" height="1920.0000000000005px"><defs><path d="M363.685,181.685 C363.685,81.345 282.34,0 182,0 C81.66,0 0.315,81.345 0.315,181.685 C0.315,282.02 81.66,363.365 182,363.365 C282.34,363.365 363.685,282.02 363.685,181.685" id="masterbackgroundexploring-on-laptop-path-1"/><path d="M363.685,181.685 C363.685,81.345 282.34,0 182,0 C81.66,0 0.315,81.345 0.315,181.685 C0.315,282.02 81.66,363.365 182,363.365 C282.34,363.365 363.685,282.02 363.685,181.685" id="masterbackgroundexploring-on-laptop-path-3"/><polygon id="masterbackgroundexploring-on-laptop-path-5" points="0.885 0.4042 225.003 0.4042 225.003 229 0.885 229"/></defs><g id="Master/Background/Exploring on Laptop" stroke="none" stroke-width="1" fill="none" fill-rule="evenodd" blush:viewBox="-32 136 3263.9999999999995 1743.9999999999998" blush:i="0"><g id="Outdoor Plants" transform="translate(2445.000000, 908.000000) scale(1 1)" blush:width="751" blush:height="965" blush:component="Outdoor Plants" blush:i="0.0" blush:value="Bush" blush:viewBox="97.9775064267352 685.1499999999999 559.87146529563 279.84999999999997"><g id="Outdoor Plants/Bush" stroke="none" stroke-width="1" fill="none" fill-rule="evenodd" blush:viewBox="97.9775064267352 685.1499999999999 559.87146529563 279.84999999999997" blush:i="0.0.0"><g id="Group-16-Copy" transform="translate(98.000000, 689.000000)" blush:i="0.0.0.0"><path d="M2.39500229,275.969448 C4.95578,275.610539 7.81571397,276.244612 10.3764917,275.885703 L558,275.885703 C557.748709,255.057012 545.866222,224.872758 527.67752,214.67974 C509.500785,204.498686 485.903338,204.821704 468.013793,215.46934 C476.079046,172.735231 481.918576,128.086941 470.155752,86.2022508 C458.41686,44.3175605 424.971188,5.75876099 381.773022,0.590470148 C341.267263,-4.24283888 301.934196,21.2038153 278.611973,54.6661058 C255.28975,88.1283962 244.831246,128.637268 234.815494,168.165122 C235.952288,149.465959 226.678444,130.479668 211.253946,119.855959 C195.817483,109.23225 174.768847,107.365923 157.704973,115.094432 C138.654702,123.720214 125.982442,142.814177 120.107013,162.889159 C114.24355,182.976104 114.255516,204.223522 114.315347,225.135958 C102.109771,197.476031 66.8212974,182.581304 38.4971814,193.133231 C10.1610992,203.697122 -6.48395591,247.077267 2.39500229,275.969448" id="Fill-1" fill="#F67A49" blush:i="0.0.0.0.0"/><path d="M118.397008,275.974803 C119.891241,275.760692 121.552828,276.153228 123.047061,275.927223 L442,275.927223 C441.856554,263.85377 434.923314,246.356186 424.344146,240.456253 C413.753025,234.556319 400.018038,234.734745 389.59427,240.920159 C394.292138,216.142818 397.687034,190.247344 390.849426,165.969594 C383.999863,141.691845 364.515068,119.341089 339.352189,116.343542 C315.76722,113.536316 292.863621,128.286149 279.27208,147.686938 C265.692493,167.087727 259.607977,190.556615 253.762539,213.478332 C254.420001,202.641962 249.02881,191.639062 240.039506,185.489334 C231.050202,179.32771 218.785539,178.233367 208.85188,182.717792 C197.758697,187.725599 190.37121,198.787974 186.952406,210.42131 C183.545555,222.066541 183.545555,234.389789 183.581417,246.498926 C176.480823,230.476325 155.92018,221.840536 139.423851,227.966474 C122.915568,234.080518 113.220986,259.226605 118.397008,275.974803" id="Fill-4" fill="#FFB201" blush:i="0.0.0.0.1"/></g></g></g><g id="Screen" transform="translate(479.000000, 528.000000) scale(1 1)" blush:width="2178" blush:height="1348" blush:component="Screen" blush:i="0.1" blush:value="Laptop 3" blush:viewBox="0 -7.634304207119726 2177.9999999999995 1363.2686084142395"><g id="Screen/Laptop 3" stroke="none" stroke-width="1" fill="none" fill-rule="evenodd" blush:viewBox="0 -7.634304207119726 2177.9999999999995 1363.2686084142395" blush:i="0.1.0"><g id="Group" blush:i="0.1.0.0"><path d="M2021.3995,1329.31 L156.8995,1329.31 C116.6695,1329.31 84.0595,1296.705 84.0595,1256.475 L84.0595,72.835 C84.0595,32.61 116.6695,-2.27373675e-13 156.8995,-2.27373675e-13 L2021.3995,-2.27373675e-13 C2061.6295,-2.27373675e-13 2094.2345,32.61 2094.2345,72.835 L2094.2345,1256.475 C2094.2345,1296.705 2061.6295,1329.31 2021.3995,1329.31" id="Fill-1" fill="#008BF2" blush:i="0.1.0.0.0"/><path d="M2088.885,1347.308 L88.985,1347.308 C39.84,1347.308 0,1307.463 0,1258.318 L0,1230.993 L2177.875,1230.993 L2177.875,1258.318 C2177.875,1307.463 2138.03,1347.308 2088.885,1347.308" id="Fill-4" fill="#276DFF" blush:i="0.1.0.0.1"/><polygon id="Fill-7" fill="#FFF" points="138.0175 1175.397 2034.6575 1175.397 2034.6575 52.812 138.0175 52.812" blush:i="0.1.0.0.2"/><polygon id="Fill-9" fill="#090E2B" points="890.987 1230.9945 918.012 1273.9845 1298.292 1273.9845 1323.392 1230.9945" blush:i="0.1.0.0.3"/></g><rect id="Rectangle" fill="#FFB201" x="448" y="152" width="1323" height="431" rx="215.5" blush:i="0.1.0.1"/><path d="M1490.0648,775 L1399.9352,775 C1378.4312,775 1361,757.5664 1361,736.0648 L1361,645.9352 C1361,624.4312 1378.4312,607 1399.9352,607 L1490.0648,607 C1511.5688,607 1529,624.4312 1529,645.9352 L1529,736.0648 C1529,757.5664 1511.5688,775 1490.0648,775 Z" id="Stroke-7" fill="#FF0057" blush:i="0.1.0.2"/><path d="M1661.0648,963 L1570.9352,963 C1549.4312,963 1532,945.5688 1532,924.0648 L1532,833.9352 C1532,812.4312 1549.4312,795 1570.9352,795 L1661.0648,795 C1682.5688,795 1700,812.4312 1700,833.9352 L1700,924.0648 C1700,945.5688 1682.5688,963 1661.0648,963 Z" id="Stroke-13-Copy" fill="#A191FF" blush:i="0.1.0.3"/><g id="UI Elements" transform="translate(285.000000, 269.000000) scale(1 1)" blush:width="1101" blush:height="811" blush:component="UI Elements" blush:i="0.1.0.4" blush:value="Chat" blush:viewBox="71.56500000000005 52.89130434782612 957.8700000000002 705.2173913043478"><g id="UI Elements/Chat" stroke="none" stroke-width="1" fill="none" fill-rule="evenodd" blush:viewBox="71.56500000000005 52.89130434782612 957.8700000000002 705.2173913043478" blush:i="0.1.0.4.0"><g id="Interface--Box-1" transform="translate(74.000000, 54.000000)" blush:i="0.1.0.4.0.0"><rect id="Rectangle-Copy-4" fill="#090E2B" x="48" y="36" width="903" height="664" rx="64" blush:i="0.1.0.4.0.0.0"/><rect id="Rectangle" fill="#FFF" x="3" y="3" width="903" height="664" rx="64" blush:i="0.1.0.4.0.0.1"/><path d="M842,0 L67,0 C29.9969218,0 0,29.9969218 0,67 L0,603 C0,640.003078 29.9969218,670 67,670 L842,670 C879.003078,670 909,640.003078 909,603 L909,67 C909,29.9969218 879.003078,0 842,0 Z M67,6 L842,6 C875.68937,6 903,33.3106303 903,67 L903,603 C903,636.68937 875.68937,664 842,664 L67,664 C33.3106303,664 6,636.68937 6,603 L6,67 C6,33.3106303 33.3106303,6 67,6 Z" id="Rectangle-Copy" fill="#090E2B" fill-rule="nonzero" blush:i="0.1.0.4.0.0.2"/><path d="M81.6784,559.808 L800.7568,559.808 C807.384217,559.808 812.7568,554.435417 812.7568,547.808 L812.7568,271.1616 C812.7568,264.534183 807.384217,259.1616 800.7568,259.1616 L81.6784,259.1616 C75.050983,259.1616 69.6784,264.534183 69.6784,271.1616 L69.6784,547.808 C69.6784,554.435417 75.050983,559.808 81.6784,559.808 Z" id="Stroke-1" fill="#C7D2F2" fill-rule="nonzero" blush:i="0.1.0.4.0.0.3"/><rect id="Rectangle" fill="#FFF" x="124" y="324" width="625" height="22" rx="8.5" blush:i="0.1.0.4.0.0.4"/><rect id="Rectangle-Copy-2" fill="#FFF" x="124" y="397" width="625" height="22" rx="8.5" blush:i="0.1.0.4.0.0.5"/><rect id="Rectangle-Copy-3" fill="#FFF" x="124" y="470" width="491" height="22" rx="8.5" blush:i="0.1.0.4.0.0.6"/><path d="M81.6784,199.104 L166.664,199.104 C173.291417,199.104 178.664,193.731417 178.664,187.104 L178.664,102.1248 C178.664,95.497383 173.291417,90.1248 166.664,90.1248 L81.6784,90.1248 C75.050983,90.1248 69.6784,95.497383 69.6784,102.1248 L69.6784,187.104 C69.6784,193.731417 75.050983,199.104 81.6784,199.104 Z" id="Stroke-2" fill="#FFB201" blush:i="0.1.0.4.0.0.7"/><path d="M313.138385,84.8967885 C329.447729,79.5153053 348.586818,83.2415764 358.898207,95.1494108 C364.641993,101.78247 365.553157,109.836021 361.675317,118.16689 C358.288646,125.442569 351.252764,133.056341 340.595642,141.27597 C336.31135,144.580361 331.408948,148.004801 325.887118,151.550657 L325.349,151.894 L325.543643,152.04445 C341.792399,164.438624 357.091439,166.862182 376.260449,162.057646 L377.968343,161.616032 C383.787581,160.074404 388.340217,158.490339 398.373445,154.551317 L408.291943,150.622394 C426.652824,143.383698 437.167182,140.154312 449.947188,138.648183 C467.698785,136.55615 484.762574,139.44633 502.330447,148.436475 C578.210251,187.267035 616.68251,193.20019 673.005729,172.413466 C676.114478,171.266146 679.564703,172.8562 680.712023,175.964949 C681.859342,179.073698 680.269289,182.523924 677.160539,183.671243 C645.644812,195.30248 619.114696,198.641981 591.124925,194.325425 L589.544806,194.074065 C563.69996,189.837339 536.014264,179.153744 496.863807,159.118977 C481.451903,151.232123 466.781412,148.747308 451.351673,150.565709 L450.342491,150.689479 C439.117599,152.120689 429.287548,155.218498 411.838757,162.123665 L403.055294,165.605084 C391.669618,170.080433 386.906843,171.710504 379.851947,173.526373 C357.027478,179.401193 337.796987,176.483508 318.265861,161.585618 C317.0727,160.675502 315.864585,159.672344 314.654208,158.592274 L314.545,158.494 L314.017166,158.804659 L312.295102,159.804812 C293.187916,170.838945 268.652234,182.944456 238.653973,196.156684 L237.200946,196.795635 C234.166794,198.12777 230.627219,196.748013 229.295083,193.713861 C227.962948,190.679709 229.342705,187.140134 232.376857,185.807998 L235.096589,184.610328 C263.492115,172.068188 286.795242,160.578237 304.975046,150.172539 L305.979,149.594 L305.732259,149.301723 C299.306434,141.630328 293.812924,132.801442 291.510503,125.686128 L291.361761,125.214344 C285.517654,106.168413 295.144491,90.834111 313.138385,84.8967885 Z M349.826646,103.004777 C342.950235,95.0637364 328.907966,92.3297871 316.898536,96.2924571 C304.724978,100.309283 299.047137,109.353346 302.833845,121.694218 C304.636454,127.568918 309.846003,135.708997 315.788395,142.599086 L316.432,143.336 L316.802823,143.104213 C322.845916,139.317522 328.138527,135.690524 332.678924,132.22501 L333.266883,131.773903 C350.827935,118.229407 355.086995,109.079552 349.826646,103.004777 Z" id="Path-8" fill="#FFB201" fill-rule="nonzero" blush:i="0.1.0.4.0.0.8"/></g></g></g></g></g><g id="Medium Plants" transform="translate(-112.000000, 1073.000000) scale(1 1)" blush:width="845" blush:height="800" blush:component="Medium Plants" blush:i="0.2" blush:value="Plant 1" blush:viewBox="274.625 296.4059196617337 299.9749999999998 507.399577167019"><g id="Medium Plants/Plant 1" stroke="none" stroke-width="1" fill="none" fill-rule="evenodd" blush:viewBox="274.625 296.4059196617337 299.9749999999998 507.399577167019" blush:i="0.2.0"><g id="Group" transform="translate(277.000000, 297.000000)" blush:i="0.2.0.0"><path d="M79.3649352,206.473842 C50.7765177,148.413459 23.0301485,127.298886 14.224871,120.516751 C22.3530117,136.794627 86.5510811,322.095424 95.4325678,370.613777 C65.6285523,311.882812 50.2617937,299.195552 44.704774,293.481844 C29.6640906,278.015923 10.8379374,267.027638 0,261.60168 C4.7449552,268.191148 60.2839187,334.857749 79.9271337,393.190868 L95.5062783,421 L173.400752,421 C173.400752,421 181.528893,393.98781 194.398241,382.057457 C207.267589,370.128355 255.765344,310.408958 263.216347,275.138351 C245.238684,295.953189 188.070874,370.128355 177.900839,382.057457 C202.963647,311.117148 206.726531,304.563028 228.145043,265.22264 C249.563556,225.881001 293.968589,168.279448 296,166.923271 C272.969851,179.132616 205.258042,221.800132 173.147138,306.330171 C159.728386,341.654237 155.521591,364.150668 155.521591,364.150668 C155.521591,364.150668 170.023969,293.547719 169.345583,224.361432 C168.668446,155.175144 173.400752,0 173.400752,0 C173.400752,0 142.526988,54.1850727 131.085715,142.024766 C126.854637,174.508618 123.28513,307.941892 124.639404,340.219902 C124.639404,340.219902 107.121299,262.844008 79.3649352,206.473842 Z" id="Fill-1" fill="#009BA0" blush:i="0.2.0.0.0"/><path d="M178.622375,503 L88.8828152,503 C75.6927553,503 65,484.764466 65,471.532066 L65,382 L205,382 L205,469.029248 C205,483.583136 193.129694,503 178.622375,503" id="Fill-4" fill="#FFB201" blush:i="0.2.0.0.1"/></g></g></g><g id="Flying Objects" opacity=".5" transform="translate(2264.000000, -80.000000) scale(1 1)" blush:width="700" blush:height="800" blush:component="Flying Objects" blush:i="0.3" blush:value="Balloon Yellow" blush:viewBox="254.1095890410959 104 191.7808219178082 580.0000000000001"><g id="Flying Objects/Balloon Yellow" stroke="none" stroke-width="1" fill="none" fill-rule="evenodd" blush:viewBox="254.1095890410959 104 191.7808219178082 580.0000000000001" blush:i="0.3.0"><g id="Group" transform="translate(255.000000, 104.000000)" blush:i="0.3.0.0"><path d="M190,101.527864 C173.391661,-50.3585936 9.95135535,-20.1599229 0.337643154,114.971236 C-4.48660953,171.976224 42.8536945,296.75026 112.350048,233.595581 C156.554168,204.820594 186.627462,154.190975 190,101.527864" id="Fill-1" fill="#FFB201" blush:i="0.3.0.0.0"/><path d="M104.545353,273.999437 C122.302093,273.870181 123.802927,264.333729 117.875863,260.315954 C110.254794,255.148694 86.7120292,254.450044 79,255.311418 C81.8099759,264.785551 93.0452847,274.083305 104.545353,273.999437 Z M75.0978957,258 C64.3247337,272.884972 47.9033637,308.505443 58.3312759,315.588738 C65.9463317,320.761876 82.6131909,275.753624 75.0978957,258 Z M81.7497565,272.267035 C78.3480164,313.426075 64.8263176,323.325454 56.8514608,323.084172 C47.7895198,322.810783 42.1050968,302.55573 58.7562802,271.44006 C63.7576423,262.762659 70.621193,253.914025 75.4539698,250 C101.099273,251.918582 136.678175,250.720136 122.948793,271.44006 C115.873933,282.117203 91.9142837,277.354751 87.5958271,273.58362 C89.0772457,278.607737 89.5599037,291.108571 91.3688039,312.608952 C94.2173131,346.475043 86.4536722,344.438293 97.6345553,378.263522 C100.265066,386.223888 99.9385535,401.765506 95.9487029,408.462059 C87.6618664,422.47199 106.508533,433.893977 107.152839,448.095572 C108.393006,455.095674 105.309059,461.010978 100.770822,465.78603 C83.475333,507.48309 116.226407,526.171755 60.3810931,570.475246 C7.94623952,596.746787 78.0932008,546.840296 81.9532214,533.48708 C95.8353438,512.78546 81.2895382,486.981889 91.3688039,466.380479 C96.1298836,459.5915 101.917008,452.799601 97.6345553,444.380994 C67.2446438,403.296869 95.1968515,394.691463 90.1325121,374.725364 C80.9116747,338.37251 87.421584,298.304105 81.7497565,272.267035 Z" id="Fill-4" fill="#090E2B" blush:i="0.3.0.0.1"/></g></g></g><g id="Outdoor Plants" transform="translate(2405.000000, 911.000000) scale(1 1)" blush:width="751" blush:height="965" blush:component="Outdoor Plants" blush:i="0.4" blush:value="Bush" blush:viewBox="97.9775064267352 685.1499999999999 559.87146529563 279.84999999999997"><g id="Outdoor Plants/Bush" stroke="none" stroke-width="1" fill="none" fill-rule="evenodd" blush:viewBox="97.9775064267352 685.1499999999999 559.87146529563 279.84999999999997" blush:i="0.4.0"><g id="Group-16-Copy" transform="translate(98.000000, 689.000000)" blush:i="0.4.0.0"><path d="M2.39500229,275.969448 C4.95578,275.610539 7.81571397,276.244612 10.3764917,275.885703 L558,275.885703 C557.748709,255.057012 545.866222,224.872758 527.67752,214.67974 C509.500785,204.498686 485.903338,204.821704 468.013793,215.46934 C476.079046,172.735231 481.918576,128.086941 470.155752,86.2022508 C458.41686,44.3175605 424.971188,5.75876099 381.773022,0.590470148 C341.267263,-4.24283888 301.934196,21.2038153 278.611973,54.6661058 C255.28975,88.1283962 244.831246,128.637268 234.815494,168.165122 C235.952288,149.465959 226.678444,130.479668 211.253946,119.855959 C195.817483,109.23225 174.768847,107.365923 157.704973,115.094432 C138.654702,123.720214 125.982442,142.814177 120.107013,162.889159 C114.24355,182.976104 114.255516,204.223522 114.315347,225.135958 C102.109771,197.476031 66.8212974,182.581304 38.4971814,193.133231 C10.1610992,203.697122 -6.48395591,247.077267 2.39500229,275.969448" id="Fill-1" fill="#F67A49" blush:i="0.4.0.0.0"/><path d="M118.397008,275.974803 C119.891241,275.760692 121.552828,276.153228 123.047061,275.927223 L442,275.927223 C441.856554,263.85377 434.923314,246.356186 424.344146,240.456253 C413.753025,234.556319 400.018038,234.734745 389.59427,240.920159 C394.292138,216.142818 397.687034,190.247344 390.849426,165.969594 C383.999863,141.691845 364.515068,119.341089 339.352189,116.343542 C315.76722,113.536316 292.863621,128.286149 279.27208,147.686938 C265.692493,167.087727 259.607977,190.556615 253.762539,213.478332 C254.420001,202.641962 249.02881,191.639062 240.039506,185.489334 C231.050202,179.32771 218.785539,178.233367 208.85188,182.717792 C197.758697,187.725599 190.37121,198.787974 186.952406,210.42131 C183.545555,222.066541 183.545555,234.389789 183.581417,246.498926 C176.480823,230.476325 155.92018,221.840536 139.423851,227.966474 C122.915568,234.080518 113.220986,259.226605 118.397008,275.974803" id="Fill-4" fill="#FFB201" blush:i="0.4.0.0.1"/></g></g></g><g id="Flying Objects" opacity=".5" transform="translate(905.000000, 223.000000) scale(-1, 1) translate(-905.000000, -223.000000) translate(555.000000, -177.000000) scale(1 1)" blush:width="700" blush:height="800" blush:component="Flying Objects" blush:i="0.5" blush:value="Cloud 1" blush:viewBox="158.21917808219177 320 335.61643835616434 160.00000000000014"><g id="Flying Objects/Cloud 1" stroke="none" stroke-width="1" fill="none" fill-rule="evenodd" blush:viewBox="158.21917808219177 320 335.61643835616434 160.00000000000014" blush:i="0.5.0"><path d="M479.95575,473.895048 C489.613069,459.137123 499.099888,436.733126 487.997876,423.547909 C481.436886,415.755283 470.330969,416.37302 462.370839,421.934228 C454.409408,427.495437 448.858402,436.870226 443.55859,445.96136 C452.064059,424.955151 460.742631,403.137375 461.346539,379.753193 C461.950447,356.369012 452.155166,330.873179 433.86613,323.327963 C414.905507,315.50382 394.716245,328.774134 378.352165,342.761464 C343.415317,372.620853 311.811676,408.189581 284.665759,448.195929 C286.38117,435.63948 288.09658,422.759979 286.097437,410.263412 C284.098294,397.765269 277.573747,385.527143 267.572825,381.604829 C257.656503,377.714031 246.935838,382.62441 237.627328,388.303808 C205.588977,407.842892 177.856072,437.617184 158,473.792617 C160.945352,473.792617 156.578734,478.669903 159.524086,478.669903 L479.95575,473.895048 Z" id="cloud" fill="#F0F1FF" transform="translate(325.500000, 399.834951) scale(-1, 1) translate(-325.500000, -399.834951)" blush:i="0.5.0.0"/></g></g><g id="Floor" transform="translate(0.000000, 1872.500000)" fill="#090E2B" fill-rule="nonzero" blush:i="0.6"><path d="M3214.29077,-2.5 C3216.22377,-2.5 3217.79077,-0.932996624 3217.79077,1 C3217.79077,2.8685634 3216.32649,4.39512645 3214.48281,4.49482114 L3214.29077,4.5 L0.290769851,4.5 C-1.64222677,4.5 -3.20923015,2.93299662 -3.20923015,1 C-3.20923015,-0.868563404 -1.74495255,-2.39512645 0.098734648,-2.49482114 L0.290769851,-2.5 L3214.29077,-2.5 Z" id="Path-4-Copy" blush:i="0.6.0"/></g></g></svg>