<svg xmlns="http://www.w3.org/2000/svg" viewBox="0 0 90 120" fill="none">
  <rect width="90" height="120" fill="#fff"/>
  <rect x="5" y="5" width="18.5" height="16.666666666666668" rx="1" fill="#e8e0f4"/>
  <rect x="25.5" y="5" width="18.5" height="16.666666666666668" rx="1" fill="#e8e0f4"/>
  <rect x="46" y="5" width="18.5" height="16.666666666666668" rx="1" fill="#e8e0f4"/>
  <rect x="66.5" y="5" width="18.5" height="16.666666666666668" rx="1" fill="#e8e0f4"/>
  <rect x="5" y="23.666666666666668" width="18.5" height="16.666666666666668" rx="1" fill="#e8e0f4"/>
  <rect x="25.5" y="23.666666666666668" width="18.5" height="16.666666666666668" rx="1" fill="#e8e0f4"/>
  <rect x="46" y="23.666666666666668" width="18.5" height="16.666666666666668" rx="1" fill="#e8e0f4"/>
  <rect x="66.5" y="23.666666666666668" width="18.5" height="16.666666666666668" rx="1" fill="#e8e0f4"/>
  <rect x="5" y="42.333333333333336" width="18.5" height="16.666666666666668" rx="1" fill="#e8e0f4"/>
  <rect x="25.5" y="42.333333333333336" width="18.5" height="16.666666666666668" rx="1" fill="#e8e0f4"/>
  <rect x="46" y="42.333333333333336" width="18.5" height="16.666666666666668" rx="1" fill="#e8e0f4"/>
  <rect x="66.5" y="42.333333333333336" width="18.5" height="16.666666666666668" rx="1" fill="#e8e0f4"/>
  <rect x="5" y="61" width="18.5" height="16.666666666666668" rx="1" fill="#e8e0f4"/>
  <rect x="25.5" y="61" width="18.5" height="16.666666666666668" rx="1" fill="#e8e0f4"/>
  <rect x="46" y="61" width="18.5" height="16.666666666666668" rx="1" fill="#e8e0f4"/>
  <rect x="66.5" y="61" width="18.5" height="16.666666666666668" rx="1" fill="#e8e0f4"/>
  <rect x="5" y="79.66666666666667" width="18.5" height="16.666666666666668" rx="1" fill="#e8e0f4"/>
  <rect x="25.5" y="79.66666666666667" width="18.5" height="16.666666666666668" rx="1" fill="#e8e0f4"/>
  <rect x="46" y="79.66666666666667" width="18.5" height="16.666666666666668" rx="1" fill="#e8e0f4"/>
  <rect x="66.5" y="79.66666666666667" width="18.5" height="16.666666666666668" rx="1" fill="#e8e0f4"/>
  <rect x="5" y="98.33333333333334" width="18.5" height="16.666666666666668" rx="1" fill="#e8e0f4"/>
  <rect x="25.5" y="98.33333333333334" width="18.5" height="16.666666666666668" rx="1" fill="#e8e0f4"/>
  <rect x="46" y="98.33333333333334" width="18.5" height="16.666666666666668" rx="1" fill="#e8e0f4"/>
  <rect x="66.5" y="98.33333333333334" width="18.5" height="16.666666666666668" rx="1" fill="#e8e0f4"/>
</svg>
