<?xml version="1.0" standalone="no"?><!DOCTYPE svg PUBLIC "-//W3C//DTD SVG 1.1//EN" "http://www.w3.org/Graphics/SVG/1.1/DTD/svg11.dtd"><svg t="1773109977520" class="icon" viewBox="0 0 1024 1024" version="1.1" xmlns="http://www.w3.org/2000/svg" p-id="31127" xmlns:xlink="http://www.w3.org/1999/xlink" width="200" height="200"><path d="M512 1023.984c200.277609 0 362.645292-28.653944 362.645292-63.995875l-21.341959-554.656917S767.9935 362.661292 512 362.661292c-256.0075 0-341.333333 42.669917-341.333333 42.669916L149.338708 959.988125c0 35.341931 162.369683 63.995875 362.661292 63.995875z" fill="#434A54" p-id="31128"></path><path d="M853.303333 405.331208S767.9935 362.661292 512 362.661292c-7.265986 0-14.359972 0.046-21.341958 0.109999 239.397532 2.281996 319.991375 42.559917 319.991375 42.559917l21.341958 554.656917c0 34.059933-150.995705 61.933879-341.333333 63.871875 7.059986 0.062 14.169972 0.124 21.341958 0.124 200.277609 0 362.645292-28.653944 362.645292-63.995875l-21.341959-554.656917z" fill="#FFFFFF" opacity=".1" p-id="31129"></path><path d="M1023.985 384.00325c0 82.465839-229.241552 149.323708-511.985 149.323708-282.773448 0-511.985-66.857869-511.985-149.323708 0-82.481839 229.211552-149.339708 511.985-149.339708 282.743448 0 511.985 66.857869 511.985 149.339708z" fill="#656D78" p-id="31130"></path><path d="M512 448.001125c-92.541819 0-180.041648-8.265984-246.397519-23.247955-75.091853-16.953967-93.841817-36.265929-94.919814-40.74992 1.077998-4.499991 19.827961-23.809953 94.919814-40.76392 66.35787-14.983971 153.8557-23.233955 246.397519-23.233955 92.529819 0 180.027648 8.249984 246.369519 23.233955 75.123853 16.953967 93.873817 36.263929 94.935814 40.76392-1.061998 4.483991-19.811961 23.795954-94.935814 40.74992-66.34187 14.981971-153.8397 23.247955-246.369519 23.247955z" fill="#434A54" p-id="31131"></path><path d="M254.882502 422.221175c3.437993 0.859998 7.015986 1.703997 10.717979 2.531995 61.169881 13.811973 140.307726 21.903957 224.791561 23.091955C476.19007 183.025643 337.022342 0.014 291.146431 0.014c-6.827987 0-11.593977 4.045992-13.561973 12.499976-31.951938 137.027732-59.779883 254.555503-26.793948 393.443231a632.362765 632.362765 0 0 0 4.091992 16.263968z" fill="#E6E9ED" p-id="31132"></path><path d="M321.428372 241.539528c0.265999 0.781998 24.671952 73.481856 41.23192 198.805612a1222.949611 1222.949611 0 0 0 43.531915 3.905992c-16.515968-130.963744-41.609919-208.197593-44.187914-215.931578-0.094-0.234-0.14-0.421999-0.188-0.531999l-0.016 0.016c-2.859994-8.403984-10.795979-14.465972-20.16996-14.465972-11.781977 0-21.343958 9.543981-21.343959 21.325959 0 2.405995 0.421999 4.717991 1.155998 6.875986h-0.014z" fill="#EC87C0" p-id="31133"></path><path d="M758.369519 424.75317c3.717993-0.827998 7.311986-1.671997 10.749979-2.531995a785.498466 785.498466 0 0 0 4.061992-16.265968c32.999936-138.885729 5.18799-256.415499-26.781948-393.443231-1.967996-8.453983-6.717987-12.499976-13.561973-12.499976-45.87391 0-185.025639 183.011643-199.243611 447.831125 84.465835-1.185998 163.61968-9.277982 224.775561-23.089955z" fill="#E6E9ED" p-id="31134"></path><path d="M661.341708 440.34514c13.155974-99.213806 32.153937-172.103664 41.21592-198.821612 0.717999-2.155996 1.123998-4.453991 1.123998-6.859986 0-11.781977-9.561981-21.325958-21.311959-21.325959-9.373982 0-17.309966 6.061988-20.18596 14.465972v-0.016a2.587995 2.587995 0 0 0-0.188 0.531999c-2.593995 7.733985-27.687946 84.965834-44.187914 215.931578a1230.739596 1230.739596 0 0 0 43.533915-3.905992z" fill="#EC87C0" p-id="31135"></path></svg>