<?xml version="1.0" standalone="no"?><!DOCTYPE svg PUBLIC "-//W3C//DTD SVG 1.1//EN" "http://www.w3.org/Graphics/SVG/1.1/DTD/svg11.dtd"><svg t="1781685341829" class="icon" viewBox="0 0 1024 1024" version="1.1" xmlns="http://www.w3.org/2000/svg" p-id="22055" xmlns:xlink="http://www.w3.org/1999/xlink" width="200" height="200"><path d="M977.408 102.4a46.08 46.08 0 0 1 46.592 45.5168V876.032a46.08 46.08 0 0 1-46.592 45.5168H46.592a46.08 46.08 0 0 1-46.592-45.5168V147.968A46.08 46.08 0 0 1 46.592 102.4h930.816zM277.2992 430.9504l-207.872 206.9504v215.9104H954.368v-73.3696l-163.84-159.744-142.1824 119.4496c-8.4992 5.9904-16.6912 8.6016-24.576 7.936a40.5504 40.5504 0 0 1-22.4768-9.6768L277.248 430.9504z m676.864-260.4032H69.7344v370.176L254.3616 356.864a36.7616 36.7616 0 0 1 22.528-7.9872c7.936 0 14.8992 2.4064 20.992 7.168l329.2672 311.7056 143.616-120.32a36.0448 36.0448 0 0 1 21.5552-7.4752 35.328 35.328 0 0 1 21.4016 7.424l140.3904 136.448V170.496zM781.9776 267.776c38.5536 0 69.7856 30.5664 69.7856 68.2496s-31.232 68.2496-69.7856 68.2496c-38.6048 0-69.8368-30.5664-69.8368-68.2496s31.232-68.2496 69.8368-68.2496z" fill="#8167a9" p-id="22056"></path></svg>