<?xml version="1.0" standalone="no"?><!DOCTYPE svg PUBLIC "-//W3C//DTD SVG 1.1//EN" "http://www.w3.org/Graphics/SVG/1.1/DTD/svg11.dtd"><svg t="1781685129378" class="icon" viewBox="0 0 1024 1024" version="1.1" xmlns="http://www.w3.org/2000/svg" p-id="16714" xmlns:xlink="http://www.w3.org/1999/xlink" width="200" height="200"><path d="M960.8 710.4l-17.9-40.3a4 4 0 0 0-4.7-2.2l-53.7 14.6-31-31 14.6-53.7a4 4 0 0 0-2.2-4.7l-40.3-17.9a4 4 0 0 0-5 1.6l-29.3 48.8h-41.4l-29.3-48.8a4 4 0 0 0-5-1.6l-40.5 18a4 4 0 0 0-2.3 4.4l9.7 53.9-31 31-53.7-14.6a4 4 0 0 0-4.7 2.2l-17.9 40.3a4 4 0 0 0 1.6 5l48.8 29.3v41.4l-48.8 29.3a4 4 0 0 0-1.6 5l18 40.5a4 4 0 0 0 4.4 2.3l53.9-9.7 31 31-14.6 53.7a4 4 0 0 0 2.2 4.7l40.3 17.9a4 4 0 0 0 5-1.6l29.3-48.8h41.4l29.3 48.8a4 4 0 0 0 5 1.6l40.3-17.9a4 4 0 0 0 2.2-4.7l-14.6-53.7 31-31 53.7 14.6a4 4 0 0 0 4.7-2.2l18.1-40.7a4 4 0 0 0-1.2-4.7l-44.2-34.4v-41.4l48.8-29.3a4 4 0 0 0 1.6-5zM768.2 846a78 78 0 1 1 78-78 78 78 0 0 1-78 78z m5.8-504c0-144.7-117.3-262-262-262S250 197.3 250 342a261.7 261.7 0 0 0 117.4 218.5c-140 57.4-239.3 195.4-239.3 355.5v25.5a4 4 0 0 0 4 4h64a4 4 0 0 0 4-4V916a307.1 307.1 0 0 1 24.6-120.9 315.1 315.1 0 0 1 166.4-166.5A307.9 307.9 0 0 1 512 604c144.7 0 262-117.3 262-262zM512 532a189.8 189.8 0 1 1 134.4-55.6A189.1 189.1 0 0 1 512 532z" p-id="16715" fill="#8167a9"></path></svg>