<?xml version="1.0" standalone="no"?><!DOCTYPE svg PUBLIC "-//W3C//DTD SVG 1.1//EN" "http://www.w3.org/Graphics/SVG/1.1/DTD/svg11.dtd"><svg t="1770011601605" class="icon" viewBox="0 0 1024 1024" version="1.1" xmlns="http://www.w3.org/2000/svg" p-id="3732" xmlns:xlink="http://www.w3.org/1999/xlink" width="200" height="200"><path d="M718.634667 417.024a38.826667 38.826667 0 0 0 0-55.082667 40.106667 40.106667 0 0 0-55.04 0c-7.381333 7.338667-11.434667 17.109333-11.434667 27.562667s4.096 20.224 11.434667 27.52c7.338667 7.381333 17.066667 11.434667 27.52 11.434667a39.296 39.296 0 0 0 27.52-11.434667z" p-id="3733"></path><path d="M928.810667 498.176c-15.104-14.250667-30.890667-25.642667-46.122667-36.650667-9.429333-6.826667-18.474667-13.354667-26.666667-20.138666-7.637333-29.781333-41.685333-141.184-135.637333-205.226667l-9.344-113.749333a39.168 39.168 0 0 0-14.848-27.392 38.058667 38.058667 0 0 0-14.378667-7.04 37.802667 37.802667 0 0 0-13.141333-1.024 38.528 38.528 0 0 0-10.112-1.621334l-2.602667 0.042667c-291.882667 9.642667-437.248 174.506667-507.776 311.125333-85.376 165.376-92.16 337.578667-82.688 413.141334a39.253333 39.253333 0 0 0 1.066667 5.589333c-2.048 9.941333-4.48 20.053333-6.954667 30.08-3.84 15.658667-7.808 31.872-9.984 47.104a38.698667 38.698667 0 0 0 18.218667 40.106667 39.381333 39.381333 0 0 0 29.994667 4.352 39.68 39.68 0 0 0 13.994666-6.869334 39.936 39.936 0 0 0 10.026667-11.690666 37.930667 37.930667 0 0 0 4.693333-14.464c22.186667-155.306667 64.725333-285.312 126.336-386.304 80.042667-131.285333 188.672-211.712 331.989334-245.930667a38.912 38.912 0 0 0 20.053333-11.946667l35.882667-40.234666 3.456 41.216a38.826667 38.826667 0 0 0 19.968 30.890666c81.28 45.013333 120.661333 181.589333 121.002666 182.698667a39.210667 39.210667 0 0 0 11.562667 19.328c15.445333 14.037333 31.701333 25.685333 46.037333 35.968 12.330667 8.874667 24.021333 17.237333 32.682667 25.344 17.237333 16.213333 24.32 26.197333 19.925333 54.058667-1.28 8.576-20.096 34.688-40.533333 41.429333a36.992 36.992 0 0 1-28.288-0.981333c-13.056-5.76-25.429333-18.858667-36.864-38.954667a39.082667 39.082667 0 0 0-22.4-17.962667c-24.277333-7.381333-59.050667-15.274667-92.629333-22.954666l-4.736-1.066667a1712.469333 1712.469333 0 0 1-73.429334-17.792 34.688 34.688 0 0 0-5.802666-2.005333c-25.045333-6.741333-28.586667-30.72-28.714667-31.872a38.826667 38.826667 0 0 0-44.629333-33.152 38.826667 38.826667 0 0 0-31.957334 29.866666 39.850667 39.850667 0 0 0-0.341333 15.786667c0.426667 1.877333 9.941333 44.458667 46.634667 73.258667l-3.242667 13.696c-19.584 82.474667-35.072 147.584 12.458667 294.229333a39.082667 39.082667 0 0 0 49.024 25.045333 39.253333 39.253333 0 0 0 22.741333-19.370666 39.424 39.424 0 0 0 2.346667-29.696c-41.770667-128.810667-30.72-173.184-12.373334-246.656l1.749334-7.082667 1.237333 0.341333c14.293333 3.669333 28.714667 7.381333 47.018667 11.562667 35.797333 8.064 62.122667 14.506667 80.298666 19.541333 18.816 27.648 39.722667 46.72 62.165334 56.618667 26.538667 11.562667 56.32 12.928 83.925333 3.797333 49.621333-16.256 86.229333-56.96 93.312-103.68 9.728-61.952-23.168-103.466667-43.605333-122.709333z m-349.909334-326.357333l-25.258666 28.373333c-137.130667 35.882667-248.874667 111.744-333.013334 225.792 76.288-143.616 196.693333-228.992 358.272-254.165333z" p-id="3734"></path></svg>