<?xml version="1.0" standalone="no"?><!DOCTYPE svg PUBLIC "-//W3C//DTD SVG 1.1//EN" "http://www.w3.org/Graphics/SVG/1.1/DTD/svg11.dtd"><svg t="1770015878471" class="icon" viewBox="0 0 1024 1024" version="1.1" xmlns="http://www.w3.org/2000/svg" p-id="2308" xmlns:xlink="http://www.w3.org/1999/xlink" width="200" height="200"><path d="M714.538667 817.578667l-27.306667 27.328-41.536 41.514666c-68.181333 68.202667-179.84 68.202667-248.042667 0L156.714667 645.589333c-68.181333-68.181333-68.181333-179.84 0-248.042666l240.853333-240.832c68.181333-68.181333 179.84-68.181333 248.021333 0l240.853334 240.853333c68.181333 68.181333 68.181333 179.84 0 248.021333l-36.48 36.48-22.165334 22.144" fill="#F57676" p-id="2309"></path><path d="M512 938.666667a188.565333 188.565333 0 0 1-134.314667-55.424L140.757333 646.314667A188.565333 188.565333 0 0 1 85.333333 512c0-50.858667 19.669333-98.56 55.424-134.314667L377.685333 140.757333A188.565333 188.565333 0 0 1 512 85.333333c50.858667 0 98.56 19.669333 134.314667 55.424l236.928 236.928A188.565333 188.565333 0 0 1 938.666667 512c0 50.858667-19.669333 98.56-55.424 134.314667l-57.621334 57.6a17.450667 17.450667 0 0 1-24.746666 0 17.450667 17.450667 0 0 1 0-24.725334l57.621333-57.6c60.501333-60.522667 60.501333-158.869333 0-219.264L621.674667 165.504c-60.501333-60.501333-158.848-60.501333-219.242667 0L165.504 402.325333c-60.501333 60.501333-60.501333 158.848 0 219.242667l236.928 236.928c60.501333 60.501333 158.848 60.501333 219.242667 0l67.754666-67.754667a17.450667 17.450667 0 0 1 24.746667 0 17.450667 17.450667 0 0 1 0 24.746667L646.4 883.242667A188.629333 188.629333 0 0 1 512 938.666667z" fill="#F57676" p-id="2310"></path><path d="M369.813333 378.154667h60.010667v36.885333c0 25.28-0.704 40.384-2.112 45.290667-1.386667 4.906667-3.178667 9.493333-5.269333 13.696a64.853333 64.853333 0 0 1-10.517334 13.696c-3.498667 4.202667-8.106667 8.106667-13.696 11.584l-7.381333 5.290666-1.088 91.605334v91.626666l-3.2 7.381334c-2.090667 4.906667-4.906667 9.109333-8.384 12.608-3.52 4.224-7.018667 7.04-10.517333 8.426666-3.52 2.090667-6.698667 3.178667-9.493334 3.178667l-4.202666 1.066667v-204.373334l-8.426667 2.133334c-5.589333 0.682667-12.992 1.386667-22.101333 2.090666l-12.608 1.066667v-9.472l1.066666-8.426667 9.493334-2.090666c6.314667-1.408 12.288-3.2 17.92-5.290667a102.826667 102.826667 0 0 0 19.989333-7.872c7.701333-3.882667 13.696-8.085333 17.92-12.608 4.181333-4.544 7.36-8.64 9.472-12.138667 2.112-4.202667 3.2-16.128 3.2-35.797333v-29.504l-40.021333-1.066667h-38.997334v-18.986666h58.944z m1.066667-74.794667h46.336v18.986667h-92.650667v-9.493334l-1.066666-9.493333h47.381333z m45.312 203.306667c4.202667 2.773333 8.405333 5.269333 12.608 7.36 4.906667 1.408 10.88 2.496 17.92 3.2h9.472v34.24c0 2.474667-0.170667 4.565333-0.533333 6.293333a21.184 21.184 0 0 0-0.554667 3.2c0 0.362667-0.362667 0.533333-1.066667 0.533333a173.610667 173.610667 0 0 1-12.629333-8.426666 165.76 165.76 0 0 1-18.986667-15.786667c-5.589333-4.906667-9.088-9.109333-10.496-12.629333a37.482667 37.482667 0 0 1-2.112-13.696v-8.533334l6.378667 4.224z m163.2-179.029334h132.693333v18.986667H447.786667v-18.986667h131.626666z m-91.605333 182.186667h22.101333l1.088 5.290667v5.290666h131.626667l1.066666-5.290666v-5.290667h22.122667l23.189333 1.066667v83.2c0 56.213333-0.704 87.104-2.133333 92.714666 0 2.090667-0.512 4.736-1.536 7.914667-1.024 3.2-1.941333 5.461333-2.645333 6.848a42.133333 42.133333 0 0 1-7.936 11.050667c-3.178667 3.136-6.677333 5.76-10.517334 7.893333-3.84 2.090667-8.234667 3.178667-13.141333 3.178667h-7.402667v-17.92l-1.066666-17.898667h-132.650667l-1.066667 3.2c-1.408 3.498667-3.2 6.997333-5.290666 10.496-2.112 4.906667-4.757333 8.789333-7.936 11.605333-3.178667 2.794667-6.464 5.056-9.962667 6.826667-3.52 1.749333-8.106667 2.666667-13.696 2.666667h-7.402667v-212.842667h23.189334zM514.133333 375.04h22.101334v8.426667h89.514666v-8.426667h45.290667v40.021333c0 26.666667-0.704 42.474667-2.112 47.381334-0.704 4.906667-2.090667 9.493333-4.202667 13.696-2.090667 4.224-4.906667 7.722667-8.405333 10.517333a29.013333 29.013333 0 0 1-9.493333 7.936 27.584 27.584 0 0 1-12.608 2.645333h-8.426667v-25.237333h-93.76l-2.112 4.202667a43.946667 43.946667 0 0 1-6.826667 9.493333c-3.2 3.498667-6.869333 6.314667-11.072 8.405333-4.202667 2.112-8.789333 3.2-13.696 3.2h-6.314666l-1.066667-61.098666v-61.162667h23.189333z m23.168 165.333333h-27.392v52.693334h54.784V540.373333h-27.392v-0.042666z m0 72.682667h-27.392l1.088 27.392v27.392h52.629334V640.426667l1.066666-27.392h-27.392z m44.224-208.576h-45.290666v46.378667h89.514666V404.48h-44.224z m40.021334 208.576h-22.122667v14.72c0 9.813333-0.704 16.874667-2.090667 21.077333a46.976 46.976 0 0 1-4.224 11.605334c-2.090667 4.202667-3.178667 6.677333-3.178666 7.381333 0 0.704 8.789333 0.704 26.325333 0h26.304l1.066667-27.392v-27.392h-22.08z m0-72.682667h-22.122667v52.693334h44.224V540.373333h-22.101333v-0.042666z" fill="#000000" p-id="2311"></path></svg>