<?xml version="1.0" encoding="UTF-8"?>
<svg version="1.1" xmlns="http://www.w3.org/2000/svg" width="128" height="128">
<path d="M0 0 C3.46895276 1.96071243 4.71249004 3.15543949 6 6.9375 C6 10.6256376 5.2997943 12.14508294 3 15 C1.68 15.66 0.36 16.32 -1 17 C-1 20.3 -1 23.6 -1 27 C0.093125 26.9175 1.18625 26.835 2.3125 26.75 C8.30815016 26.73929348 15.30001865 28.57753279 19.82421875 32.63671875 C20.21222656 33.08660156 20.60023437 33.53648438 21 34 C20.67 34.99 20.34 35.98 20 37 C16.9014411 36.51585017 14.49537927 35.77406886 11.609375 34.48193359 C5.93203259 32.33533379 0.24936885 32.57011588 -5.75 32.6015625 C-6.96268555 32.59869232 -8.17537109 32.59582214 -9.42480469 32.59286499 C-11.97982248 32.59083035 -14.53485606 32.59631804 -17.08984375 32.60888672 C-20.9873355 32.62494781 -24.88379027 32.60901642 -28.78125 32.58984375 C-31.27083561 32.59182629 -33.76042058 32.59567018 -36.25 32.6015625 C-37.40854492 32.59548981 -38.56708984 32.58941711 -39.76074219 32.5831604 C-47.08659065 32.64644208 -53.04156631 33.23259946 -59.20703125 37.54296875 C-59.73683594 38.08566406 -60.26664063 38.62835938 -60.8125 39.1875 C-61.35519531 39.71730469 -61.89789063 40.24710938 -62.45703125 40.79296875 C-67.09088244 47.42113564 -67.46713819 54.10910434 -67.46875 61.9296875 C-67.47636353 62.96006134 -67.48397705 63.99043518 -67.49182129 65.05203247 C-67.50258007 67.22200103 -67.50549267 69.39202119 -67.50097656 71.56201172 C-67.50000482 74.85863737 -67.54166558 78.1529287 -67.5859375 81.44921875 C-67.59114592 83.56770353 -67.59383267 85.68619632 -67.59375 87.8046875 C-67.61014526 88.77791962 -67.62654053 89.75115173 -67.64343262 90.75387573 C-67.57322977 97.80341114 -65.83791994 103.06561595 -62 109 C-59.8033169 111.28560125 -59.8033169 111.28560125 -57.375 112.5625 C-56.61960937 113.01753906 -55.86421875 113.47257812 -55.0859375 113.94140625 C-51.43223688 115.7956251 -48.53573702 116.14055338 -44.49389648 116.19287109 C-43.36519638 116.20893402 -42.23649628 116.22499695 -41.07359314 116.24154663 C-35.8966563 116.28613732 -30.71980615 116.32752221 -25.54272461 116.35009766 C-22.81809532 116.36338576 -20.09422413 116.39114273 -17.36987305 116.43212891 C-13.4328036 116.49134499 -9.49609298 116.50881131 -5.55859375 116.5234375 C-4.35093857 116.54610687 -3.14328339 116.56877625 -1.89903259 116.59213257 C5.81672272 116.57302338 11.54001161 115.35438931 18 111 C20.2848746 108.83851615 20.2848746 108.83851615 21.5625 106.4375 C22.01753906 105.69371094 22.47257812 104.94992188 22.94140625 104.18359375 C24.69405015 100.56836149 25.12724505 97.33756169 25.16113281 93.3425293 C25.17074036 92.42444992 25.1803479 91.50637054 25.19024658 90.56047058 C25.19449646 89.57500748 25.19874634 88.58954437 25.203125 87.57421875 C25.20882507 86.55326614 25.21452515 85.53231354 25.22039795 84.48042297 C25.22983803 82.32102492 25.23637799 80.16161251 25.24023438 78.00219727 C25.24993315 74.71019158 25.28096359 71.41881218 25.3125 68.12695312 C25.31903118 66.02604536 25.3242812 63.92513315 25.328125 61.82421875 C25.3466452 60.35513313 25.3466452 60.35513313 25.36553955 58.85636902 C25.34679078 53.06177087 24.57126012 49.1850378 22 44 C21.8125 41.0625 21.8125 41.0625 22 39 C24.35546875 39.1640625 24.35546875 39.1640625 27 40 C28.36328125 42.3984375 28.36328125 42.3984375 29.3125 45.375 C29.63863281 46.35210937 29.96476562 47.32921875 30.30078125 48.3359375 C31 51 31 51 31 54 C33.9296875 54.1953125 33.9296875 54.1953125 36.859375 54.390625 C39.9523006 55.27109287 41.12321698 56.38590937 43 59 C43.2911521 61.73682971 43.38322418 64.03940039 43.25 66.75 C43.23195312 67.44738281 43.21390625 68.14476563 43.1953125 68.86328125 C43.14838554 70.57611539 43.07664605 72.28823824 43 74 C41.68 74 40.36 74 39 74 C38.67 69.38 38.34 64.76 38 60 C35.69 59.67 33.38 59.34 31 59 C31 69.23 31 79.46 31 90 C32.98 89.67 34.96 89.34 37 89 C38.14814997 86.70370006 38.30769809 84.92301914 38.5625 82.375 C38.68818359 81.14910156 38.68818359 81.14910156 38.81640625 79.8984375 C38.87699219 79.27195312 38.93757813 78.64546875 39 78 C40.32 78 41.64 78 43 78 C43.13536022 80.08153935 43.23215465 82.16561206 43.3125 84.25 C43.39951172 85.99023438 43.39951172 85.99023438 43.48828125 87.765625 C43 91 43 91 40.71875 93.40625 C37.29427407 95.41370141 34.9038144 95.30618152 31 95 C30.92523438 95.61746094 30.85046875 96.23492187 30.7734375 96.87109375 C29.26583211 106.58184611 25.02939322 113.02850621 17.125 118.80859375 C12.52631353 121.38690142 8.18371202 122.25164558 2.95385742 122.29052734 C1.78211472 122.30328705 0.61037201 122.31604675 -0.59687805 122.32919312 C-1.85010361 122.33141876 -3.10332916 122.33364441 -4.39453125 122.3359375 C-6.34742317 122.3459227 -6.34742317 122.3459227 -8.33976746 122.35610962 C-11.09088456 122.36805048 -13.84187641 122.37179382 -16.59301758 122.37060547 C-20.09654885 122.37040259 -23.59926609 122.3976849 -27.10260487 122.43214989 C-30.4707573 122.45990669 -33.8387662 122.45857175 -37.20703125 122.4609375 C-38.45418411 122.47530853 -39.70133698 122.48967957 -40.98628235 122.50448608 C-50.72400318 122.45375906 -58.17305012 120.4614514 -65.4296875 113.76171875 C-70.43795948 108.14298576 -72.59438622 102.43625272 -73 95 C-74.051875 95.0825 -75.10375 95.165 -76.1875 95.25 C-80.69686539 94.95430391 -81.93322655 94.24866484 -85 91 C-85.63110352 87.671875 -85.63110352 87.671875 -85.62890625 83.75 C-85.63131821 83.05487305 -85.63373016 82.35974609 -85.63621521 81.64355469 C-85.63523815 80.17767619 -85.62187751 78.71176016 -85.59692383 77.24609375 C-85.56260013 75.00653341 -85.57626839 72.77091874 -85.59570312 70.53125 C-85.58880433 69.10414993 -85.57913161 67.67706001 -85.56640625 66.25 C-85.55552979 64.95578125 -85.54465332 63.6615625 -85.53344727 62.328125 C-84.91912784 58.49544657 -84.05635042 57.30853135 -81 55 C-78.859375 54.390625 -78.859375 54.390625 -76.75 54.25 C-75.5125 54.1675 -74.275 54.085 -73 54 C-72.92523438 53.38253906 -72.85046875 52.76507813 -72.7734375 52.12890625 C-71.56370178 44.33678498 -68.95340347 38.35679895 -62.8515625 33.17578125 C-55.08655089 27.70317068 -48.19740935 26.69869047 -38.91015625 26.8046875 C-37.4933683 26.80893234 -37.4933683 26.80893234 -36.04795837 26.81326294 C-33.05267276 26.82439316 -30.05769414 26.8494844 -27.0625 26.875 C-25.0227908 26.88503905 -22.98307688 26.89416328 -20.94335938 26.90234375 C-15.9621226 26.92430904 -10.98111322 26.95878924 -6 27 C-6.09909316 25.38968914 -6.21574288 23.78045186 -6.33984375 22.171875 C-6.40292725 21.2756543 -6.46601074 20.37943359 -6.53100586 19.45605469 C-7.21052785 15.89749601 -9.40185735 14.39828552 -12 12 C-12.61304266 8.32174405 -12.26122201 6.53431774 -10.625 3.1875 C-7.67798901 -0.77963018 -4.73399244 -0.4011858 0 0 Z M-5 5 C-5.66 5.66 -6.32 6.32 -7 7 C-6.67958603 9.60280568 -6.67958603 9.60280568 -6 12 C-5.01 12.33 -4.02 12.66 -3 13 C-0.80961577 11.62831762 -0.80961577 11.62831762 1 10 C0.67 8.68 0.34 7.36 0 6 C-2.39719432 5.32041397 -2.39719432 5.32041397 -5 5 Z M-79.78979492 60.14648438 C-81.47231318 62.72338141 -81.37230238 64.59199245 -81.36328125 67.65625 C-81.36263672 68.76097656 -81.36199219 69.86570312 -81.36132812 71.00390625 C-81.34521484 72.15761719 -81.32910156 73.31132813 -81.3125 74.5 C-81.31572266 75.65371094 -81.31894531 76.80742188 -81.32226562 77.99609375 C-81.50389053 84.36287966 -81.50389053 84.36287966 -79 90 C-77.02 90 -75.04 90 -73 90 C-73 79.77 -73 69.54 -73 59 C-77.65253966 58.55050614 -77.65253966 58.55050614 -79.78979492 60.14648438 Z " fill="#000000" transform="translate(85,3)"/>
<path d="M0 0 C1.28276573 -0.00786278 1.28276573 -0.00786278 2.59144592 -0.0158844 C4.38899659 -0.02226971 6.18658924 -0.0210132 7.98413086 -0.01245117 C10.71219313 -0.0039389 13.43815937 -0.03275387 16.16601562 -0.06445312 C17.92317646 -0.06606558 19.68034096 -0.06548677 21.4375 -0.0625 C22.24090317 -0.07373398 23.04430634 -0.08496796 23.87205505 -0.09654236 C31.28401911 -0.00674682 36.88924671 2.54011444 43.03515625 6.55859375 C51.5454321 15.45570032 51.54916327 24.90058582 51.38208008 36.57592773 C51.34750209 39.2580512 51.36152761 41.9369197 51.38085938 44.61914062 C51.37396665 46.33464937 51.36429946 48.0501497 51.3515625 49.765625 C51.3590023 50.95947563 51.3590023 50.95947563 51.36659241 52.17744446 C51.26099018 57.16640261 50.52875972 59.81333368 46.78515625 63.43359375 C43.95566189 64.84834093 41.55945028 64.5843869 38.39526367 64.6105957 C37.73976028 64.6171669 37.0842569 64.6237381 36.40888977 64.63050842 C34.23613371 64.65024431 32.06344679 64.66190492 29.890625 64.671875 C28.77741599 64.67798829 28.77741599 64.67798829 27.64171791 64.68422508 C23.71321516 64.70508766 19.78474735 64.71938819 15.85620117 64.72875977 C11.80071503 64.7398212 7.74577804 64.77421677 3.69048595 64.81393147 C0.57032764 64.8400925 -2.54969977 64.84845113 -5.66995811 64.85204124 C-7.16467686 64.85690905 -8.65938968 64.86852873 -10.15400124 64.88707924 C-12.24869752 64.91146038 -14.34197249 64.91050863 -16.43676758 64.90356445 C-18.22308342 64.91236382 -18.22308342 64.91236382 -20.04548645 64.92134094 C-23.85925731 64.33442194 -25.48872195 63.1115625 -28.21484375 60.43359375 C-30.21373161 56.7769456 -30.43926824 53.74720998 -30.33984375 49.62109375 C-30.32179688 48.64527344 -30.30375 47.66945312 -30.28515625 46.6640625 C-30.26195313 45.92800781 -30.23875 45.19195312 -30.21484375 44.43359375 C-28.89484375 43.77359375 -27.57484375 43.11359375 -26.21484375 42.43359375 C-24.04786136 44.60057614 -24.89272576 49.51838239 -24.7890625 52.453125 C-24.08103569 56.12812131 -23.12852938 57.13593126 -20.21484375 59.43359375 C-17.38552103 60.0236515 -17.38552103 60.0236515 -14.22460938 59.91943359 C-13.0165564 59.92558685 -11.80850342 59.93174011 -10.56384277 59.93807983 C-9.2627356 59.9237088 -7.96162842 59.90933777 -6.62109375 59.89453125 C-5.26875993 59.89214549 -3.91642275 59.89124178 -2.56408691 59.89175415 C0.26722021 59.88862945 3.09801977 59.87209111 5.92919922 59.84521484 C9.55415246 59.81123504 13.17854841 59.80358648 16.80364227 59.80510521 C19.59524838 59.80456074 22.38673324 59.79358127 25.17829895 59.77910233 C27.1635694 59.7696636 29.14886529 59.76618286 31.13415527 59.76278687 C32.34220825 59.75002716 33.55026123 59.73726746 34.79492188 59.72412109 C36.38898865 59.7126857 36.38898865 59.7126857 38.01525879 59.70101929 C40.8206944 59.43016265 42.47572853 59.03331791 44.78515625 57.43359375 C46.60433887 51.9760459 46.0127293 46.08155492 46.03515625 40.37109375 C46.05578125 39.08525391 46.07640625 37.79941406 46.09765625 36.47460938 C46.13307643 27.80109279 45.55327123 20.14964149 41.09765625 12.55859375 C37.23247866 9.00680894 32.72809603 7.08124034 27.78515625 5.43359375 C27.51703125 6.36171875 27.24890625 7.28984375 26.97265625 8.24609375 C25.82047176 11.33879948 25.3450998 12.50592755 22.78515625 14.43359375 C18.8367704 15.07682424 14.84251287 14.89680669 10.84765625 14.87109375 C9.20120117 14.90106445 9.20120117 14.90106445 7.52148438 14.93164062 C6.46509766 14.93099609 5.40871094 14.93035156 4.3203125 14.9296875 C2.87217163 14.93246704 2.87217163 14.93246704 1.39477539 14.93530273 C-1.94857111 14.29253194 -3.12259753 13.06699509 -5.21484375 10.43359375 C-5.96484375 7.68359375 -5.96484375 7.68359375 -6.21484375 5.43359375 C-15.48035287 9.13122938 -15.48035287 9.13122938 -21.96484375 16.43359375 C-24.07507631 21.49815189 -24.48368011 26.23396691 -24.77734375 31.68359375 C-24.82052734 32.42867187 -24.86371094 33.17375 -24.90820312 33.94140625 C-25.013811 35.77194275 -25.11478576 37.60274551 -25.21484375 39.43359375 C-26.86484375 39.10359375 -28.51484375 38.77359375 -30.21484375 38.43359375 C-30.76827809 16.81890824 -30.76827809 16.81890824 -22.21484375 7.43359375 C-15.85350901 1.23966255 -8.50747231 -0.03100821 0 0 Z M-1.21484375 5.43359375 C-0.88484375 6.75359375 -0.55484375 8.07359375 -0.21484375 9.43359375 C3.04199028 11.06201076 6.5847396 10.70154952 10.16015625 10.74609375 C10.9284375 10.77509766 11.69671875 10.80410156 12.48828125 10.83398438 C17.26759457 10.89337614 17.26759457 10.89337614 21.32421875 8.4765625 C22.88210283 6.71662158 22.88210283 6.71662158 22.78515625 5.43359375 C14.86515625 5.43359375 6.94515625 5.43359375 -1.21484375 5.43359375 Z " fill="#000000" transform="translate(53.21484375,45.56640625)"/>
<path d="M0 0 C2.55423258 1.41240403 4.61365559 2.94491098 6.5 5.1875 C6.1875 7.375 6.1875 7.375 5.5 9.1875 C2.5578786 8.73486594 1.27386976 8.00982624 -1.125 6.125 C-5.65717984 3.52319306 -9.37978931 3.32857215 -14.5 4.1875 C-17.84752558 6.00128992 -17.84752558 6.00128992 -20.5 8.1875 C-22.875 8.9375 -22.875 8.9375 -24.5 9.1875 C-25.3125 7.5 -25.3125 7.5 -25.5 5.1875 C-19.15843677 -2.64619575 -9.05984284 -4.37082991 0 0 Z " fill="#000000" transform="translate(73.5,88.8125)"/>
<path d="M0 0 C1.051875 0.185625 2.10375 0.37125 3.1875 0.5625 C6.57119882 0.95079331 8.76425888 0.88247485 12 0 C11.814375 1.051875 11.62875 2.10375 11.4375 3.1875 C11.04920669 6.57119882 11.11752515 8.76425888 12 12 C10.39125 11.7215625 10.39125 11.7215625 8.75 11.4375 C5.59608454 11.0695432 3.90181508 10.95534657 1 12 C-0.15346355 7.96287759 0 4.19038946 0 0 Z " fill="#000000" transform="translate(76,69)"/>
<path d="M0 0 C1.051875 0.185625 2.10375 0.37125 3.1875 0.5625 C6.57119882 0.95079331 8.76425888 0.88247485 12 0 C11.814375 1.0725 11.62875 2.145 11.4375 3.25 C11.0695432 6.40391546 10.95534657 8.09818492 12 11 C7.96287759 12.15346355 4.19038946 12 0 12 C0.185625 10.948125 0.37125 9.89625 0.5625 8.8125 C0.95079331 5.42880118 0.88247485 3.23574112 0 0 Z " fill="#000000" transform="translate(40,69)"/>
</svg>
