<svg viewBox="120 120 3039.999999999999 1960" xmlns="http://www.w3.org/2000/svg" xmlns:blush="http://design.blush" overflow="visible" xmlns:xlink="http://www.w3.org/1999/xlink" width="3039.999999999999px" height="1960px"><g id="Master/Background/User Interface 4" stroke="none" stroke-width="1" fill="none" fill-rule="evenodd" blush:viewBox="112 136 3023.999999999999 1936" blush:i="0"><g id="Flying Objects" opacity=".5" transform="translate(2014.000000, 38.000000) scale(1 1)" blush:width="700" blush:height="800" blush:component="Flying Objects" blush:i="0.0" blush:value="Balloon Yellow" blush:viewBox="254.1095890410959 104 191.7808219178082 580.0000000000001"><g id="Flying Objects/Balloon Yellow" stroke="none" stroke-width="1" fill="none" fill-rule="evenodd" blush:viewBox="254.1095890410959 104 191.7808219178082 580.0000000000001" blush:i="0.0.0"><g id="Group" transform="translate(255.000000, 104.000000)" blush:i="0.0.0.0"><path d="M190,101.527864 C173.391661,-50.3585936 9.95135535,-20.1599229 0.337643154,114.971236 C-4.48660953,171.976224 42.8536945,296.75026 112.350048,233.595581 C156.554168,204.820594 186.627462,154.190975 190,101.527864" id="Fill-1" fill="#FFB201" blush:i="0.0.0.0.0"/><path d="M104.545353,273.999437 C122.302093,273.870181 123.802927,264.333729 117.875863,260.315954 C110.254794,255.148694 86.7120292,254.450044 79,255.311418 C81.8099759,264.785551 93.0452847,274.083305 104.545353,273.999437 Z M75.0978957,258 C64.3247337,272.884972 47.9033637,308.505443 58.3312759,315.588738 C65.9463317,320.761876 82.6131909,275.753624 75.0978957,258 Z M81.7497565,272.267035 C78.3480164,313.426075 64.8263176,323.325454 56.8514608,323.084172 C47.7895198,322.810783 42.1050968,302.55573 58.7562802,271.44006 C63.7576423,262.762659 70.621193,253.914025 75.4539698,250 C101.099273,251.918582 136.678175,250.720136 122.948793,271.44006 C115.873933,282.117203 91.9142837,277.354751 87.5958271,273.58362 C89.0772457,278.607737 89.5599037,291.108571 91.3688039,312.608952 C94.2173131,346.475043 86.4536722,344.438293 97.6345553,378.263522 C100.265066,386.223888 99.9385535,401.765506 95.9487029,408.462059 C87.6618664,422.47199 106.508533,433.893977 107.152839,448.095572 C108.393006,455.095674 105.309059,461.010978 100.770822,465.78603 C83.475333,507.48309 116.226407,526.171755 60.3810931,570.475246 C7.94623952,596.746787 78.0932008,546.840296 81.9532214,533.48708 C95.8353438,512.78546 81.2895382,486.981889 91.3688039,466.380479 C96.1298836,459.5915 101.917008,452.799601 97.6345553,444.380994 C67.2446438,403.296869 95.1968515,394.691463 90.1325121,374.725364 C80.9116747,338.37251 87.421584,298.304105 81.7497565,272.267035 Z" id="Fill-4" fill="#090E2B" blush:i="0.0.0.0.1"/></g></g></g><g id="Phone" transform="translate(1218.000000, 306.000000) scale(1 1)" blush:width="963" blush:height="1749" blush:component="Phone" blush:i="0.1" blush:value="Screen 2" blush:viewBox="74.41363636363644 367.28999999999996 814.1727272727271 1381.7099999999998"><g id="Phone/Screen 2" stroke="none" stroke-width="1" fill="none" fill-rule="evenodd" blush:viewBox="74.41363636363644 367.28999999999996 814.1727272727271 1381.7099999999998" blush:i="0.1.0"><g id="phone" transform="translate(78.000000, 374.000000)" blush:i="0.1.0.0"><path d="M724.766714,1375 L144.302641,1375 C119.968742,1375 99.6179306,1355.60784 97.2899648,1330.20197 L0.220625148,54.2723929 C-2.44376235,25.1775446 19.3642763,0 47.2333018,0 L627.695575,0 C652.031274,0 672.382085,19.3940496 674.708252,44.7999149 L771.779391,1320.72572 C774.443778,1349.82246 752.63394,1375 724.766714,1375 Z" id="Stroke-9" fill="#090E2B" blush:i="0.1.0.0.0"/><path d="M760.754173,1375 L180.135985,1375 C155.795625,1375 135.437611,1355.60784 133.110826,1330.20197 L16.2209515,54.2723929 C13.5540571,25.1775446 35.3696854,0 63.2461102,0 L643.862499,0 C668.204659,0 688.560873,19.3940496 690.887658,44.7999149 L807.779332,1320.72572 C810.444427,1349.82246 788.628799,1375 760.754173,1375 Z" id="Stroke-1" fill="#397DFF" blush:i="0.1.0.0.1"/><path d="M749.829318,1276.11879 L641.134069,91.5700579 C639.33455,71.9636379 623.600021,57 604.787035,57 L465.629664,57 L467.349925,75.7559347 C469.140437,95.258637 454.493904,112.134452 435.779991,112.134452 L255.687625,112.134452 C239.34605,112.134452 225.679436,99.1357939 224.117691,82.1072306 L221.813803,57 L110.515647,57 C88.9718602,57 72.1115054,76.4272712 74.1704141,98.8793282 L182.863862,1283.42994 C184.665182,1303.03448 200.39791,1318 219.210896,1318 L713.484085,1318 C735.027872,1318 751.890028,1298.57084 749.829318,1276.11879 Z" id="Stroke-7" fill="#FFF" blush:i="0.1.0.0.2"/><path d="M219.223302,1084.83099 L231.230477,1215.7389 C233.585142,1241.4062 254.178121,1261 278.800474,1261 L641.208483,1261 C669.406906,1261 691.473125,1235.56442 688.776682,1206.16712 L676.767709,1075.25921 C674.414842,1049.59192 653.823662,1030 629.201309,1030 L266.791501,1030 C238.594877,1030 216.52686,1055.43558 219.223302,1084.83099 Z" id="Stroke-3" fill="#F0F1FF" blush:i="0.1.0.0.3"/><path d="M601.613402,733 L238.839736,733 C210.612863,733 188.52438,758.465132 191.223543,787.894693 L203.76862,924.688209 C206.125661,950.385322 226.739418,970 251.386614,970 L614.158479,970 C642.385353,970 664.475636,944.534868 661.776473,915.105307 L649.229595,778.311791 C646.872554,752.614678 626.260598,733 601.613402,733 Z" id="Stroke-5" fill="#F0F1FF" blush:i="0.1.0.0.4"/><path d="M141.223471,233.864789 L175.886091,611.711008 C178.242537,637.394123 198.85109,657 223.492063,657 L586.172341,657 C614.392089,657 636.474995,631.546855 633.776513,602.133326 L599.112093,224.287107 C596.757447,198.603992 576.150695,179 551.509721,179 L188.827643,179 C160.609696,179 138.524989,204.45126 141.223471,233.864789 Z" id="Stroke-11" fill="#D8DBFF" blush:i="0.1.0.0.5"/></g></g></g><path d="M2776.5,2051 C2778.433,2051 2780,2052.567 2780,2054.5 C2780,2056.36856 2778.53572,2057.89513 2776.69204,2057.99482 L2776.5,2058 L130.5,2058 C128.567003,2058 127,2056.433 127,2054.5 C127,2052.63144 128.464278,2051.10487 130.307965,2051.00518 L130.5,2051 L2776.5,2051 Z" id="Floor" fill="#090E2B" fill-rule="nonzero" blush:i="0.2"/><g id="Outdoor Plants" transform="translate(2401.000000, 1090.000000) scale(1 1)" blush:width="751" blush:height="965" blush:component="Outdoor Plants" blush:i="0.3" blush:value="Trees" blush:viewBox="49.712724935732695 24.125 680.5334190231363 945.6999999999998"><g id="Outdoor Plants/Trees" stroke="none" stroke-width="1" fill="none" fill-rule="evenodd" blush:viewBox="49.712724935732695 24.125 680.5334190231363 945.6999999999998" blush:i="0.3.0"><g id="Group" transform="translate(50.000000, 27.000000)" blush:i="0.3.0.0"><path d="M246.327941,707.554023 C202.725234,648.694159 266.995654,634.469818 237.177083,579.041474 C201.045875,511.877502 252.889207,525.364984 230.558991,457.77841 C212.889507,404.298257 182.034281,401.995081 179.286724,325.770544 C176.543382,249.546006 39.2582753,245.25238 68.925141,351.777408 C98.5962208,458.302435 22.2672523,432.071593 35.6974086,509.466735 C53.6492336,612.915227 -18.38566,571.479753 4.55980649,651.097777 C24.0792556,718.828035 -59.1552187,832.362634 138.705486,859 C314.797719,849.998599 289.934862,766.418112 246.327941,707.554023 Z" id="Fill-1" fill="#009BA0" blush:i="0.3.0.0.0"/><path d="M95,585 C95,585 102.269883,617.395249 137,651" id="Stroke-5" stroke="#090E2B" stroke-width="9.107" stroke-linecap="round" stroke-linejoin="round" blush:i="0.3.0.0.1"/><path d="M63,713 C63,713 75.8067111,744.89889 137,778" id="Stroke-7" stroke="#090E2B" stroke-width="9.107" stroke-linecap="round" stroke-linejoin="round" blush:i="0.3.0.0.2"/><path d="M199,637 C199,637 190.990083,687.972701 137,725" id="Stroke-9" stroke="#090E2B" stroke-width="9.107" stroke-linecap="round" stroke-linejoin="round" blush:i="0.3.0.0.3"/><path d="M608.603445,473.480495 C570.590587,379.998182 626.937388,314.013535 549.627883,136.939688 C472.318378,-40.1341592 367.026875,-40.7590157 351.056381,107.78507 C335.090104,256.329155 210.936686,350.641456 268.195115,484.721371 C324.468099,616.493705 207.88992,647.351714 245.711222,745.061987 C293.787219,869.262883 452.912681,874 452.912681,874 C626.199908,874 654.358401,816.786582 667.882995,767.076651 C703.354583,636.700085 625.009296,513.826235 608.603445,473.480495 Z" id="Fill-11" fill="#FFB201" blush:i="0.3.0.0.4"/><path d="M535,314 C535,314 520.978644,385.165722 454,459" id="Stroke-15" stroke="#090E2B" stroke-width="9.107" stroke-linecap="round" stroke-linejoin="round" blush:i="0.3.0.0.5"/><path d="M560,611 C560,611 541.481013,682.167801 453,756" id="Stroke-17" stroke="#090E2B" stroke-width="9.107" stroke-linecap="round" stroke-linejoin="round" blush:i="0.3.0.0.6"/><path d="M365,465 C365,465 376.498556,549.574282 454,611" id="Stroke-19" stroke="#090E2B" stroke-width="9.107" stroke-linecap="round" stroke-linejoin="round" blush:i="0.3.0.0.7"/><line x1="136" y1="938" x2="136" y2="511" id="Stroke-3" stroke="#090E2B" stroke-width="9.107" stroke-linecap="round" stroke-linejoin="round" blush:i="0.3.0.0.8"/><line x1="453" y1="932" x2="453" y2="226" id="Stroke-13" stroke="#090E2B" stroke-width="9.107" stroke-linecap="round" stroke-linejoin="round" blush:i="0.3.0.0.9"/></g></g></g><g id="Outdoor Plants" transform="translate(2106.000000, 1090.000000) scale(1 1)" blush:width="751" blush:height="965" blush:component="Outdoor Plants" blush:i="0.4" blush:value="Plant 1" blush:viewBox="1.4479434447300719 207.47500000000002 752.9305912596402 762.3499999999999"><g id="Outdoor Plants/Plant 1" stroke="none" stroke-width="1" fill="none" fill-rule="evenodd" blush:viewBox="1.4479434447300719 207.47500000000002 752.9305912596402 762.3499999999999" blush:i="0.4.0"><g id="Group-6" transform="translate(3.000000, 208.000000)" blush:i="0.4.0.0"><path d="M199.883326,757 C199.883326,757 154.639614,615.704437 63.7021884,486.352218 C-27.2352371,357 -13.9695544,268.907181 63.7021884,246.214912 C141.373931,223.522642 267.592553,290.509829 306.646043,382.031679 C331.898655,441.210897 374.804123,628.371706 268.960535,757 C238.721051,756.165996 199.883326,757 199.883326,757 Z" id="Stroke-8" fill="#017C7F" blush:i="0.4.0.0.0"/><path d="M180.80074,266.460237 C125.13078,13.4204746 221.50036,-21.2992546 328.620701,9.33958092 C435.741041,39.9784164 507.960342,173.305169 491.620701,300.677192 C466.681525,495.084959 320.447913,757 320.447913,757 L236.4707,757 C236.4707,598.666667 217.914047,435.153412 180.80074,266.460237 Z" id="Stroke-10" fill="#009BA0" blush:i="0.4.0.0.1"/><path d="M299.869545,92.3392506 C301.326008,91.6825172 303.029928,92.2842179 303.76044,93.6823222 L303.857175,93.8846724 L304.316098,94.9397143 L304.887232,96.295742 C305.10977,96.8312409 305.345953,97.4073406 305.595259,98.0239333 L305.978996,98.9791786 C307.658678,103.18678 309.527498,108.198532 311.537907,114.004614 C317.270818,130.561319 322.999418,150.177346 328.343248,172.774008 C340.981111,226.213867 349.496836,287.717379 351.998041,356.891597 C354.239813,418.890863 350.075029,478.447706 339.405709,544.65636 L339.021897,547.023799 C329.749389,603.877937 316.614263,662.450624 292.750418,757.276586 C292.346063,758.883341 290.715735,759.858079 289.10898,759.453724 C287.502225,759.049369 286.527487,757.419042 286.931842,755.812287 L289.047362,747.388625 C311.539988,657.63471 324.138912,601.00352 333.100137,546.058001 C343.991922,479.275307 348.255457,419.431969 346.001959,357.108403 C343.515192,288.333464 335.05336,227.219184 322.504303,174.154847 L321.81134,171.250364 C316.714465,150.074656 311.289348,131.624212 305.868175,115.96781 L305.247809,114.188627 C303.503926,109.222351 301.87886,104.891689 300.406603,101.203688 L299.855033,99.8349225 C299.678602,99.4014064 299.50967,98.9906447 299.348457,98.6026828 L298.799647,97.2995385 L298.367875,96.3072458 C297.686818,94.7968393 298.359139,93.0203074 299.869545,92.3392506 Z" id="Path-6" fill="#090E2B" fill-rule="nonzero" blush:i="0.4.0.0.2"/><path d="M589.575739,282.556489 C750.420208,274.363901 760.643075,407.886816 739.778496,462.864438 C715.162837,527.72606 641.307604,570.960237 582.304218,596.642758 C443.495397,657.062349 408.155852,757 408.155852,757 L286.620701,757 C286.620701,757 309.812449,296.806189 589.575739,282.556489 Z" id="Stroke-12" fill="#FFB201" blush:i="0.4.0.0.3"/><path d="M613.533995,384.77167 C615.068698,384.147289 616.818982,384.88525 617.443363,386.419953 C618.067745,387.954656 617.329784,389.70494 615.795081,390.329322 C475.369379,447.460406 387.980539,569.583887 353.571426,757.085934 C353.272365,758.715574 351.708844,759.794222 350.079203,759.495162 C348.449563,759.196101 347.370914,757.63258 347.669975,756.002939 C382.426899,566.605602 471.067283,442.733123 613.533995,384.77167 Z" id="Path-3" fill="#090E2B" fill-rule="nonzero" blush:i="0.4.0.0.4"/></g></g></g><g id="Flying Objects" opacity=".5" transform="translate(905.000000, 223.000000) scale(-1, 1) translate(-905.000000, -223.000000) translate(555.000000, -177.000000) scale(1 1)" blush:width="700" blush:height="800" blush:component="Flying Objects" blush:i="0.5" blush:value="Cloud 2" blush:viewBox="158.21917808219177 316 335.61643835616434 164.00000000000014"><g id="Flying Objects/Cloud 2" stroke="none" stroke-width="1" fill="none" fill-rule="evenodd" blush:viewBox="158.21917808219177 316 335.61643835616434 164.00000000000014" blush:i="0.5.0"><path d="M479.95575,473.895048 C489.613069,459.137123 499.099888,436.733126 487.997876,423.547909 C481.436886,415.755283 470.330969,416.37302 462.370839,421.934228 C454.409408,427.495437 448.858402,436.870226 443.55859,445.96136 C452.064059,424.955151 460.742631,403.137375 461.346539,379.753193 C461.950447,356.369012 424.683149,265.573363 301,363.097442 C274.191914,384.2356 253.304938,454.747164 158,473.792617 C160.945352,473.792617 156.578734,478.669903 159.524086,478.669903 L479.95575,473.895048 Z" id="cloud" fill="#E4E8FD" transform="translate(325.500000, 398.771931) scale(-1, 1) translate(-325.500000, -398.771931)" blush:i="0.5.0.0"/></g></g></g></svg>