<svg viewBox="-80 80.00000000000023 3279.9999999999995 1999.9999999999995" xmlns="http://www.w3.org/2000/svg" xmlns:xlink="http://www.w3.org/1999/xlink" xmlns:blush="http://design.blush" overflow="visible" width="3279.9999999999995px" height="1999.9999999999995px"><defs><polygon id="masterbackgroundchilling-path-2" points="0 0.736500907 1713.73062 0.736500907 1713.73062 801.851244 0 801.851244"/><filter id="masterbackgroundchilling-filter-1"><feColorMatrix in="SourceGraphic" values="0 0 0 0 0.000000 0 0 0 0 0.000000 0 0 0 0 0.000000 0 0 0 0.080000 0"/></filter></defs><g id="Master/Background/Chilling" stroke="none" stroke-width="1" fill="none" fill-rule="evenodd" blush:viewBox="-64 88 3263.9999999999995 1984" blush:i="0"><g id="Window" opacity=".5" transform="translate(273.999600, 182.000000)" blush:i="0.0"><path d="M55.316,605.244 L420.996,605.244 L420.996,1079.071 L55.316,1079.072 L55.316,605.244 Z M828.84,605.244 L828.84,1079.072 L463.16,1079.071 L463.16,605.244 L828.84,605.244 Z M828.84,562.527 L463.16,562.528 L463.16,45.151 L828.84,45.152 L828.84,562.527 Z M420.996,45.151 L420.996,562.528 L55.316,562.527 L55.316,45.152 L420.996,45.151 Z" id="Combined-Shape" fill="#F0F1FF" opacity=".75" blush:i="0.0.0"/><path d="M269.484,222.0036 L73,222.0036 C73,222.0036 87.4,162.9916 138.216,162.9916 C175.868,162.9916 195.404,186.8036 203.012,199.1436 C217.864,193.3356 249.84,186.2836 269.484,222.0036" id="Fill-17" fill="#FFF" blush:i="0.0.1"/><path d="M564.306,835.5192 C569.35,835.5192 574.074,836.8872 578.174,839.2552 C586.01,825.5912 600.462,816.3952 617.046,816.3952 C632.534,816.3952 646.19,824.3992 654.306,836.5832 C658.594,821.9032 671.862,811.1992 687.582,811.1992 C705.422,811.1992 720.106,824.9872 722.082,842.7272 C723.518,842.4952 724.978,842.3432 726.478,842.3432 C737.362,842.3432 746.794,848.6432 751.53,857.8712 L536.778,857.8712 C539.718,845.0672 550.91,835.5192 564.306,835.5192" id="Fill-18" fill="#EDF2FF" blush:i="0.0.2"/><path d="M883.34,0.572 L0.34,0.572 L0.34,1130.572 L883.34,1130.572 L883.34,0.572 Z M876.34,7.571 L876.34,1123.572 L7.34,1123.572 L7.34,7.571 L876.34,7.571 Z" id="Fill-14-Copy" fill-opacity=".08" fill="#000" fill-rule="nonzero" blush:i="0.0.3"/></g><g filter="url(#masterbackgroundchilling-filter-1)" id="Wall-Texture-1" blush:i="0.1"><g transform="translate(-67.000000, 820.000000)" blush:i="0.1.0"><path d="M256.485,0 C258.141854,0 259.485,1.34394575 259.485,3.0008 C259.485,4.59848088 258.23608,5.90446088 256.661273,5.99570731 L256.485,6.0008 L176.203,6 L176.203,65.462 L343.405,65.4628 C345.002681,65.4628 346.308661,66.71172 346.399907,68.2865272 L346.405,68.4628 C346.405,70.0604809 345.15608,71.3664609 343.581273,71.4577073 L343.405,71.4628 L259.485,71.462 L259.485,130.926 L343.405,130.9266 C345.061854,130.9266 346.405,132.269746 346.405,133.9266 C346.405,135.524281 345.15608,136.830261 343.581273,136.921507 L343.405,136.9266 L176.203,136.926 L176.203,196.386 L343.405,196.3866 C345.002681,196.3866 346.308661,197.63552 346.399907,199.210327 L346.405,199.3866 C346.405,200.984281 345.15608,202.290261 343.581273,202.381507 L343.405,202.3866 L89.282,202.387 L89.282,261.849 L173.2028,261.8496 C174.800481,261.8496 176.106461,263.09852 176.197707,264.673327 L176.2028,264.8496 C176.2028,266.447281 174.95388,267.753261 173.379073,267.844507 L173.2028,267.8496 L86.2828,267.8496 C84.6851191,267.8496 83.3791391,266.60068 83.2878927,265.025873 L83.2828,264.8496 L83.282,202.385 L36.9586,202.3856 C35.3017458,202.3856 33.9586,201.042454 33.9586,199.3856 C33.9586,197.787919 35.20752,196.481939 36.7823272,196.390693 L36.9586,196.3856 L170.202,196.385 L170.202,136.925 L36.9586,136.9256 C35.3609191,136.9256 34.0549391,135.67668 33.9636927,134.101873 L33.9586,133.9256 C33.9586,132.327919 35.20752,131.021939 36.7823272,130.930693 L36.9586,130.9256 L83.281,130.925 L83.281,71.461 L3,71.462 C1.34314575,71.462 -2.72848411e-12,70.1188542 -2.72848411e-12,68.462 C-2.72848411e-12,66.8643191 1.24891996,65.5583391 2.82372721,65.4670927 L3,65.462 L170.202,65.461 L170.202,6 L111.53,6 C109.932319,6 108.626339,4.75108004 108.535093,3.17627279 L108.53,3 C108.53,1.40231912 109.77892,0.0963391206 111.353727,0.00509269341 L111.53,0 L256.485,0 Z M253.485,71.463 L89.281,71.463 L89.281,130.925 L253.485,130.925 L253.485,71.463 Z" id="Shape" fill="#FFF" fill-rule="nonzero" blush:i="0.1.0.0"/></g></g><path d="M2274.485,614.0008 C2276.14185,614.0008 2277.485,615.343946 2277.485,617.0008 C2277.485,618.598481 2276.23608,619.904461 2274.66127,619.995707 L2274.485,620.0008 L2194.203,620 L2194.203,679.462 L2361.405,679.4628 C2363.00268,679.4628 2364.30866,680.71172 2364.39991,682.286527 L2364.405,682.4628 C2364.405,684.060481 2363.15608,685.366461 2361.58127,685.457707 L2361.405,685.4628 L2277.485,685.462 L2277.485,744.926 L2361.405,744.9266 C2363.06185,744.9266 2364.405,746.269746 2364.405,747.9266 C2364.405,749.524281 2363.15608,750.830261 2361.58127,750.921507 L2361.405,750.9266 L2194.203,750.926 L2194.203,810.386 L2361.405,810.3866 C2363.00268,810.3866 2364.30866,811.63552 2364.39991,813.210327 L2364.405,813.3866 C2364.405,814.984281 2363.15608,816.290261 2361.58127,816.381507 L2361.405,816.3866 L2274.519,816.386 L2274.4848,816.3876 L2107.282,816.387 L2107.282,875.849 L2191.2028,875.8496 C2192.80048,875.8496 2194.10646,877.09852 2194.19771,878.673327 L2194.2028,878.8496 C2194.2028,880.447281 2192.95388,881.753261 2191.37907,881.844507 L2191.2028,881.8496 L2104.2828,881.8496 C2102.68512,881.8496 2101.37914,880.60068 2101.28789,879.025873 L2101.2828,878.8496 L2101.282,816.385 L2054.9586,816.3856 C2053.30175,816.3856 2051.9586,815.042454 2051.9586,813.3856 C2051.9586,811.787919 2053.20752,810.481939 2054.78233,810.390693 L2054.9586,810.3856 L2188.202,810.385 L2188.201,750.925 L2054.9586,750.9256 C2053.36092,750.9256 2052.05494,749.67668 2051.96369,748.101873 L2051.9586,747.9256 C2051.9586,746.327919 2053.20752,745.021939 2054.78233,744.930693 L2054.9586,744.9256 L2101.281,744.925 L2101.281,685.461 L2021,685.462 C2019.34315,685.462 2018,684.118854 2018,682.462 C2018,680.864319 2019.24892,679.558339 2020.82373,679.467093 L2021,679.462 L2188.202,679.461 L2188.202,620 L2129.53,620 C2127.93232,620 2126.62634,618.75108 2126.53509,617.176273 L2126.53,617 C2126.53,615.402319 2127.77892,614.096339 2129.35373,614.005093 L2129.53,614 L2274.485,614.0008 Z M2271.485,685.463 L2107.281,685.463 L2107.281,744.925 L2271.485,744.925 L2271.485,685.463 Z" id="Bricks" fill-opacity=".08" fill="#000" fill-rule="nonzero" blush:i="0.2"/><polygon id="Bricks" fill-opacity=".08" fill="#000" fill-rule="nonzero" points="1324.4846 218.5008 1324.4846 225.5008 1244.702 225.5 1244.702 283.962 1371.65019 283.9628 1371.65019 290.9628 1327.9846 290.962 1327.9846 349.426 1411.4046 349.4266 1411.4046 356.4266 1244.702 356.426 1244.702 414.886 1342.15888 414.8866 1342.15888 421.8866 1237.7026 421.8866 1237.7016 421.885 1153.8396 421.8856 1153.8396 414.8856 1237.702 414.885 1237.702 356.425 1153.8396 356.4256 1153.8396 349.4256 1320.985 349.425 1320.985 290.963 1154.2812 290.964 1154.2806 290.961 1153.8396 290.962 1153.8396 283.962 1237.701 283.962 1237.701 225.5 1179.5296 225.5 1179.5296 218.5" blush:i="0.3"/><path d="M2395.17132,1388.88574 L3161.47154,1388.88574 L3161.47154,1717.62275 L3154.64477,1717.62275 L3154.64477,1434.55427 C3154.64477,1433.38583 3153.6963,1432.44152 3152.53094,1432.44152 L3113.03714,1432.44152 C3111.87178,1432.44152 3110.92698,1433.38583 3110.92698,1434.55427 L3110.92698,1717.62275 L3106.07068,1717.62275 L3106.07068,1512.47995 C3106.07068,1511.31151 3105.12221,1510.3672 3103.95684,1510.3672 L3076.19391,1510.3672 C3075.02487,1510.3672 3074.08008,1511.31151 3074.08008,1512.47995 L3074.08008,1717.62275 L3068.07678,1717.62275 L3068.07678,1434.55427 C3068.07678,1433.38583 3067.12832,1432.44152 3065.96295,1432.44152 L3026.47651,1432.44152 C3025.30379,1432.44152 3024.35899,1433.38583 3024.35899,1434.55427 L3024.35899,1717.62275 L3019.50269,1717.62275 L3019.50269,1512.47995 C3019.50269,1511.31151 3018.55422,1510.3672 3017.38885,1510.3672 L2989.62592,1510.3672 C2988.45688,1510.3672 2987.51209,1511.31151 2987.51209,1512.47995 L2987.51209,1717.62275 L2981.5088,1717.62275 L2981.5088,1434.55427 C2981.5088,1433.38583 2980.56033,1432.44152 2979.39496,1432.44152 L2939.90852,1432.44152 C2938.7358,1432.44152 2937.79468,1433.38583 2937.79468,1434.55427 L2937.79468,1717.62275 L2932.9347,1717.62275 L2932.9347,1512.47995 C2932.9347,1511.31151 2931.98623,1510.3672 2930.82086,1510.3672 L2903.05793,1510.3672 C2901.89257,1510.3672 2900.9441,1511.31151 2900.9441,1512.47995 L2900.9441,1717.62275 L2878.33525,1717.62275 L2878.33525,1715.54307 C2879.30945,1714.48485 2879.92339,1713.08125 2879.92339,1711.53067 L2879.92339,1686.88311 C2879.92339,1685.32519 2879.30945,1683.92158 2878.33525,1682.86337 L2878.33525,1675.42648 L2838.41134,1675.42648 L2838.41134,1669.15069 C2839.39289,1668.09615 2840.00315,1666.68887 2840.00315,1665.13829 L2840.00315,1640.49073 C2840.00315,1638.93281 2839.39289,1637.5292 2838.41134,1636.47099 L2838.41134,1629.0341 L2819.89046,1629.0341 L2819.89046,1622.40189 C2820.87202,1621.34368 2821.48227,1619.94008 2821.48227,1618.38215 L2821.48227,1593.73459 C2821.48227,1592.18034 2820.87202,1590.77674 2819.89046,1589.71852 L2819.89046,1582.28163 L2870.48281,1582.28163 L2870.48281,1574.84107 C2871.46069,1573.78653 2872.07462,1572.37925 2872.07462,1570.82868 L2872.07462,1546.18112 C2872.07462,1544.62319 2871.46069,1543.21959 2870.48281,1542.16505 L2870.48281,1534.72448 L2789.78945,1534.72448 L2631.85103,1534.72448 L2629.89895,1534.72448 C2626.78885,1534.72448 2624.26696,1537.24509 2624.26696,1540.35359 L2624.26696,1542.301 L2624.26696,1546.18112 L2624.26696,1570.82868 L2624.26696,1574.70512 L2624.26696,1576.6562 C2624.26696,1579.76103 2626.78885,1582.28163 2629.89895,1582.28163 L2581.25868,1582.28163 L2579.31027,1582.28163 C2576.20018,1582.28163 2573.68196,1584.79857 2573.68196,1587.90707 L2573.68196,1589.85815 L2573.68196,1593.73459 L2573.68196,1618.38215 L2573.68196,1622.26227 L2573.68196,1624.20968 C2573.68196,1627.31818 2576.20018,1629.83511 2579.31027,1629.83511 L2581.25868,1629.83511 L2594.97839,1629.83511 C2593.32041,1630.81616 2592.20283,1632.59822 2592.20283,1634.66321 L2592.20283,1636.61062 L2592.20283,1640.49073 L2592.20283,1665.13829 L2592.20283,1669.01474 L2592.20283,1670.96582 C2592.20283,1674.07064 2594.72105,1676.59125 2597.83115,1676.59125 L2599.77955,1676.59125 L2634.35822,1676.59125 C2633.00537,1677.6164 2632.11939,1679.22576 2632.11939,1681.05559 L2632.11939,1683.003 L2632.11939,1686.88311 L2632.11939,1711.53067 L2632.11939,1715.40344 L2632.11939,1717.3582 C2632.11939,1717.44638 2632.14145,1717.53089 2632.1488,1717.62275 L2490.05863,1717.62275 L2490.05863,1434.55427 C2490.05863,1433.38583 2489.11016,1432.44152 2487.94112,1432.44152 L2448.451,1432.44152 C2447.28564,1432.44152 2446.34084,1433.38583 2446.34084,1434.55427 L2446.34084,1717.62275 L2441.48454,1717.62275 L2441.48454,1512.47995 C2441.48454,1511.31151 2440.53607,1510.3672 2439.36702,1510.3672 L2411.60777,1510.3672 C2410.43873,1510.3672 2409.49394,1511.31151 2409.49394,1512.47995 L2409.49394,1717.62275 L2395.17132,1717.62275 L2395.17132,1388.88574 Z M2395.17132,1013.18683 L3161.47154,1013.18683 L3161.47154,1347.79178 L3157.50121,1347.79178 L3157.50121,1063.46667 C3157.50121,1062.29823 3156.55274,1061.35392 3155.38737,1061.35392 L3115.90093,1061.35392 C3114.72821,1061.35392 3113.78709,1062.29823 3113.78709,1063.46667 L3113.78709,1347.79178 L3107.5522,1347.79178 L3107.5522,1063.46667 C3107.5522,1062.29823 3106.60373,1061.35392 3105.43836,1061.35392 L3065.95192,1061.35392 C3064.78288,1061.35392 3063.83809,1062.29823 3063.83809,1063.46667 L3063.83809,1347.79178 L3057.60319,1347.79178 L3057.60319,1132.30935 C3057.60319,1131.14458 3056.66207,1130.1966 3055.48936,1130.1966 L3026.36254,1130.1966 C3025.1935,1130.1966 3024.24871,1131.14458 3024.24871,1132.30935 L3024.24871,1347.79178 L2997.085,1347.79178 L2997.085,1343.32744 C2997.92319,1342.30597 2998.44521,1341.01627 2998.44521,1339.5943 L2998.44521,1320.2819 C2998.44521,1318.85625 2997.92319,1317.56655 2997.085,1316.54508 L2997.085,1309.63362 L3012.0142,1309.63362 L3012.0142,1302.72216 C3012.85238,1301.69702 3013.37073,1300.411 3013.37073,1298.98535 L3013.37073,1279.67295 C3013.37073,1278.25097 3012.85238,1276.96128 3012.0142,1275.93613 L3012.0142,1269.02467 L2942.28704,1269.02467 L2809.35437,1269.02467 L2807.40597,1269.02467 C2804.29587,1269.02467 2801.77765,1271.54528 2801.77765,1274.65378 L2801.77765,1276.60119 L2801.77765,1279.67295 L2801.77765,1298.98535 L2801.77765,1302.05711 L2801.77765,1304.00819 C2801.77765,1307.11669 2804.29587,1309.63362 2807.40597,1309.63362 L2794.42518,1309.63362 L2792.47678,1309.63362 C2789.37036,1309.63362 2786.84846,1312.15423 2786.84846,1315.25906 L2786.84846,1317.21014 L2786.84846,1320.2819 L2786.84846,1339.5943 L2786.84846,1342.66238 L2786.84846,1344.61346 C2786.84846,1345.79293 2787.21608,1346.88789 2787.83737,1347.79178 L2755.7034,1347.79178 C2755.89456,1347.2149 2756.01955,1346.60496 2756.01955,1345.96195 L2756.01955,1321.31439 C2756.01955,1319.76014 2755.4093,1318.35654 2754.43142,1317.29832 L2754.43142,1309.86143 L2767.88644,1309.86143 L2767.88644,1302.42454 C2768.86432,1301.36633 2769.47825,1299.96273 2769.47825,1298.4048 L2769.47825,1273.75724 C2769.47825,1272.20299 2768.86432,1270.79939 2767.88644,1269.74117 L2767.88644,1262.30428 L2716.10299,1262.30428 L2716.10299,1254.86739 C2717.08087,1253.80918 2717.69112,1252.40558 2717.69112,1250.85132 L2717.69112,1226.20376 C2717.69112,1224.64951 2717.08087,1223.24224 2716.10299,1222.1877 L2716.10299,1214.74713 L2635.40962,1214.74713 L2477.4712,1214.74713 L2475.51545,1214.74713 C2472.40903,1214.74713 2469.89081,1217.26774 2469.89081,1220.37624 L2469.89081,1222.32365 L2469.89081,1226.20376 L2469.89081,1250.85132 L2469.89081,1254.72777 L2469.89081,1256.67885 C2469.89081,1259.78735 2472.40903,1262.30428 2475.51545,1262.30428 L2477.4712,1262.30428 L2527.30257,1262.30428 C2524.19615,1262.30428 2521.67426,1264.82489 2521.67426,1267.93339 L2521.67426,1269.8808 L2521.67426,1273.75724 L2521.67426,1298.4048 L2521.67426,1302.28492 L2521.67426,1304.23232 C2521.67426,1307.34083 2524.19615,1309.86143 2527.30257,1309.86143 L2515.79963,1309.86143 L2513.84755,1309.86143 C2510.74113,1309.86143 2508.21924,1312.37836 2508.21924,1315.48687 L2508.21924,1317.43795 L2508.21924,1321.31439 L2508.21924,1345.96195 L2508.21924,1347.79178 L2395.17132,1347.79178 L2395.17132,1013.18683 Z M2395.17132,983.836096 L3161.47154,983.836096 L3161.47154,643.355855 L2395.17132,643.355855 L2395.17132,983.836096 Z M2395.17132,144.3824 L3161.47154,144.3824 L3161.47154,608.137182 L3157.50121,608.137182 L3157.50121,322.647307 C3157.50121,321.478863 3156.55274,320.534554 3155.38737,320.534554 L3115.90093,320.534554 C3114.72821,320.534554 3113.78709,321.478863 3113.78709,322.647307 L3113.78709,608.137182 L3108.92711,608.137182 L3108.92711,322.647307 C3108.92711,321.478863 3107.97864,320.534554 3106.81328,320.534554 L3067.32683,320.534554 C3066.15779,320.534554 3065.213,321.478863 3065.213,322.647307 L3065.213,608.137182 L3060.35301,608.137182 L3060.35301,322.647307 C3060.35301,321.478863 3059.40822,320.534554 3058.23918,320.534554 L3018.75274,320.534554 C3017.58369,320.534554 3016.6389,321.478863 3016.6389,322.647307 L3016.6389,608.137182 L3011.78259,608.137182 L3011.78259,400.572984 C3011.78259,399.40454 3010.83412,398.460232 3009.66508,398.460232 L2981.90583,398.460232 C2980.73679,398.460232 2979.78832,399.40454 2979.78832,400.572984 L2979.78832,608.137182 L2976.23707,608.137182 L2976.23707,400.572984 C2976.23707,399.40454 2975.28861,398.460232 2974.11956,398.460232 L2946.36031,398.460232 C2945.18759,398.460232 2944.2428,399.40454 2944.2428,400.572984 L2944.2428,608.137182 L2859.82541,608.137182 L2885.97447,582.016207 C2887.37144,580.619953 2887.46334,578.25367 2886.18034,576.732488 L2710.18425,368.23133 C2708.90492,366.710148 2706.72859,366.607266 2705.33162,368.00352 L2678.18997,395.112896 C2676.793,396.50915 2676.7011,398.875433 2677.98411,400.392941 L2853.33685,608.137182 L2647.41253,608.137182 L2647.41253,606.55721 C2648.39409,605.495322 2649.00434,604.095394 2649.00434,602.537468 L2649.00434,577.889909 C2649.00434,576.335657 2648.39409,574.932055 2647.41253,573.873841 L2647.41253,566.436951 L2660.86755,566.436951 L2660.86755,559.00006 C2661.84911,557.941847 2662.46304,556.538244 2662.46304,554.983992 L2662.46304,530.332759 C2662.46304,528.778507 2661.84911,527.374904 2660.86755,526.316691 L2660.86755,518.8798 L2650.68438,518.8798 L2650.68438,511.44291 C2651.66594,510.384696 2652.27619,508.981094 2652.27619,507.426842 L2652.27619,482.779283 C2652.27619,481.225032 2651.66594,479.821429 2650.68438,478.763215 L2650.68438,471.326325 L2694.65951,471.326325 L2694.65951,463.889434 C2695.63739,462.831221 2696.24764,461.427618 2696.24764,459.873367 L2696.24764,435.225807 C2696.24764,433.667881 2695.63739,432.264279 2694.65951,431.206065 L2694.65951,423.769175 L2613.96614,423.769175 L2456.02772,423.769175 L2454.07197,423.769175 C2450.96555,423.769175 2448.44365,426.289781 2448.44365,429.398283 L2448.44365,431.34569 L2448.44365,435.225807 L2448.44365,459.873367 L2448.44365,463.749809 L2448.44365,465.70089 C2448.44365,468.805719 2450.96555,471.326325 2454.07197,471.326325 L2412.0526,471.326325 L2410.10419,471.326325 C2406.9941,471.326325 2404.4722,473.843256 2404.4722,476.951759 L2404.4722,478.90284 L2404.4722,482.779283 L2404.4722,507.426842 L2404.4722,511.306959 L2404.4722,513.254366 C2404.4722,516.362869 2406.9941,518.8798 2410.10419,518.8798 L2412.0526,518.8798 L2420.28736,518.8798 C2417.17727,518.8798 2414.65905,521.400407 2414.65905,524.505235 L2414.65905,526.456316 L2414.65905,530.332759 L2414.65905,554.983992 L2414.65905,558.860435 L2414.65905,560.807842 C2414.65905,563.916344 2417.17727,566.436951 2420.28736,566.436951 L2408.78075,566.436951 L2406.82867,566.436951 C2403.71857,566.436951 2401.20035,568.957557 2401.20035,572.062385 L2401.20035,574.013466 L2401.20035,577.889909 L2401.20035,602.537468 L2401.20035,606.413911 L2401.20035,608.137182 L2395.17132,608.137182 L2395.17132,144.3824 Z M2362.83148,1979.17054 L2362.76899,2046.70515 L3199.24854,2054.99816 L3199.24854,103.288437 L2362.79104,103.288437 L2362.83148,1979.17054 Z" id="Bookshelf" fill="#C7D2F2" opacity=".5" blush:i="0.4"/><g id="Couch" transform="translate(211.000000, 967.000000)" blush:i="0.5"><polygon id="Fill-1" fill="#090E2B" points="238.781719 867.983326 219 1087.06609 238.50928 1088 311 847.207521 239.443149 837" blush:i="0.5.0"/><polygon id="Fill-2" fill="#090E2B" points="1408 847.206126 1480.49072 1088 1500 1087.06609 1480.21974 867.982051 1479.55685 837" blush:i="0.5.1"/><polygon id="Fill-3" fill="#090E2B" points="364.781719 864.981872 345 1084.06464 364.50928 1085 437 844.207521 365.444606 834" blush:i="0.5.2"/><polygon id="Fill-4" fill="#090E2B" points="1332.21942 864.981872 1352 1084.06464 1332.49187 1085 1260 844.207521 1331.55653 834" blush:i="0.5.3"/><g id="Group-16" blush:i="0.5.4"><g id="Group-7" blush:i="0.5.4.0"><mask id="masterbackgroundchilling-mask-3" fill="#fff" blush:i="0.5.4.0.0"><use xlink:href="#masterbackgroundchilling-path-2" blush:i="0.5.4.0.0.0"/></mask><g id="Clip-6" blush:i="0.5.4.0.1"/><path d="M117.223194,505.681814 C117.223194,505.681814 -124.74581,190.708322 86.6002831,92.0681445 C236.261214,22.2170011 1163.67717,-90.2975758 1633.21441,119.063724 C1633.21441,119.063724 1822.13231,214.619858 1602.67587,464.830758 L1480.18714,781.425716 L265.228597,801.851244 L117.223194,505.681814 Z" id="Fill-5" fill="#008BF2" mask="url(#masterbackgroundchilling-mask-3)" blush:i="0.5.4.0.2"/></g><path d="M849.075999,42.0434348 C1160.35874,42.0434348 1469.44068,86.6705933 1568.68866,146.075211 L1571.433,147.758 L1571.47637,147.777169 C1572.02252,148.024249 1572.83994,148.423294 1573.89709,148.98374 L1574.16635,149.12722 C1576.41262,150.330165 1578.90514,151.823139 1581.58208,153.624743 C1589.19709,158.74971 1596.80061,165.330381 1603.89223,173.5154 C1623.43117,196.066894 1635.42456,226.284401 1636.17748,265.11095 C1637.12586,314.017381 1620.03961,373.306173 1581.46249,443.997309 L1580.28691,446.142956 L1575.02976,443.251173 C1613.96272,372.472594 1631.11432,313.480714 1630.1786,265.227279 C1629.45337,227.828124 1617.99262,198.952618 1599.35753,177.444331 C1592.62872,169.67807 1585.42464,163.443097 1578.23206,158.602428 C1575.93515,157.05659 1573.79434,155.760114 1571.85705,154.699828 L1571.33378,154.416505 C1570.73644,154.09661 1570.19799,153.820739 1569.7229,153.587646 L1568.88908,153.19294 L1568.63361,153.08216 L1568.43895,152.959818 C1473.76537,93.4571569 1162.40349,48.0434348 849.075999,48.0434348 C538.882518,48.0434348 230.613873,92.5535586 132.619471,151.17899 L129.714521,152.959807 L129.519852,153.082159 L129.133523,153.25225 C129.027847,153.300838 128.885504,153.367593 128.707937,153.45292 L128.137895,153.732655 C127.737686,153.93286 127.297497,154.160602 126.819615,154.41652 C124.746964,155.526476 122.426972,156.916095 119.921211,158.602476 C112.728498,163.443183 105.524287,169.678205 98.7953656,177.444528 C80.1600575,198.95285 68.6991353,227.828372 67.9737618,265.227518 C67.0472243,312.998375 83.8481196,371.293948 121.96078,441.131354 L123.122236,443.251173 L117.86509,446.142956 C78.4594677,374.505097 61.0167468,314.511566 61.9748901,265.111167 C62.7279486,226.284623 74.7215212,196.067101 94.2606845,173.515575 C101.352426,165.330496 108.956069,158.749778 116.571211,153.624776 C119.042276,151.961745 121.356197,150.561692 123.464343,149.409985 L124.557844,148.824846 C125.287469,148.442679 125.890452,148.144221 126.354907,147.925918 L126.717,147.759 L129.464728,146.075225 C227.708627,87.2707735 531.571285,42.946504 839.644098,42.0570641 L849.075999,42.0434348 Z" id="Stroke-8" fill="#090E2B" fill-rule="nonzero" blush:i="0.5.4.1"/><polygon id="Stroke-10" fill="#090E2B" fill-rule="nonzero" points="280.555762 605.835536 1454.99895 615.40277 1454.95822 620.402605 280.515032 610.83537" blush:i="0.5.4.2"/><path d="M1304.27292,315 C1204.46105,315 1186.99445,527.449808 1194.55344,602.110041 C1194.55344,602.110041 1195.31039,634.969674 1208.99105,628.060248 C1222.67025,621.150821 1386.38213,664.458667 1428.43953,660.923172 C1428.43953,660.923172 1570.36138,484.747099 1540.69228,399.542139 C1517.78922,354.164002 1348.22338,315 1304.27292,315 Z" id="Fill-12" fill="#FFB201" blush:i="0.5.4.3"/></g><path d="M1420.87075,688.2384 L306.936599,688.2384 C284.294188,584.993309 211.341777,375.288582 52.7036906,454.543855 C52.7036906,454.543855 -11.9335958,503.931491 60.3069641,572.314036 C114.39167,623.509673 129.567646,676.833309 137.133071,749.820945 C142.679399,803.339491 178.989652,848.875491 229.988211,866.146764 C234.613063,867.711855 237.978709,868.639855 239.459185,868.639855 L1488.6,868.639855 C1489.94946,868.639855 1492.81288,867.889309 1496.74044,866.597673 C1548.27908,849.653673 1585.08137,803.836945 1590.66554,749.911127 C1598.2266,676.876945 1613.39384,623.530036 1667.49893,572.314036 C1739.73949,503.931491 1675.10366,454.543855 1675.10366,454.543855 C1516.46412,375.288582 1443.51316,584.993309 1420.87075,688.2384 Z" id="Fill-36" fill="#276DFF" blush:i="0.5.5"/><path d="M1644.84036,525.386182 C1644.84036,545.114182 1628.83462,561.106909 1609.09056,561.106909 C1589.34796,561.106909 1573.34222,545.114182 1573.34222,525.386182 C1573.34222,505.658182 1589.34796,489.665455 1609.09056,489.665455 C1628.83462,489.665455 1644.84036,505.658182 1644.84036,525.386182 Z" id="Stroke-38" fill="#090E2B" blush:i="0.5.6"/><path d="M163.516561,525.386182 C163.516561,545.114182 147.510818,561.106909 127.766764,561.106909 C108.022709,561.106909 92.0184227,545.114182 92.0184227,525.386182 C92.0184227,505.658182 108.022709,489.665455 127.766764,489.665455 C147.510818,489.665455 163.516561,505.658182 163.516561,525.386182 Z" id="Stroke-40" fill="#090E2B" blush:i="0.5.7"/></g><g id="Medium Plants" transform="translate(2117.000000, 1255.000000) scale(1 1)" blush:width="845" blush:height="800" blush:component="Medium Plants" blush:i="0.6" blush:value="Plant 2" blush:viewBox="147.875 135.72938689217756 553.475 663.8477801268499"><g id="Medium Plants/Plant 2" stroke="none" stroke-width="1" fill="none" fill-rule="evenodd" blush:viewBox="147.875 135.72938689217756 553.475 663.8477801268499" blush:i="0.6.0"><g id="Group" transform="translate(151.000000, 136.000000)" blush:i="0.6.0.0"><path d="M255.803813,361.180941 C255.803813,361.180941 255.967778,303.988941 233.935778,258.656941 C207.751778,204.780941 110.687778,137.420941 53.2517777,154.604941 C27.7837777,162.224941 74.8037777,229.528941 143.291778,299.444941 C172.127778,328.884941 243.071778,373.648941 255.803813,361.180941 Z" id="Stroke-1" fill="#009BA0" blush:i="0.6.0.0.0"/><path d="M270.711778,221.688541 C270.711778,221.688541 288.451778,194.364541 290.959778,132.728541 C292.855778,86.0165406 272.567778,50.1805406 262.055778,33.4925406 C250.247778,14.7445406 227.031778,-16.2634594 213.123778,10.3165406 C199.211778,36.9045406 191.687778,98.1165406 204.835778,139.812541 C217.983778,181.504541 238.707778,211.308541 270.711778,221.688541 Z" id="Stroke-3" fill="#009BA0" blush:i="0.6.0.0.1"/><path d="M207.752978,431.895741 C207.752978,431.895741 174.156978,465.051741 102.772978,455.699741 C39.1249777,447.359741 -0.511022309,415.243741 0.00497769134,400.363741 C0.520977691,385.483741 75.8929777,352.563741 137.464978,376.015741 C199.036978,399.471741 207.752978,431.895741 207.752978,431.895741 Z" id="Stroke-5" fill="#009BA0" blush:i="0.6.0.0.2"/><path d="M343.289778,373.051741 C343.289778,373.051741 316.393778,339.287741 317.117778,259.231741 C317.837778,179.175741 359.169778,83.8237406 372.621778,82.6437406 C386.081778,81.4677406 406.757778,128.711741 401.589778,233.135741 C398.861778,288.251741 384.213778,345.203741 343.289778,373.051741 Z" id="Stroke-7" fill="#009BA0" blush:i="0.6.0.0.3"/><path d="M390.948178,414.731741 C390.948178,414.731741 433.816178,429.307741 470.388178,408.911741 C522.396178,379.903741 546.200178,338.355741 547.268178,312.915741 C548.332178,287.475741 493.836178,305.979741 468.304178,319.935741 C442.580178,333.995741 386.932178,386.179741 390.948178,414.731741 Z" id="Stroke-9" fill="#009BA0" blush:i="0.6.0.0.4"/><path d="M368.893378,148.247341 C366.685378,214.139341 361.885378,280.055341 350.533378,345.067341 C344.689378,377.587341 336.417378,409.551341 327.241378,441.227341 C318.061378,472.651341 307.037378,503.979341 307.649378,537.079341 C307.737378,539.627341 303.569378,539.767341 303.649378,537.075341 C303.149378,503.679341 314.429378,471.751341 323.817378,440.223341 C333.101378,408.683341 341.493378,376.811341 347.445378,344.503341 C359.041378,279.767341 364.129378,213.875341 366.617378,148.191341 C366.609378,147.671341 366.941378,141.271341 367.349378,141.131341 C369.349378,140.427341 368.941378,147.287341 368.893378,148.247341" id="Fill-11" fill="#000" blush:i="0.6.0.0.5"/><path d="M241.034178,64.8057406 C252.378178,123.057741 264.026178,182.021741 276.574178,240.061741 C294.438178,337.957741 300.862178,437.673741 301.178284,537.073741 C301.202178,539.533741 297.150178,539.769741 297.178178,537.073741 C296.862178,437.933741 290.454178,338.429741 272.642178,240.813741 C260.310178,182.789741 249.022178,123.637741 238.666178,65.2497406 C238.518178,64.5337406 237.230178,55.9057406 238.562178,56.2137406 C239.158178,56.3497406 240.902178,64.0217406 241.034178,64.8057406" id="Fill-13" fill="#000" blush:i="0.6.0.0.6"/><path d="M111.547778,190.485341 C239.671778,290.141341 287.099778,378.629341 293.211883,541.541341 C293.235778,544.069341 289.139778,544.249341 289.211778,541.517341 C286.595778,439.465341 259.911778,335.225341 185.315778,261.625341 C162.091778,236.737341 132.631778,210.377341 105.695778,189.581341 C104.747778,188.949341 102.159778,186.405341 104.131778,186.837341 C105.271778,187.081341 110.983778,190.037341 111.547778,190.485341" id="Fill-15" fill="#000" blush:i="0.6.0.0.7"/><path d="M44.4229777,401.618141 C94.7429777,397.874141 146.158978,404.266141 193.262978,422.790141 C241.970978,441.422141 272.686978,490.006141 280.614978,540.074141 C281.046978,542.562141 277.154978,543.366141 276.678978,540.782141 C261.426978,453.798141 202.070978,418.202141 119.494978,406.762141 C94.7109777,403.158141 67.2389777,401.422141 42.2069777,403.158141 C41.1149777,403.294141 43.1949777,401.698141 44.4229777,401.618141" id="Fill-17" fill="#000" blush:i="0.6.0.0.8"/><path d="M499.692178,337.778541 C421.660178,388.194541 329.632178,447.238541 315.512178,546.870541 C315.188178,549.418541 311.040178,548.838541 311.564178,546.218541 C321.700178,471.770541 378.988178,416.470541 437.732178,375.370541 C457.480178,361.414541 477.616178,348.070541 498.092178,335.210541 C498.884178,334.710541 506.144178,330.642541 506.120237,332.094541 C506.112178,332.854541 500.560178,337.242541 499.692178,337.778541" id="Fill-19" fill="#000" blush:i="0.6.0.0.9"/><path d="M333.766578,663.567341 L259.346578,663.567341 C236.854578,663.567341 218.618578,637.331341 218.618578,614.839341 L218.618578,499.695341 L374.494578,499.695341 L374.494578,614.839341 C374.494578,637.331341 356.258578,663.567341 333.766578,663.567341 Z" id="Stroke-21" fill="#FFB201" blush:i="0.6.0.0.10"/></g></g></g><line x1="210.5" y1="2054.5" x2="3180.5" y2="2054.5" id="Floor" stroke="#090E2B" stroke-width="7" stroke-linecap="round" stroke-linejoin="round" blush:i="0.7"/></g></svg>