<svg width="11.159999999999997px" height="12.239999999999998px" viewBox="6 6 11.159999999999997 12.239999999999998" fill="none" xmlns="http://www.w3.org/2000/svg"><g id="Decoration/Flower 1"><path id="Fill 14" fill-rule="evenodd" clip-rule="evenodd" d="M16.2878 11.7531C17.7658 10.1461 16.9498 8.63905 15.3438 7.84705C15.0918 7.89805 14.7948 7.95605 14.5098 8.01205C14.2278 7.87305 13.9608 7.74105 13.7018 7.61305C12.5578 5.13005 10.1558 5.79005 9.23378 7.72705C8.40678 8.12805 7.27178 7.70705 6.56178 8.57705C6.14178 9.08505 5.97878 9.66705 6.06078 10.3441C6.13678 10.9721 6.64578 11.4151 6.70778 12.0551C6.65178 12.3811 6.42878 12.6461 6.27078 12.9401C5.43678 14.4961 6.64578 16.3421 8.30878 16.0941C8.42778 16.0761 8.54678 16.0611 8.58278 16.0561C9.48778 16.3061 9.79578 17.0431 10.2378 17.6831C10.5948 17.8031 10.9798 17.9001 11.2748 18.1441C11.8828 17.9801 12.4408 17.8281 12.9628 17.6871C13.4568 17.2631 13.3888 16.5711 13.8738 16.1091C14.2468 16.1081 14.6658 16.1121 15.0858 16.1051C16.2228 16.0811 16.8088 15.5091 16.8938 14.3781C16.9418 13.7341 16.9768 13.1171 16.5228 12.5611C16.3658 12.3671 16.3668 12.0451 16.2878 11.7531" fill="#4DDEFF"/></g></svg>