<svg viewBox="386.25 562.5 300 449.99999999999955" xmlns="http://www.w3.org/2000/svg" xmlns:blush="http://design.blush" overflow="visible" xmlns:xlink="http://www.w3.org/1999/xlink" width="300px" height="449.99999999999955px"><g id="Master/Character/Avatar" stroke="none" stroke-width="1" fill="none" fill-rule="evenodd" blush:has-customizable-colors="true" blush:viewBox="382.5 495 307.49999999999994 509.9999999999996" blush:i="0"><path d="M568.972307,747.517402 C568.972307,747.517402 562.254058,789.694548 568.762956,802.264565 C573.945634,812.273819 604.523831,825.962858 604.523831,825.962858 L610,855.345184 L496.468913,867 C483.331918,864.085547 435.777296,851.899195 450.956711,832.851838 C466.135125,813.804481 498.290964,808.552071 503.517715,800.109448 C513.553518,783.900611 515.387589,750.951401 515.111126,738.505277 C515.111126,735.413978 568.972307,747.517402 568.972307,747.517402" id="neck" fill="#ca8f67" blush:color="Skin-500" blush:i="0.0"/><g id="t-shirt" transform="translate(386.000000, 812.000000)" blush:i="0.1"><path d="M89.4468,0.0136764189 C102.8688,2.67167642 149.2358,34.6536764 177.6858,31.5776764 C192.0658,30.0236764 203.8198,5.46367642 204.2708,4.91467642 C204.576334,4.54492662 218.843092,11.9835019 231.055751,19.7322048 L231.0582,19.7031764 L231.0582,19.7031764 C231.135221,19.7651796 231.222432,19.8308242 231.319419,19.9003197 C231.863961,20.2463015 232.403006,20.5926111 232.936312,20.9387644 C239.599781,25.0355541 258.899602,36.4407721 265.3982,68.0261764 C268.0352,80.8401764 285.0832,128.800176 300.1392,167.597176 C288.335776,185.699803 275.3929,186.242882 241.16511,186.259174 L237.927661,186.259678 L237.927661,186.259678 C229.857644,186.259678 155.328216,189.846496 72.662627,186.259678 C38.2055127,184.764601 8.73269423,183.264728 1.25005975,158 C-2.84486358,144.173704 13.2909823,83.3129264 12.1768,74.8846764 C8.8578,49.7816764 26.8658,32.3416764 33.1348,27.1536764 C54.0788,9.82167642 87.2148,-0.427323581 89.4468,0.0136764189 Z" id="T-Shirt" fill="#FF0057" blush:i="0.1.0"/><path d="M255.6453,102.608676 C258.0363,112.136676 258.064419,120.171504 257.606419,129.951504 C256.453079,147.259988 253.873594,145.961005 249.782594,166.732005 C247.698594,177.309005 246.534594,183.736005 245.868594,185.399005 C244.964594,187.656005 245.234594,181.318005 247.753594,166.371005 C250.267594,149.368005 252.892902,151.271638 254.510902,134.292638 C256.128902,117.313638 255.5623,114.940676 252.8243,102.383676 C250.3413,91.3246764 246.4643,81.4866764 243.1413,70.6196764 C242.9503,69.1046764 239.1053,59.6106764 241.0533,61.0176764 C245.5873,74.8956764 251.9913,88.4526764 255.6453,102.608676 Z" id="Fill-15" fill="#090E2B" blush:i="0.1.1"/><path d="M96.8404,74.2851764 C93.7574,101.612176 89.1684,128.761176 83.1614,155.596176 C82.2654,157.756176 75.4204,187.256176 75.1164,182.060176 C75.0774,181.382176 75.2134,180.032176 75.3544,179.363176 C80.6594,154.144176 86.1554,126.484176 90.7034,101.126176 C90.7044,101.126176 95.4114,74.0911764 95.4114,74.0911764 C95.5384,73.2221764 96.9564,73.3601764 96.8404,74.2851764" id="Fill-17" fill="#090E2B" blush:i="0.1.2"/></g><g id="Head" transform="translate(398.000000, 525.000000) scale(1 1)" blush:width="300" blush:height="300" blush:component="Head" blush:i="0.2" blush:value="Long Dark" blush:viewBox="51 51 201 340.49999999999994"><g id="Head/Long Dark" stroke="none" stroke-width="1" fill="none" fill-rule="evenodd" blush:viewBox="51 51 201 340.49999999999994" blush:i="0.2.0"><path d="M172.750436,123.673215 C181.557667,108.745196 199.106925,88.6932061 230.141424,95.6440364 C273.229251,105.294464 235.7643,153.087 237.6813,176.044 C244.6903,259.99 223.691575,291.326 194.4633,291.326 C165.633543,291.326 152.716829,272.531922 167.8583,235.389 C181.469468,202 156.532456,151.162251 172.750436,123.673215 Z" id="Fill-1" fill="#090E2B" blush:i="0.2.0.0"/><path d="M234.848949,163.885475 C232.942649,191.560432 241.123118,249.878015 201.29748,260.203135 C173.36764,267.444173 110.311063,248.579884 103.276658,201.477616 C102.046318,193.23928 88.8110684,143.437961 121.79356,114.65996 C150.3729,89.7238126 226.222248,92.3469712 232.718352,105.216043 C244.807119,129.164429 236.755249,136.210518 234.848949,163.885475 Z" id="Fill-4" fill="#ca8f67" blush:color="Skin-500" blush:i="0.2.0.1"/><path d="M237.132791,103.554712 C238.555601,118.814762 224.859909,127.515966 206.018175,130.669488 C177.122783,135.50568 146.540942,129.287177 126.654101,145.974687 C120.819387,150.87073 126.602434,171.03705 120.104434,177.25405 C115.844434,181.32905 113.896743,172.576115 113.677743,171.810115 C111.809743,165.286115 109.796784,170.94382 107.151784,169.62282 C106.367784,194.15782 106.367784,208.818524 118.285953,227.667862 C132.317762,249.860056 162.936284,305.178536 153.323045,347.333094 C141.001856,401.362157 71.109999,413.558159 82.9582049,336.523861 C94.8064108,259.489563 69.7482937,267.648064 57.1857011,224.117077 C51.1089575,203.060384 49.1167445,173.936868 58.1857011,136.974687 C76.5555752,62.1049248 135.505093,46.1875757 182.945121,53.6709499 C216.459513,58.9576402 235.577842,86.8774414 237.132791,103.554712 Z" id="Fill-6" fill="#090E2B" blush:i="0.2.0.2"/><path d="M102.271722,163.023106 C97.3166078,162.654238 86.4745543,163.725043 90.9927759,185.83565 C93.9563575,200.338389 113.042311,203.391002 117.062687,202.616683 C124.257151,201.229616 117.611469,190.122232 117.062687,179.804078 C116.690803,172.831144 111.458282,163.708003 102.271722,163.023106 Z" id="Fill-9" fill="#ca8f67" blush:color="Skin-500" blush:i="0.2.0.3"/><path d="M162.122346,256.020918 C162.376346,256.116918 162.793001,257.295741 162.526001,257.346741 C157.131001,258.395741 143.458313,253.166394 135.058313,245.948394 C134.075313,245.103394 130.395313,241.885394 132.088313,242.314394 C139.611313,247.511394 159.614346,255.083918 162.122346,256.020918 Z" id="Fill-11" fill="#090E2B" blush:i="0.2.0.4"/><path d="M98.7621,171.4166 C96.1761,171.5516 95.2181,174.2336 97.7951,174.0726 C101.1761,173.8616 105.4961,176.9886 107.5011,179.5376 C105.0641,179.8306 103.0591,180.4216 101.2001,182.4326 C100.0751,183.6496 100.1801,185.0626 101.4441,183.9976 C104.5421,181.3886 107.6001,181.2946 108.5041,181.3496 C108.6501,181.4696 110.4571,185.6546 110.7401,187.4306 C112.7531,187.9676 109.6011,170.8536 98.7621,171.4166" id="Fill-13" fill="#090E2B" blush:i="0.2.0.5"/></g></g><g id="Expressions" transform="translate(519.000000, 658.000000) scale(1 1)" blush:width="120" blush:height="120" blush:component="Expressions" blush:i="0.3" blush:value="Relaxed" blush:viewBox="22.799999999999997 15.599999999999994 85.80000000000001 91.80000000000001"><g id="Expressions/Relaxed" stroke="none" stroke-width="1" fill="none" fill-rule="evenodd" blush:viewBox="22.799999999999997 15.599999999999994 85.80000000000001 91.80000000000001" blush:i="0.3.0"><path d="M93.917,85.9779 C78.288,85.3499 67.34,84.9099 56.819,84.4879 C53.549,84.3559 50.673,90.0739 56.294,97.5689 C64.259,108.1889 84.891,111.8759 93.281,99.0539 C97.555,92.5239 97.31,86.1149 93.917,85.9779" id="Fill-1" fill="#FFF" blush:i="0.3.0.0"/><path d="M82.7872,55.7084 C86.8282,59.4834 96.9612,74.6464 87.8282,76.8394 C85.9422,77.2914 77.3212,77.5114 78.5922,75.6374 C79.6052,74.1434 85.9772,75.0244 86.8982,72.1854 C88.1082,68.4554 83.7122,61.1524 80.9722,56.1434 C80.5012,55.2804 82.1522,54.9674 82.7872,55.7084" id="nose" fill="#090E2B" blush:i="0.3.0.1"/><path d="M63.2787643,47.5005595 C63.8977643,55.1465595 54.2727643,60.0135595 46.1077643,56.1935595 C41.9017643,54.2275595 39.7587643,51.2665595 40.7837643,50.0295595 C41.4397643,49.2375595 43.3107643,50.3635595 43.9337643,50.7335595 C52.2097643,55.6545595 58.7657643,51.2125595 60.7667643,46.8055595 C61.5487643,45.0855595 63.0797643,45.0435595 63.2787643,47.5005595 Z M104.514164,42.1987595 C103.866164,45.3027595 102.660164,46.8727595 101.140164,47.9767595 C96.7091643,51.1937595 89.4801643,47.9737595 88.0981643,45.0087595 C87.0641643,42.7917595 88.5051643,42.7377595 90.1931643,43.7887595 C92.8701643,45.4587595 95.4171643,45.8007595 97.1021643,45.4817595 C100.340164,44.8707595 101.879164,41.6127595 103.045164,40.2707595 C103.679164,39.5417595 105.019164,39.7827595 104.514164,42.1987595 Z" id="eye" fill="#090E2B" transform="translate(72.577838, 48.716394) rotate(3.000000) translate(-72.577838, -48.716394)" blush:i="0.3.0.2"/><path d="M62.79355,24.2519929 C66.09155,27.4989929 65.39755,33.0019929 61.13355,31.9079929 C49.32655,25.7259929 38.64055,24.0389929 28.38555,32.9259929 C24.70055,36.1199929 22.78655,33.4669929 23.96555,30.1789929 C24.80555,27.8369929 28.41655,23.5259929 31.44155,21.8919929 C41.35255,16.5349929 55.59955,17.1699929 62.79355,24.2519929 Z M106.56795,16.9292929 C108.41995,18.3412929 109.65195,21.1502929 106.65095,21.9192929 C105.57695,22.1952929 94.27495,18.5422929 86.72495,27.4442929 C85.02995,29.4432929 81.19395,28.9722929 81.57395,25.6042929 C82.55195,16.9622929 97.18895,9.78229286 106.56795,16.9292929 Z" id="eybrow" fill="#090E2B" transform="translate(66.040205, 24.189369) rotate(3.000000) translate(-66.040205, -24.189369)" blush:i="0.3.0.3"/></g></g><g id="Facial Accesories" transform="translate(516.000000, 708.000000) scale(1 1)" fill="#000" blush:width="120" blush:height="110" blush:component="Facial Accesories" blush:i="0.4" blush:value="None" blush:viewBox="210 192.5 0 0"><g id="Facial Accesories/None" stroke="none" stroke-width="1" fill="none" fill-rule="evenodd" fill-opacity="0" blush:viewBox="210 192.5 0 0" blush:i="0.4.0"/></g><g id="Glass" transform="translate(519.000000, 663.000000) scale(1 1)" fill="#000" blush:width="120" blush:height="75" blush:component="Glass" blush:i="0.5" blush:value="None" blush:viewBox="210 131.25 0 0"><g id="Glass/None" stroke="none" stroke-width="1" fill="none" fill-rule="evenodd" fill-opacity="0" blush:viewBox="210 131.25 0 0" blush:i="0.5.0"/></g></g></svg>