<svg viewBox="15.39393939393949 77.13750000000005 2026.8686868686868 2031.2875000000001" xmlns="http://www.w3.org/2000/svg" xmlns:xlink="http://www.w3.org/1999/xlink" xmlns:blush="http://design.blush" overflow="visible" width="2026.8686868686868px" height="2031.2875000000001px"><defs><polygon id="masterspot-ilustrationslove-is-in-the-air-path-1" points="0.354636271 0.4782 167.3115 0.4782 167.3115 15 0.354636271 15"/></defs><g id="Master/Spot Ilustrations/Love is in the Air" stroke="none" stroke-width="1" fill="none" fill-rule="evenodd" blush:viewBox="8.22672064777339 113.13499999999999 2015.5465587044532 1954.1499999999994" blush:i="0"><path d="M1047.24506,519.338312 C923.136669,365.112771 741.742853,288 503.063611,288 C145.044747,288 6.87053301,735.926019 98.4627601,1026.56953 C190.054987,1317.21304 719.040586,1740.61325 1047.24506,1769.01253 C1375.44953,1797.4118 1961,1206.72481 1961,839.013218 C1961,471.30163 1701.33559,288 1474.17114,288 C1322.72817,288 1180.41948,365.112771 1047.24506,519.338312 Z" id="Path-5" fill="#FEF4F4" opacity=".5" blush:i="0.0"/><path d="M2017.6875,2053.5 C2019.6205,2053.5 2021.1875,2055.067 2021.1875,2057 C2021.1875,2058.86856 2019.72322,2060.39513 2017.87954,2060.49482 L2017.6875,2060.5 L15.6875,2060.5 C13.7545034,2060.5 12.1875,2058.933 12.1875,2057 C12.1875,2055.13144 13.6517776,2053.60487 15.4954648,2053.50518 L15.6875,2053.5 L2017.6875,2053.5 Z" id="line" fill="#090E2B" fill-rule="nonzero" blush:i="0.1"/><g id="Flying Objects" opacity=".5" transform="translate(0.000000, -24.000000) scale(1 1)" blush:width="700" blush:height="800" blush:component="Flying Objects" blush:i="0.2" blush:value="Balloon Yellow" blush:viewBox="254.1095890410959 104 191.7808219178082 580.0000000000001"><g id="Flying Objects/Balloon Yellow" stroke="none" stroke-width="1" fill="none" fill-rule="evenodd" blush:viewBox="254.1095890410959 104 191.7808219178082 580.0000000000001" blush:i="0.2.0"><g id="Group" transform="translate(255.000000, 104.000000)" blush:i="0.2.0.0"><path d="M190,101.527864 C173.391661,-50.3585936 9.95135535,-20.1599229 0.337643154,114.971236 C-4.48660953,171.976224 42.8536945,296.75026 112.350048,233.595581 C156.554168,204.820594 186.627462,154.190975 190,101.527864" id="Fill-1" fill="#FFB201" blush:i="0.2.0.0.0"/><path d="M104.545353,273.999437 C122.302093,273.870181 123.802927,264.333729 117.875863,260.315954 C110.254794,255.148694 86.7120292,254.450044 79,255.311418 C81.8099759,264.785551 93.0452847,274.083305 104.545353,273.999437 Z M75.0978957,258 C64.3247337,272.884972 47.9033637,308.505443 58.3312759,315.588738 C65.9463317,320.761876 82.6131909,275.753624 75.0978957,258 Z M81.7497565,272.267035 C78.3480164,313.426075 64.8263176,323.325454 56.8514608,323.084172 C47.7895198,322.810783 42.1050968,302.55573 58.7562802,271.44006 C63.7576423,262.762659 70.621193,253.914025 75.4539698,250 C101.099273,251.918582 136.678175,250.720136 122.948793,271.44006 C115.873933,282.117203 91.9142837,277.354751 87.5958271,273.58362 C89.0772457,278.607737 89.5599037,291.108571 91.3688039,312.608952 C94.2173131,346.475043 86.4536722,344.438293 97.6345553,378.263522 C100.265066,386.223888 99.9385535,401.765506 95.9487029,408.462059 C87.6618664,422.47199 106.508533,433.893977 107.152839,448.095572 C108.393006,455.095674 105.309059,461.010978 100.770822,465.78603 C83.475333,507.48309 116.226407,526.171755 60.3810931,570.475246 C7.94623952,596.746787 78.0932008,546.840296 81.9532214,533.48708 C95.8353438,512.78546 81.2895382,486.981889 91.3688039,466.380479 C96.1298836,459.5915 101.917008,452.799601 97.6345553,444.380994 C67.2446438,403.296869 95.1968515,394.691463 90.1325121,374.725364 C80.9116747,338.37251 87.421584,298.304105 81.7497565,272.267035 Z" id="Fill-4" fill="#090E2B" blush:i="0.2.0.0.1"/></g></g></g><g id="Flying Objects" opacity=".5" transform="translate(1682.000000, 629.000000) scale(-1, 1) translate(-1682.000000, -629.000000) translate(1332.000000, 229.000000) scale(1 1)" blush:width="700" blush:height="800" blush:component="Flying Objects" blush:i="0.3" blush:value="Balloon Red" blush:viewBox="246.1187214611872 136 211.75799086757985 584.0000000000001"><g id="Flying Objects/Balloon Red" stroke="none" stroke-width="1" fill="none" fill-rule="evenodd" blush:viewBox="246.1187214611872 136 211.75799086757985 584.0000000000001" blush:i="0.3.0"><g id="Group" transform="translate(246.000000, 137.000000)" blush:i="0.3.0.0"><path d="M149.733462,285.734603 C157.805348,279.54733 124.836431,253.662324 120.161114,258.629066 C117.939588,260.988931 139.248923,293.771476 149.733462,285.734603 M86.1666056,282.995283 C95.1123205,293.59321 106.764338,273.462252 111.037176,264.277843 C122.832311,238.928805 77.2415824,272.420712 86.1666056,282.995283 M100.300795,579.794123 C92.0143674,575.010056 138.47669,513.857006 113.251575,477.770702 C110.299901,473.549007 118.940081,466.496386 119.230848,457.799105 C122.459484,441.684398 125.355937,423.424182 117.251562,408.33457 C98.7960546,418.451213 96.7555088,377.803537 116.173912,389.75894 C131.761439,356.831108 126.97198,307.088419 116.68901,272.649372 C97.7270329,309.677586 58.363049,290.166113 92.3663939,257.726132 C103.469034,247.691809 120.600991,248.016755 133.151426,255.333665 C154.493896,267.775187 162.517167,288.762347 155.549975,294.360078 C151.134976,297.906753 138.799381,299.036697 125.022892,277.928224 C130.927102,301.145811 132.951254,326.066115 132.506044,354.691665 C132.278262,369.406074 126.249808,390.345575 123.180793,395.783 C131.333485,416.680909 132.47412,453.698724 122.446541,472.666022 C149.246285,504.684006 108.587223,584.579057 100.300795,579.794123" id="Fill-1" fill="#090E2B" blush:i="0.3.0.0.0"/><path d="M208.173357,132.995103 C205.463986,196.578147 148.224495,284.469563 73.1038794,237.934573 C24.2441433,207.668031 -3.509826,160.19487 0.357108028,106.142496 C11.5397013,-50.1285311 223.8484,-27.6724767 208.173357,132.995103" id="Path" fill="#FF0057" blush:i="0.3.0.0.1"/><path d="M38.113339,128.891654 C42.1480359,113.398009 14.6564956,114.349394 17.9793987,128.621374 C18.3868228,141.021815 37.9599558,143.299374 38.113339,128.891654" id="Path" fill="#FFF" blush:i="0.3.0.0.2"/><path d="M122.516035,121.066751 C123.097213,103.445703 108.90088,102.103914 101.279652,108.245874 C93.6596235,114.387834 92.6135022,128.013544 106.566579,130.866499 C117.298609,133.05997 122.220053,129.993194 122.516035,121.066751" id="Path" fill="#FFF" blush:i="0.3.0.0.3"/><path d="M182.391799,126.08795 C198.758265,129.058627 205.424442,100.655213 186.887844,100.801765 C170.959958,101.26064 163.25485,123.261423 182.391799,126.08795" id="Path" fill="#FFF" blush:i="0.3.0.0.4"/><path d="M63.3640468,190.825389 C90.2863916,194.985297 71.7617764,151.393355 55.2754801,164.649082 C47.9490361,173.159896 50.3744078,190.537091 63.3640468,190.825389" id="Path" fill="#FFF" blush:i="0.3.0.0.5"/><path d="M135.750103,208.918174 C148.077079,215.362847 164.275043,204.550403 167.03213,193.218717 C169.123779,184.621999 164.185638,165.408212 145.472765,174.065297 C127.282055,182.480815 122.382346,196.421621 135.750103,208.918174 Z" id="Path" fill="#FFF" blush:i="0.3.0.0.6"/><path d="M40.1252951,61.6784509 C36.0198981,85.6264503 76.1559652,93.026113 76.6089249,68.5195352 C78.620881,38.3611046 45.0778945,31.228118 40.1252951,61.6784509" id="Path" fill="#FFF" blush:i="0.3.0.0.7"/><path d="M129.137874,44.035781 C126.699321,78.140298 170.660382,77.4387715 171.871869,50.7219048 C173.68251,28.3571449 132.615359,16.8984789 129.137874,44.035781" id="Path" fill="#FFF" blush:i="0.3.0.0.8"/></g></g></g><g transform="translate(121.000000, 557.000000) scale(1 1)" blush:has-customizable-colors="true" blush:width="1110" blush:height="1500" id="Master/Character/Standing" blush:component="Master/Character/Standing" blush:i="0.4" blush:value="Standing" blush:viewBox="322.5 75 607.5 1424.9999999999995"><g id="Master/Character/Standing" stroke="none" stroke-width="1" fill="none" fill-rule="evenodd" blush:has-customizable-colors="true" blush:viewBox="322.5 75 607.5 1424.9999999999995" blush:i="0.4.0"><g id="Lower Body/Standing" transform="translate(-64.000000, 629.000000) scale(1 1)" blush:width="1110" blush:height="871" blush:component="Lower Body/Standing" blush:i="0.4.0.0" blush:value="Running" blush:viewBox="66.60000000000002 -3.3329081632653015 976.8000000000003 916.5497448979592"><g id="Lower Body/Standing/Running" stroke="none" stroke-width="1" fill="none" fill-rule="evenodd" blush:viewBox="66.60000000000002 -3.3329081632653015 976.8000000000003 916.5497448979592" blush:i="0.4.0.0.0"><g id="Group" transform="translate(68.000000, 0.000000)" blush:i="0.4.0.0.0.0"><g id="leg-2" transform="translate(713.999940, 727.000000)" blush:i="0.4.0.0.0.0.0"><path d="M86.8812876,-5.95025052e-13 C86.8812876,-5.95025052e-13 110.415193,71.5226503 114.153391,77.1032393 C118.69279,83.8785521 136.916223,85.263092 136.916223,85.263092 C136.916223,85.263092 135.741202,111.238847 117.660601,117.980663 C105.075708,122.673583 66.2386266,135.834528 70.4499571,125.734086 C74.6624034,115.633644 -6.34304245e-14,35.5882577 -6.34304245e-14,35.5882577 L86.8812876,-5.95025052e-13 Z" id="Fill-1" fill="#b75858" blush:color="Skin-500" blush:i="0.4.0.0.0.0.0.0"/><g id="shoe-2" transform="translate(64.488745, 73.673999)" blush:i="0.4.0.0.0.0.0.1"><path d="M187.396689,7.11111109 C173.558663,-6.85599321 130.552655,3.64864483 97.8796932,6.01464483 C73.7900794,7.75871845 63.8453584,3.58946692 57.7303369,6.68681661 C52.0270751,9.57536876 70.1835558,30.0230129 35.8680193,40.5734301 C27.402955,43.1761418 16.7875902,44.9414301 2.34252578,42.1031234 C0,41.6430988 0.280379859,43.4809638 0.00252578201,52.0237982 C-0.151465634,56.7837123 6.73128115,94.6240804 21.9273326,104.120461 C47.2299078,92.0425835 65.1063026,77.7963381 90.9087919,69.1909761 C137.676431,53.5914546 159.69274,38.9879086 190.851453,19.0248534 C195.574972,15.9989638 190.93626,10.6841172 187.396689,7.11111109" id="Fill-16" fill="#071777" blush:i="0.4.0.0.0.0.0.1.0"/><path d="M183.670878,29.3737307 C122.110019,72.5702583 80.6004056,73.0782951 66.2747404,86.9303933 C60.3137103,92.6952154 22.7531953,112.913964 17.4717361,105.868442 C13.5248691,100.603841 11.6624657,93.5259393 12.6968863,93.2400988 C17.7908777,91.8343442 25.9825515,92.4652031 55.5466717,79.1378902 C92.6184314,61.5587 139.393882,52.0600865 184.200921,19.5200497 C189.350706,15.7784424 191.07474,11.3423319 191.07474,11.3423319 C191.07474,11.3423319 194.406758,13.6636694 194.27062,17.0301111 C194.135599,20.3965528 190.752251,24.4050191 183.670878,29.3737307" id="Fill-18" fill="#FFB201" blush:i="0.4.0.0.0.0.0.1.1"/><path d="M99.9297876,17.201727 C96.2060966,16.5440706 98.5896159,7.29110127 101.759831,4.64707673 C105.745753,1.32306446 112.213393,3.95369023 107.395024,5.47780066 C101.806697,7.2464387 103.527384,17.8359356 99.9297876,17.201727" id="Fill-20" fill="#FFB201" blush:i="0.4.0.0.0.0.0.1.2"/><path d="M118.468234,15.1375344 C112.566346,11.7253135 117.851152,0.797497591 123.354672,0.793029745 C126.010466,0.790798204 127.154243,3.144516 124.936989,3.03955894 C116.410552,6.31555894 122.563513,14.7936326 118.468234,15.1375344" id="Fill-22" fill="#FFB201" blush:i="0.4.0.0.0.0.0.1.3"/></g></g><g id="leg-1" transform="translate(-0.000060, 553.000000)" blush:i="0.4.0.0.0.0.1"><path d="M100.386404,52.8810145 C100.386404,52.8810145 159.42143,13.4878607 177.805139,1.34132224 C197.031328,-11.3617931 218.582716,70.3468222 218.582716,70.3468222 C218.582716,70.3468222 138.367262,89.2972069 128.931267,94.7982838 C124.401542,97.4372838 117.672879,108.472899 117.672879,108.472899 C117.672879,108.472899 90.7638126,98.3998607 89.5023279,80.3518222 C88.2408432,62.3026684 100.386404,52.8810145 100.386404,52.8810145" id="Fill-3" fill="#b75858" blush:color="Skin-500" blush:i="0.4.0.0.0.0.1.0"/><g id="shoe-1" transform="translate(-0.000000, 45.068572)" blush:i="0.4.0.0.0.0.1.1"><path d="M64.6502973,0.515596262 C59.7808993,0.967327032 57.1640728,-1.57240374 51.348282,12.1501732 C45.5324912,25.8705193 39.197134,51.166327 37.3792106,55.2943655 C29.8147718,72.472404 12.3707514,92.1399809 8.66227688,109.025789 C-6.18726394,176.635942 23.6090269,187.089327 27.4426442,184.842942 C39.4574759,177.802635 48.4577054,155.851865 58.1551595,145.466519 C76.8472565,125.449827 123.79594,62.9146732 124.85295,56.0539424 C108.804496,51.4507501 101.990915,40.0626732 101.080277,29.5457116 C100.013211,17.2340963 104.259129,9.41525011 102.669144,6.07801934 C101.07916,2.74078857 78.4674095,-0.764865276 64.6502973,0.515596262" id="Fill-8" fill="#071777" blush:i="0.4.0.0.0.0.1.1.0"/><path d="M91.2091871,105.760418 C90.3197789,105.765965 89.6080289,104.987427 89.6962993,104.104042 C90.1756412,91.2380809 71.5584065,91.2258116 72.1740646,87.5327732 C72.8500595,84.0505424 94.2070289,88.332504 92.9142585,103.681312 C92.848335,104.467658 91.9812738,105.760418 91.2091871,105.760418" id="Fill-10" fill="#FFB201" blush:i="0.4.0.0.0.0.1.1.1"/><path d="M103.614531,88.9339122 C102.909486,88.9339122 102.279302,88.4419232 102.130695,87.7269616 C99.5060468,76.5865001 83.9671029,75.1153078 84.6319243,71.4769232 C85.6274804,68.2345001 104.543047,74.982577 105.100603,87.1123847 C105.144179,88.0604616 104.560924,88.9449616 103.614531,88.9339122" id="Fill-12" fill="#FFB201" blush:i="0.4.0.0.0.0.1.1.2"/><path d="M53.603982,41.4101693 C56.2520942,27.6039386 62.9841095,3.92097703 64.6500738,0.515707801 C59.7806759,0.96743857 52.9168136,-3.99825374 47.1021401,9.7232078 C41.2863493,23.4457847 39.1969106,51.1664386 37.3789871,55.294477 C29.8145483,72.4725155 9.28329831,94.9385924 4.51222688,111.557823 C0.0171401435,127.210015 -3.41981904,157.183746 5.91561463,175.737054 C12.1850483,188.198131 23.6088034,187.089439 27.4424208,184.843054 C28.937431,183.967477 30.9978187,182.431592 32.4067932,181.144439 C31.1743595,181.738939 30.1832728,182.172823 28.5821146,182.629015 C19.8768646,185.112977 11.2610024,173.239708 8.7737881,151.720592 C6.28657382,130.200362 10.212931,108.782746 22.8579463,90.4391309 C30.1173493,79.9099001 51.0027983,54.975477 53.603982,41.4101693" id="Fill-14" fill="#FFB201" blush:i="0.4.0.0.0.0.1.1.3"/></g></g><path d="M628.138791,249.3571 C642.496601,138.247068 634.681308,0 634.681308,0 C634.681308,0 566.831168,0 431.130889,0 C431.130889,0 395.87848,47.5599962 403.828897,124.793374 C409.714735,181.97064 438.898174,240.012628 469.347671,295.628481 C465.477985,313.947934 461.130449,327.818967 456.262638,334.800251 C403.669066,410.250365 228.935865,470.048962 161.148248,559.937184 C150.091841,574.599667 222.21248,666.522888 234.548362,690.412634 C239.409474,699.8252 471.501343,556.50124 552.417535,481.747692 C588.663747,604.444826 628.841051,786.246222 671.533763,795.696743 C692.752283,800.392979 793.508156,749.169731 811.990207,737.243277 C812.892315,724.978587 750.950536,570.720556 683.29243,412.72295 C659.567433,357.316959 641.688276,299.934016 628.138791,249.3571 Z" id="Fill-5" fill="#001386" blush:i="0.4.0.0.0.0.2"/><path d="M471.288096,298.13676 C505.014456,355.262303 534.453719,411.650388 552.413,478.304688 C553.534826,482.467575 552.760844,483.591106 552.44208,482.729434 C536.582168,439.861776 518.87678,401.465864 499.598822,361.495442 C489.321197,340.583652 481.468415,317.597134 470.081267,297.243754 C469.774806,296.759203 470.368714,296.967347 471.288096,298.13676" id="Fill-24" fill="#090E2B" blush:i="0.4.0.0.0.0.3"/><path d="M574.19504,47.2123655 C585.49684,73.8390424 597.737357,124.231476 605.43642,152.401485 C613.442002,183.507291 621.340528,217.439373 628.964087,248.75416 C629.146647,249.423571 628.582064,248.592116 628.393869,247.85677 C611.590486,189.736498 575.655518,55.8454167 574.833999,52.9006801 C574.379854,51.5618587 573.647361,45.8344299 574.19504,47.2123655" id="Fill-26" fill="#090E2B" blush:i="0.4.0.0.0.0.4"/></g></g></g><g id="Upper Body/Standing" transform="translate(69.000000, -172.000000) scale(1 1)" blush:width="906" blush:height="1041" blush:component="Upper Body/Standing" blush:i="0.4.0.1" blush:value="Talking 2" blush:viewBox="210.87931034482756 395.5799999999999 630.0344827586208 473.65499999999986"><g id="Upper Body/Standing/Talking 2" stroke="none" stroke-width="1" fill="none" fill-rule="evenodd" blush:viewBox="210.87931034482756 395.5799999999999 630.0344827586208 473.65499999999986" blush:i="0.4.0.1.0"><path d="M437.225146,399 C437.225146,399 442.855422,458.871998 431.808425,464.437103 C417.873441,471.45805 408,470.330271 408,470.330271 C408,470.330271 432.579818,557.594034 511.019487,551.715823 C512.494415,551.605139 549.222937,498.718192 537.801719,491.17374 C526.13601,483.465755 499.010222,476.619098 493.259468,465.743372 C487.508714,454.867646 494.441007,412.174372 494.441007,412.174372 L437.225146,399 Z" id="Fill-5" fill="#b75858" blush:color="Skin-500" blush:i="0.4.0.1.0.0"/><path d="M262.282935,590 C262.282935,590 219.345878,640.350481 213.230421,671.128544 C209.350401,690.656027 254.789136,761.440278 325.528242,815.484859 C335.0184,822.735327 326.769775,828.983819 330.424511,837.168457 C334.650113,846.629011 341.564372,848.942234 337.354738,849.623122 C324.347588,851.724691 324.374535,858.539565 326.037231,860.467417 C329.396554,864.364055 331.847683,869.792193 338.66713,867.421064 C355.767146,861.476769 404.932436,827.919557 349.015564,808.539199 C341.426646,805.91049 284.405968,694.532334 285.489814,685.882456 C286.58863,677.111776 322.331595,647.741727 322.331595,647.741727 L262.282935,590 Z" id="hand-1" fill="#b75858" blush:color="Skin-500" blush:i="0.4.0.1.0.1"/><path d="M570,665.106646 C570,665.106646 604.181602,710.213896 624.335523,710.96718 C676.172171,712.903768 740.473204,628.524976 788.006791,620.223885 C839.476605,611.23536 847.331067,563.712613 822.120424,573.445442 C796.909781,583.178272 791.740109,590.249165 793.167466,583.841761 C793.837165,580.831617 790.921478,571.012983 785.470934,571 C782.541253,570.993029 784.227494,573.810611 782.802136,581.672701 C781.028935,591.45442 777.094707,597.544547 770.394725,601.055549 C758.045288,607.527806 665.200114,633.168399 643.669813,644.196278 C635.601448,648.329862 609.720107,595.568049 609.720107,595.568049 L570,665.106646 Z" id="hand-2" fill="#b75858" blush:color="Skin-500" blush:i="0.4.0.1.0.2"/><g id="T-shirt" transform="translate(233.000000, 466.000000)" blush:i="0.4.0.1.0.3"><path d="M180.93322,4.0806342 C181.83822,1.3296342 190.41922,-1.8393658 192.16122,1.3116342 C195.05922,6.5586342 199.09622,9.2446342 205.91322,15.1926342 C222.84122,29.9636342 251.92022,48.8476342 262.29622,47.1176342 C276.26322,44.7896342 277.16622,14.2006342 278.41222,12.0226342 C279.28822,10.4896342 288.75222,13.8546342 288.75222,16.7676342 C288.75222,19.6796342 287.29722,46.0906342 276.89722,54.8256342 C266.49622,63.5616342 250.45122,61.6536342 231.31422,50.8376342 C212.17822,40.0216342 175.97722,19.1266342 180.93322,4.0806342" id="Fill-8" fill="#FFB201" blush:i="0.4.0.1.0.3.0"/><path d="M131.481054,11.1047578 C153.576896,3.32110782 182.762175,-2.20453731 184.46532,1.2031342 C197.05732,26.3861342 246.01132,56.1411342 262.51832,55.0931342 C284.38432,53.7051342 284.86432,20.6041342 284.16932,14.0101342 C283.64332,9.0081342 311.74732,24.3231342 329.18832,36.1201342 C333.489156,39.0291334 336.867299,42.8832429 339.461181,47.5018448 C359.603485,73.7103361 375.119092,121.857139 393.80732,148.101334 C395.80432,150.905334 399.52932,151.281334 399.20032,156.331334 C398.03732,174.152334 355.17232,209.989334 341.29632,211.670334 C333.142665,212.658546 328.199204,206.064388 325.23182,198.570983 C322.532727,209.659192 320.49389,219.076664 319.87832,225.829134 C311.36632,319.207134 345.37432,322.555134 343.42432,347.907134 C341.47432,373.257134 161.278855,336.977181 131.642855,346.239181 C119.664855,349.982181 114.42232,329.264134 124.23032,306.237134 C140.79832,267.337134 156.40732,214.886134 149.86132,184.734134 C147.924265,175.812385 144.701067,164.972325 140.854828,153.160267 C112.276284,175.935029 89.4710047,192.060749 72.1774196,201.961534 C57.4604196,210.386534 -16.9895804,146.481534 3.67741961,138.376534 C19.3434196,132.232534 83.8664196,21.0585342 130.31642,11.3215342 C130.6813,11.2450342 131.045068,11.1767422 131.407695,11.1165985 Z" id="Combined-Shape" fill="#3615F6" blush:i="0.4.0.1.0.3.1"/><path d="M328.46452,90.3599342 C331.65152,104.063934 340.61952,116.396934 340.06252,131.032934 C340.32552,140.441934 337.97952,150.051934 335.75952,159.131934 C333.72652,167.915934 328.24652,188.073934 326.13352,197.128934 C326.03352,197.590934 325.24652,200.616934 325.32252,200.095934 C327.21352,186.108934 329.84552,172.248934 332.91352,158.478934 C336.17552,145.170934 339.11752,130.994934 335.53352,117.451934 C335.55852,115.270934 323.60052,86.7059342 328.46452,90.3599342 Z M174.96162,88.7759342 C178.73162,117.996934 161.40162,138.921934 143.82562,151.507934 C143.18662,151.965934 140.62062,153.342934 140.88262,153.146934 C143.11162,151.479934 148.60862,146.144934 149.05362,145.675934 C166.44062,127.321934 174.81162,112.591934 174.09662,87.6529342 C174.03562,86.8749342 174.89462,87.9709342 174.96162,88.7759342 Z" id="Combined-Shape" fill="#090E2B" blush:i="0.4.0.1.0.3.2"/></g></g></g><g id="Head" transform="translate(399.000000, 26.000000) scale(1 1)" blush:width="300" blush:height="300" blush:component="Head" blush:i="0.4.0.2" blush:value="Long Dark" blush:viewBox="51 51 201 340.49999999999994"><g id="Head/Long Dark" stroke="none" stroke-width="1" fill="none" fill-rule="evenodd" blush:viewBox="51 51 201 340.49999999999994" blush:i="0.4.0.2.0"><path d="M172.750436,123.673215 C181.557667,108.745196 199.106925,88.6932061 230.141424,95.6440364 C273.229251,105.294464 235.7643,153.087 237.6813,176.044 C244.6903,259.99 223.691575,291.326 194.4633,291.326 C165.633543,291.326 152.716829,272.531922 167.8583,235.389 C181.469468,202 156.532456,151.162251 172.750436,123.673215 Z" id="Fill-1" fill="#090E2B" blush:i="0.4.0.2.0.0"/><path d="M234.848949,163.885475 C232.942649,191.560432 241.123118,249.878015 201.29748,260.203135 C173.36764,267.444173 110.311063,248.579884 103.276658,201.477616 C102.046318,193.23928 88.8110684,143.437961 121.79356,114.65996 C150.3729,89.7238126 226.222248,92.3469712 232.718352,105.216043 C244.807119,129.164429 236.755249,136.210518 234.848949,163.885475 Z" id="Fill-4" fill="#b75858" blush:color="Skin-500" blush:i="0.4.0.2.0.1"/><path d="M237.132791,103.554712 C238.555601,118.814762 224.859909,127.515966 206.018175,130.669488 C177.122783,135.50568 146.540942,129.287177 126.654101,145.974687 C120.819387,150.87073 126.602434,171.03705 120.104434,177.25405 C115.844434,181.32905 113.896743,172.576115 113.677743,171.810115 C111.809743,165.286115 109.796784,170.94382 107.151784,169.62282 C106.367784,194.15782 106.367784,208.818524 118.285953,227.667862 C132.317762,249.860056 162.936284,305.178536 153.323045,347.333094 C141.001856,401.362157 71.109999,413.558159 82.9582049,336.523861 C94.8064108,259.489563 69.7482937,267.648064 57.1857011,224.117077 C51.1089575,203.060384 49.1167445,173.936868 58.1857011,136.974687 C76.5555752,62.1049248 135.505093,46.1875757 182.945121,53.6709499 C216.459513,58.9576402 235.577842,86.8774414 237.132791,103.554712 Z" id="Fill-6" fill="#090E2B" blush:i="0.4.0.2.0.2"/><path d="M102.271722,163.023106 C97.3166078,162.654238 86.4745543,163.725043 90.9927759,185.83565 C93.9563575,200.338389 113.042311,203.391002 117.062687,202.616683 C124.257151,201.229616 117.611469,190.122232 117.062687,179.804078 C116.690803,172.831144 111.458282,163.708003 102.271722,163.023106 Z" id="Fill-9" fill="#b75858" blush:color="Skin-500" blush:i="0.4.0.2.0.3"/><path d="M162.122346,256.020918 C162.376346,256.116918 162.793001,257.295741 162.526001,257.346741 C157.131001,258.395741 143.458313,253.166394 135.058313,245.948394 C134.075313,245.103394 130.395313,241.885394 132.088313,242.314394 C139.611313,247.511394 159.614346,255.083918 162.122346,256.020918 Z" id="Fill-11" fill="#090E2B" blush:i="0.4.0.2.0.4"/><path d="M98.7621,171.4166 C96.1761,171.5516 95.2181,174.2336 97.7951,174.0726 C101.1761,173.8616 105.4961,176.9886 107.5011,179.5376 C105.0641,179.8306 103.0591,180.4216 101.2001,182.4326 C100.0751,183.6496 100.1801,185.0626 101.4441,183.9976 C104.5421,181.3886 107.6001,181.2946 108.5041,181.3496 C108.6501,181.4696 110.4571,185.6546 110.7401,187.4306 C112.7531,187.9676 109.6011,170.8536 98.7621,171.4166" id="Fill-13" fill="#090E2B" blush:i="0.4.0.2.0.5"/></g></g><g id="Expressions" transform="translate(520.000000, 159.000000) scale(1 1)" blush:width="120" blush:height="120" blush:component="Expressions" blush:i="0.4.0.3" blush:value="Happy" blush:viewBox="21 10.200000000000003 89.4 91.80000000000001"><g id="Expressions/Happy" stroke="none" stroke-width="1" fill="none" fill-rule="evenodd" blush:viewBox="21 10.200000000000003 89.4 91.80000000000001" blush:i="0.4.0.3.0"><g id="eye1" transform="translate(21.027098, 10.213671)" blush:i="0.4.0.3.0.0"><path d="M0.0487023333,7.96572872 C1.82485498,-0.0171869856 25.1977023,-2.81531309 35.4827023,3.36568691 C39.0387023,5.47868691 45.6427023,11.2837287 39.7957023,14.4437287 C38.2517023,15.1157287 36.7517023,14.4267287 35.4827023,13.6077287 C21.4647023,3.86572872 -1.18942441,13.5304877 0.0487023333,7.96572872 Z" id="Fill-1" fill="#090E2B" blush:i="0.4.0.3.0.0.0"/><path d="M19.0113023,22.3973287 C13.7233023,23.8973287 9.19030233,28.1473287 8.76930233,31.6693287 C8.51430233,33.7973287 16.8643023,38.9063287 24.9173023,39.3033287 C35.5113023,39.8243287 40.8513023,34.0853287 40.8324531,32.2513287 C40.1193023,26.7013287 33.7283023,18.2233287 19.0113023,22.3973287 Z" id="Fill-6" fill="#FFF" blush:i="0.4.0.3.0.0.1"/><path d="M35.3981023,25.5550287 C27.2551023,19.4010287 14.6431023,23.4110287 8.76910233,31.6690287 C8.43210233,32.0970287 8.52910233,31.0200287 8.76310233,30.5290287 C11.5971023,24.5820287 16.7101023,21.7750287 22.6381023,20.5510287 C26.2051023,19.8140287 29.5311023,19.7540287 33.0101023,21.3120287 C34.3551023,21.9130287 36.7311023,23.7450287 38.5671023,25.8170287 C39.9991023,27.4320287 41.2051023,30.2010287 39.5481023,29.2220287 C38.2511023,28.4550287 36.4781023,26.3720287 35.3981023,25.5550287 Z" id="Fill-8" fill="#090E2B" blush:i="0.4.0.3.0.0.2"/><path d="M24.8135023,36.0623287 C29.3405023,36.0623287 33.0105023,32.7143287 33.0105023,28.5833287 C33.0105023,24.4533287 29.3405023,21.1043287 24.8135023,21.1043287 C20.2865023,21.1043287 16.6165023,24.4533287 16.6165023,28.5833287 C16.6165023,32.7143287 20.2865023,36.0623287 24.8135023,36.0623287 Z" id="Fill-10" fill="#090E2B" blush:i="0.4.0.3.0.0.3"/></g><g id="eye2" transform="translate(81.203378, 15.000183)" blush:i="0.4.0.3.0.1"><path d="M23.2557812,1.861246 C26.6096324,3.34897691 31.0744206,8.28711729 27.357522,8.28711729 C23.6406234,8.28711729 15.5900245,7.23270759 10.1930245,9.45970759 C8.30802454,9.94170759 6.87752199,10.8641173 4.98452199,11.0891173 C0.67652199,11.9281173 -1.66408888,6.76839233 1.38185604,3.64904337 C4.82290212,0.125071736 16.4397812,-1.545754 23.2557812,1.861246 Z" id="Fill-4" fill="#090E2B" blush:i="0.4.0.3.0.1.0"/><path d="M19.455322,34.2343173 C24.826322,32.9853173 28.843322,28.1153173 28.389322,24.4763173 C27.503322,19.6543173 18.218322,16.5753173 13.017322,19.2083173 C7.86632199,21.8153173 4.64332199,27.6403173 5.05932199,29.9403173 C5.66032199,31.5323173 13.966322,35.5113173 19.455322,34.2343173 Z" id="Fill-12" fill="#FFF" blush:i="0.4.0.3.0.1.1"/><path d="M15.011222,31.6060173 C18.549222,31.6060173 21.417222,28.8520173 21.417222,25.4560173 C21.417222,22.0590173 19.396222,18.8490173 15.011222,19.3060173 C11.492222,19.6720173 8.60422199,22.0590173 8.60422199,25.4560173 C8.60422199,28.8520173 11.473222,31.6060173 15.011222,31.6060173 Z" id="Fill-14" fill="#090E2B" blush:i="0.4.0.3.0.1.2"/><path d="M5.25072199,26.6376173 C7.27972199,19.0636173 16.440722,15.1686173 23.685722,18.7546173 C24.705722,19.2866173 26.361722,20.4806173 27.601722,21.9226173 C28.742722,23.2526173 28.593722,23.9496173 28.127722,23.8116173 C27.355722,23.5816173 25.722722,22.1166173 24.395722,21.4866173 C17.685722,18.3036173 10.704722,20.0896173 5.59372199,27.5586173 C5.34272199,27.9456173 5.10472199,27.0746173 5.25072199,26.6376173" id="Fill-22" fill="#090E2B" blush:i="0.4.0.3.0.1.3"/></g><path d="M89.773817,88.8585998 C81.203378,89.8585998 88.1482904,99.3833823 83.7083884,100.648667 C72.3411441,103.888108 60,99.9572383 58.0067117,89.8585998 C56.8303329,83.8986871 60.3418642,84.6193542 63.1467832,84.8682179 C65.9517021,85.1170816 79.8038764,85.6292987 87.244688,85.6292987 C94.4593207,85.6292987 90.833428,88.7349642 89.773817,88.8585998 Z" id="Fill-18" fill="#090E2B" blush:i="0.4.0.3.0.2"/><path d="M79.5163974,56.0474227 C79.9047316,56.0474227 82.4878873,60.4695558 83.4356699,62.0222568 C86.4544009,66.9676809 89.7813295,72.5049636 84.8702,75.6883 C82.4912,77.2313 75.0122,74.8407787 75.0122,73.0253 C75.0122,70.2632077 81.8382,75.1193 83.4442,72.3153 C84.3857451,70.8872578 80.8590997,63.6440183 79.5163974,59.348811 C78.7670658,56.9517537 79.1280631,56.0474227 79.5163974,56.0474227 Z" id="nose" fill="#090E2B" blush:i="0.4.0.3.0.3"/></g></g><g id="Facial Accesories" transform="translate(517.000000, 209.000000) scale(1 1)" fill="#000" blush:width="120" blush:height="110" blush:component="Facial Accesories" blush:i="0.4.0.4" blush:value="None" blush:viewBox="210 192.5 0 0"><g id="Facial Accesories/None" stroke="none" stroke-width="1" fill="none" fill-rule="evenodd" fill-opacity="0" blush:viewBox="210 192.5 0 0" blush:i="0.4.0.4.0"/></g><g id="Glass" transform="translate(520.000000, 164.000000) scale(1 1)" fill="#000" blush:width="120" blush:height="75" blush:component="Glass" blush:i="0.4.0.5" blush:value="None" blush:viewBox="210 131.25 0 0"><g id="Glass/None" stroke="none" stroke-width="1" fill="none" fill-rule="evenodd" fill-opacity="0" blush:viewBox="210 131.25 0 0" blush:i="0.4.0.5.0"/></g></g></g><g transform="translate(1382.000000, 1307.000000) scale(-1, 1) translate(-1382.000000, -1307.000000) translate(827.000000, 557.000000) scale(1 1)" blush:has-customizable-colors="true" blush:width="1110" blush:height="1500" id="Master/Character/Standing" blush:component="Master/Character/Standing" blush:i="0.5" blush:value="Standing" blush:viewBox="322.5 75 607.5 1424.9999999999995"><g id="Master/Character/Standing" stroke="none" stroke-width="1" fill="none" fill-rule="evenodd" blush:has-customizable-colors="true" blush:viewBox="322.5 75 607.5 1424.9999999999995" blush:i="0.5.0"><g id="Lower Body/Standing" transform="translate(-64.000000, 629.000000) scale(1 1)" blush:width="1110" blush:height="871" blush:component="Lower Body/Standing" blush:i="0.5.0.0" blush:value="Jump 4" blush:viewBox="338.54999999999995 -3.3329081632653015 482.8499999999998 894.3303571428569"><g id="Lower Body/Standing/Jump 4" stroke="none" stroke-width="1" fill="none" fill-rule="evenodd" blush:viewBox="338.54999999999995 -3.3329081632653015 482.8499999999998 894.3303571428569" blush:i="0.5.0.0.0"><g id="leg-2" transform="translate(435.000000, 640.000000)" blush:i="0.5.0.0.0.0"><path d="M69.7065805,2.62900812e-13 C69.7065805,2.62900812e-13 59.8429805,49.9337 56.8989805,63.4707 C50.7537005,82.0674541 53.4873294,106.935257 64.0823294,109.877257 C74.6763294,112.821257 92.0109805,104.9717 92.0109805,104.9717 L127.295581,18.458 L69.7065805,2.62900812e-13 Z" id="Fill-1" fill="#b75858" blush:color="Skin-500" blush:i="0.5.0.0.0.0.0"/><g id="Shoe-2" transform="translate(0.000000, 63.030484)" blush:i="0.5.0.0.0.0.1"><path d="M56.8989805,0.440216332 C56.8989805,0.440216332 27.6399805,-3.14978367 15.3919805,10.1742163 C6.73498053,19.5922163 8.65798053,44.6782163 11.9969805,51.9122163 C15.3349805,59.1442163 18.0229805,65.6842163 14.6849805,76.8122163 C11.3459805,87.9402163 -2.06601947,108.405216 2.94198053,135.669216 C7.94898053,162.932216 21.9799805,181.783216 30.8819805,184.008216 C43.1239805,178.444216 92.0109805,41.9412163 92.0109805,41.9412163 C92.0109805,41.9412163 65.8369805,42.8102163 58.8149805,24.2092163 C53.9419805,11.2952163 56.8989805,0.440216332 56.8989805,0.440216332" id="Fill-3" fill="#090E2B" blush:i="0.5.0.0.0.0.1.0"/><path d="M73.7876805,83.9235163 C68.2826805,84.2755163 60.9096805,77.8875163 58.4436805,74.0365163 C57.0876805,71.9175163 56.9446805,69.8545163 59.2776805,71.5825163 C59.4036805,71.6765163 69.3396805,84.0265163 77.5346805,79.5175163 C78.1916805,79.1565163 79.0166805,79.3955163 79.3786805,80.0525163 C80.2066805,82.7955163 75.4136805,83.7955163 73.7876805,83.9235163" id="Fill-13" fill="#FFB201" blush:i="0.5.0.0.0.0.1.1"/><path d="M67.0561805,98.4089163 C61.6181805,98.0449163 55.2521805,93.7849163 51.9871805,90.2579163 C50.0271805,88.1409163 50.4751805,85.0329163 52.8191805,87.2969163 C52.9211805,87.3959163 62.5981805,97.4629163 70.4891805,95.8379163 C71.2261805,95.6849163 71.9421805,96.1579163 72.0931805,96.8909163 C72.3801805,98.7699163 68.7541805,98.5229163 67.0561805,98.4089163" id="Fill-15" fill="#FFB201" blush:i="0.5.0.0.0.0.1.2"/><path d="M18.1880805,167.131616 C13.6080805,160.187616 8.55308053,145.445616 7.46908053,128.735616 C6.57708053,114.981616 19.7640805,82.3026163 21.5840805,67.7816163 C22.7650805,58.3596163 21.1930805,50.9576163 20.8010805,36.8716163 C20.4890805,25.6316163 21.6710805,10.6636163 22.1620805,5.07061633 C18.4590805,6.63761633 12.5900805,8.11761633 10.2480805,10.9706163 C4.09208053,18.4626163 7.54408053,44.8136163 9.29508053,52.5846163 C11.6130805,62.8676163 11.8600805,70.3616163 11.2320805,77.2026163 C10.1700805,88.7726163 -3.42991947,112.521616 0.820080531,139.912616 C5.45208053,169.769616 21.9800805,181.782616 30.8820805,184.008616 C32.1890805,184.113616 34.2180805,182.861616 34.2460805,180.621616 C28.8050805,177.793616 22.1820805,173.186616 18.1880805,167.131616" id="Fill-39" fill="#FFB201" blush:i="0.5.0.0.0.0.1.3"/></g></g><g id="leg-1" transform="translate(342.000000, 275.000000)" blush:i="0.5.0.0.0.1"><path d="M172.272894,0.64634203 C160.189894,-5.70565797 80.3318936,36.853342 80.3318936,36.853342 C80.3318936,36.853342 72.5438936,46.534342 76.3778936,58.676342 C80.2118936,70.819342 95.0828936,78.535342 95.0828936,78.535342 L181.000894,58.343342 C181.000894,58.343342 184.355894,6.99834203 172.272894,0.64634203" id="Leg-1" fill="#b75858" blush:color="Skin-500" blush:i="0.5.0.0.0.1.0"/><g id="Shoe-1" transform="translate(0.000000, 24.507092)" blush:i="0.5.0.0.0.1.1"><path d="M57.8607936,0.462549602 C53.5027936,0.867549602 51.1607936,-1.4094504 45.9557936,10.8925496 C40.7507936,23.1945496 35.0807936,45.8735496 33.4537936,49.5745496 C26.6837936,64.9745496 11.0717936,82.6075496 7.75279358,97.7475496 C-5.53720642,158.36255 21.1297936,167.73455 24.5607936,165.72155 C35.3137936,159.40855 43.3687936,139.72855 52.0477936,130.41855 C68.7767936,112.47255 110.795794,56.4065496 111.741794,50.2555496 C97.3777936,46.1285496 90.4647936,35.9525496 90.4647936,26.4895496 C90.4647936,17.0255496 91.8867936,5.4485496 91.8867936,5.4485496 C91.8867936,5.4485496 70.2267936,-0.686450398 57.8607936,0.462549602" id="Fill-7" fill="#090E2B" blush:i="0.5.0.0.0.1.1.0"/><path d="M81.6302936,94.8199763 C80.8342936,94.8249496 80.1972936,94.1269496 80.2762936,93.3349496 C80.7042936,81.7999496 64.0422936,81.7889496 64.5952936,78.4769496 C65.1982936,75.3559496 84.3132936,79.1949496 83.1562936,92.9559496 C83.0982936,93.6599496 82.3212936,94.8199763 81.6302936,94.8199763" id="Fill-9" fill="#FFB201" blush:i="0.5.0.0.0.1.1.1"/><path d="M92.7328936,79.7340432 C92.1018936,79.7340432 91.5378936,79.2929496 91.4048936,78.6519496 C89.0558936,68.6639496 75.1488936,67.3439496 75.7438936,64.0829496 C76.6348936,61.1759496 93.5638936,67.2259496 94.0628936,78.0999496 C94.1018936,78.9509496 93.5808936,79.7439496 92.7328936,79.7340432" id="Fill-11" fill="#FFB201" blush:i="0.5.0.0.0.1.1.2"/><path d="M47.9749936,37.1256496 C50.3439936,24.7476496 56.3699936,3.5156496 57.8609936,0.462649602 C53.5019936,0.867649602 47.3599936,-3.5853504 42.1549936,8.7176496 C36.9509936,21.0196496 35.0799936,45.8736496 33.4539936,49.5746496 C26.6839936,64.9746496 8.30899358,85.1176496 4.03799358,100.01765 C0.0159935799,114.05065 -3.06100642,140.92265 5.29399358,157.55765 C10.9049936,168.72865 21.1299936,167.73465 24.5609936,165.72165 C25.8979936,164.93665 27.7429936,163.55965 29.0029936,162.40565 C27.9009936,162.93765 27.0129936,163.32765 25.5809936,163.73665 C17.7889936,165.96365 10.0789936,155.31865 7.85199358,136.02465 C5.62599358,116.73165 9.13999358,97.5286496 20.4579936,81.0826496 C26.9539936,71.6426496 45.6469936,49.2886496 47.9749936,37.1256496" id="Fill-36" fill="#FFB201" blush:i="0.5.0.0.0.1.1.3"/></g></g><g id="pant" transform="translate(463.000000, -1.000000)" blush:i="0.5.0.0.0.2"><path d="M49.9597,-5.68434189e-14 L125.5647,226.873 C125.5647,226.873 91.4667,447.709 91.4667,467.432 C84.8927,483.868 41.7407,591.756 36.8107,642.708 C63.1077,657.5 95.9807,673.937 95.9807,673.937 C95.9807,673.937 153.5077,568.745 196.2407,453.691 C238.9757,338.639 243.8197,330.28 249.1347,283.398 C268.8037,109.898 246.8947,98.213 221.5377,-5.68434189e-14 L49.9597,-5.68434189e-14 Z" id="pang-2" fill="#FFB201" blush:i="0.5.0.0.0.2.0"/><path d="M211.016811,29.4397032 C211.429324,29.4079849 211.794127,29.711998 211.831621,30.1245111 C219.478458,114.255877 202.534259,186.513315 148.752398,297.323586 C142.611823,312.570537 137.052735,329.774862 132.033924,348.619037 C125.112142,374.608311 119.556702,402.288541 115.014442,430.980071 L114.769972,432.537513 L114.391722,434.993387 L113.871202,438.447953 L113.339679,442.047692 L112.233769,449.717181 L110.313941,463.452804 L109.07746,472.516631 C107.87474,478.201746 106.266575,483.965096 104.225707,490.011243 L103.828156,491.177513 L103.215387,492.932294 L102.794911,494.108459 L102.364063,495.291857 L101.922154,496.484361 L101.23705,498.294282 L100.523195,500.135217 L100.030173,501.382857 L99.2632459,503.28952 L98.4613824,505.244043 L97.9062524,506.576766 L97.0410078,508.625092 L96.1346418,510.738123 L94.8581784,513.667067 L93.8468425,515.955641 L92.4220004,519.141571 L90.8433277,522.627127 L84.1838416,537.188945 L81.8957328,542.232473 L80.491969,545.358831 L78.8405171,549.079365 L77.5786657,551.96 L76.9609405,553.383655 L76.3488304,554.803605 C63.0597033,585.732824 54.1164916,613.917064 48.1874835,647.813624 C48.116115,648.221643 47.7274947,648.494552 47.3194759,648.423184 C46.911457,648.351815 46.6385479,647.963195 46.7099165,647.555176 C52.561555,614.100943 61.34004,586.185618 74.3076705,555.760689 L75.2768076,553.500093 L76.2194162,551.324338 L76.8798863,549.812362 L78.2387003,546.731498 L79.3019366,544.345514 L81.1859474,540.16052 L82.3988698,537.48884 L90.3086679,520.178056 L91.7741441,516.921087 L92.814206,514.584147 L93.8062259,512.330898 L94.4420238,510.872121 L95.3591097,508.744385 L95.9470917,507.363464 L96.5171457,506.010425 L97.3401101,504.029072 L97.8683405,502.737591 L98.3810399,501.467473 L99.1224664,499.598279 L99.5993343,498.373421 L100.063068,497.163407 L100.514353,495.966375 L101.169435,494.191093 L101.592592,493.018367 L102.005697,491.852103 L102.409435,490.690439 L102.804489,489.531513 C104.682881,483.966709 106.190208,478.648097 107.348757,473.412914 L107.612452,472.187554 L109.288942,459.909437 L110.749983,449.494624 L111.667935,443.113493 L112.216902,439.374319 L112.75741,435.763642 L113.151901,433.183125 L113.532894,430.745522 C118.082615,402.006861 123.647781,374.27817 130.584451,348.232995 C135.618075,329.3332 141.195613,312.071778 147.381968,296.71593 C201.074445,186.085745 217.95722,114.090244 210.337779,30.2602889 C210.300285,29.8477757 210.604298,29.4829729 211.016811,29.4397032 Z" id="Stroke-19" fill="#0023FF" fill-rule="nonzero" blush:i="0.5.0.0.0.2.1"/><path d="M50.283,5.68434189e-13 C50.283,5.68434189e-13 8.52651283e-14,49.862 8.52651283e-14,118.173 C8.52651283e-14,184.304 44.138,224.539 106.653,239.005 C72.064,255.882 53.535,266.376 32.631,276.441 C36.502,286.507 44.511,340.79 50.231,343.824 C55.952,346.857 187.088,331.624 232.591,317.254 C296.756,296.991 355.72,265.649 355.666037,201.151 C355.605,129.469 214.998,92.343 178.618,84.064 C165.178,75.104 155.228,5.68434189e-13 155.228,5.68434189e-13 L50.283,5.68434189e-13 Z" id="pant-1" fill="#FFB201" blush:i="0.5.0.0.0.2.2"/><path d="M154.9509,80.5361 C179.2369,83.5761 203.3279,88.6351 226.5629,96.3911 C233.0299,98.9091 243.8689,100.7881 249.8109,104.5831 C250.7579,105.1861 252.0579,106.4111 249.6979,105.5891 C229.4249,98.5191 205.5889,92.5851 184.6009,88.0071 C174.7349,85.8441 164.6389,83.8981 154.7319,81.9461 C153.8639,81.8021 154.0499,80.4061 154.9509,80.5361" id="Fill-24" fill="#000" blush:i="0.5.0.0.0.2.3"/><path d="M107.0974,238.3438 C136.4004,217.1588 180.6114,186.8568 217.1724,185.2278 C217.8354,185.2658 217.8174,186.3288 217.1144,186.2868 C197.3774,187.3458 176.7014,197.2948 159.6704,206.9458 C150.7974,212.1858 142.1054,217.7558 133.3494,223.2228 C124.6234,228.7398 115.8444,233.9908 106.7994,239.0388 C106.4794,239.2348 106.7614,238.5838 107.0974,238.3438" id="Fill-26" fill="#090E2B" blush:i="0.5.0.0.0.2.4"/><path d="M108.8689,339.1992 C146.7369,332.4082 189.5779,325.6052 227.1199,317.4832 C232.5399,316.3272 239.1659,314.8452 244.3659,312.9912 C244.6549,312.8612 245.1769,313.3162 243.8129,314.0092 C243.0179,314.4122 239.5329,315.6862 238.8119,315.9742 C218.8469,322.1942 198.1049,325.7712 177.5619,329.4462 C161.4129,332.2732 143.4889,334.8752 127.1619,337.1022 C121.5409,337.8052 114.9289,338.9572 109.2949,339.5712 C108.8679,339.6302 108.3929,339.2692 108.8689,339.1992" id="Fill-28" fill="#090E2B" blush:i="0.5.0.0.0.2.5"/><path d="M193.156,33.7119 C193.802,47.1629 193.246,62.1809 200.4,74.0399 C203.172,77.5789 207.927,78.8559 212.067,80.0239 C212.554,80.0659 212.509,80.8479 212.011,80.8179 C194.388,80.9779 192.963,61.1319 192.094,47.7709 C192.163,46.4119 191.023,30.4829 193.156,33.7119" id="Fill-30" fill="#0023FF" blush:i="0.5.0.0.0.2.6"/><path d="M67.2205,21.0088 C67.2985,20.8618 67.2765,20.7288 67.2085,20.6198 C72.3155,21.4048 77.3565,22.5958 82.3775,23.9278 C92.4055,26.2538 102.5685,27.9908 112.7825,29.3578 C111.8835,30.6038 110.6675,33.7918 110.2815,34.4118 C107.8905,39.6418 105.2965,45.4288 102.5595,50.4438 C89.3425,74.9698 72.8945,85.5958 45.7185,77.8218 C50.1555,62.2268 57.3365,43.5268 67.2205,21.0088 M239.5335,185.9398 C230.9725,161.6608 185.7965,162.1778 164.2605,160.4838 C62.8785,155.1268 25.6705,148.9458 45.5745,78.3278 C46.6655,78.7348 48.5425,79.5628 49.4175,79.8198 C85.9785,91.8408 102.3785,57.6088 113.7425,29.4918 C113.7425,29.4888 113.7415,29.4878 113.7415,29.4858 C121.4005,30.4908 129.0845,31.2968 136.7665,31.9548 C163.4465,34.1348 203.9595,39.1698 226.6795,23.0668 C227.4905,22.4508 226.3935,21.2698 225.7165,21.9178 C203.2235,37.9268 163.3145,33.0388 136.8415,30.9808 C118.6345,29.4928 100.3705,27.2478 82.5525,23.1878 C66.8595,18.3558 50.3635,17.4048 34.1405,19.2568 C32.8635,20.3318 38.3665,19.8748 40.2195,19.8258 C46.1245,19.5298 52.5625,19.3158 58.4425,19.7318 C61.1575,19.8488 63.8445,20.1328 66.5165,20.5238 C66.4895,20.5528 66.4605,20.5798 66.4415,20.6208 C63.8495,25.8218 61.4375,31.0938 59.1145,36.4108 C50.0335,57.7248 41.8935,79.8598 39.2625,103.0238 C33.6475,141.0808 63.4525,151.3998 94.8245,156.3968 C117.7855,159.9928 141.0045,160.9788 164.1575,162.3168 C180.7955,163.3178 199.6235,163.6438 215.4865,168.9448 C224.8725,172.2768 239.4585,178.1238 237.8925,190.2208 C234.0505,201.6398 219.7385,203.2718 209.4475,205.1948 C192.5195,209.5038 176.5595,216.7088 160.5425,223.4948 C118.2585,242.1818 76.4425,262.5768 35.4205,283.9088 C35.4415,283.9198 35.4425,283.9218 35.4515,283.9278 C35.4565,283.9338 35.4585,283.9378 35.4635,283.9438 C35.3895,283.9388 34.7985,283.7678 35.7225,284.7518 C35.7735,284.7368 35.8095,284.7088 35.8465,284.6838 C35.7865,284.6548 35.7405,284.5998 35.8735,284.6528 C35.8835,284.6478 35.8935,284.6428 35.9035,284.6368 C35.9085,284.6308 35.9115,284.6238 35.9165,284.6178 C35.9175,284.6208 35.9195,284.6258 35.9205,284.6288 C76.9475,263.4728 118.7995,243.2188 161.0685,224.7048 C177.0145,218.0088 192.9815,210.8668 209.7735,206.6458 C221.3545,204.7848 240.9495,201.3678 239.5335,185.9398" id="Fill-32" fill="#0023FF" blush:i="0.5.0.0.0.2.7"/></g></g></g><g id="Upper Body/Standing" transform="translate(69.000000, -172.000000) scale(1 1)" blush:width="906" blush:height="1041" blush:component="Upper Body/Standing" blush:i="0.5.0.1" blush:value="Standing 1" blush:viewBox="273.3620689655172 426.8100000000002 400.9310344827586 593.37"><g id="Upper Body/Standing/Standing 1" stroke="none" stroke-width="1" fill="none" fill-rule="evenodd" blush:viewBox="273.3620689655172 426.8100000000002 400.9310344827586 593.37" blush:i="0.5.0.1.0"><path d="M500.943848,454.758278 C500.943848,454.758278 495.265875,499.567252 500.778675,503.56868 C505.519662,507.011513 522,515.782563 522,515.782563 C522,515.782563 505.418556,552 495.790427,552 C470.472792,552 415.0625,508.617098 421.519292,506.581284 C433.324712,502.857649 442.444306,499.681579 444.324284,494.757515 C446.713797,488.495632 446.067117,427 446.067117,427 L500.943848,454.758278 Z" id="Fill-1" fill="#b75858" blush:color="Skin-500" blush:i="0.5.0.1.0.0"/><path d="M323.738923,659 C323.738923,659 314.41075,747.080402 313.247726,772.707538 C312.747146,783.742472 305.756013,821.970101 305.22246,853.057184 C304.517052,894.162838 304.608975,953.684058 303.946531,958.98995 C302.782508,968.309272 280.278391,990.692252 276.309721,1004.52318 C274.57118,1010.58334 280.426267,1017.34075 287.007745,1019.79063 C295.674472,1022.73568 314.63756,993.638302 314.63756,993.638302 C314.63756,993.638302 314.838391,1004.2911 320.411715,1004.35512 C321.288979,1004.36613 322.391054,1003.09167 326.508599,992.273816 C332.511561,976.503194 330.120568,976.468181 328.740726,957.831537 C327.360883,939.193892 363.621457,843.863906 364.263917,777.446227 C364.442767,758.862602 388,669.29467 388,669.29467 L323.738923,659 Z" id="Fill-3" fill="#b75858" blush:color="Skin-500" blush:i="0.5.0.1.0.1"/><path d="M552,703.822267 C552,703.822267 555.716656,709.920761 555.714658,747.176668 C555.710664,837.585161 613.696282,941.546528 612.047653,958.972081 C610.33212,977.085577 624.931127,1000.23765 627.914836,1004.40131 C630.898546,1008.56696 632.139761,996.163993 632.139761,996.163993 C632.139761,996.163993 654.507596,1011.91869 669.62386,1010.95776 C684.740123,1009.99784 656.743381,988.61862 645.418666,972.23298 C637.85654,961.290889 632.174711,951.754681 632.174711,951.754681 C632.174711,951.754681 628.791576,848.459258 610.253233,779.637972 C603.185397,753.397151 602.451452,695 602.451452,695 L552,703.822267 Z" id="Fill-6" fill="#b75858" blush:color="Skin-500" blush:i="0.5.0.1.0.2"/><path d="M349.358333,541.951013 C327.65002,573.016281 310,705.142068 310,705.142068 L388.40061,722.810031 C379.950119,764.802866 370.931956,797.9071 368.561906,799.660683 C366.191857,801.414267 363.671506,804.310486 365.107121,807.953493 C370.704071,822.156271 528.609121,849.727411 555.012558,819.167896 C572.869849,798.500114 550.319437,779.621997 555.012558,758.231138 C556.152044,753.031393 555.012558,719.981169 555.012558,719.981169 C555.012558,719.981169 607.328792,709.961245 608.928879,704.433011 C610.529967,698.902775 584.713295,559.372961 570.333541,545.242916 C553.358401,528.56107 515.207642,509.940337 515.207642,509.940337 C515.207642,509.940337 503.292102,540.972556 494.516656,540.972556 C468.178304,540.972556 424.11884,503 424.11884,503 C424.11884,503 367.770347,515.60277 349.358333,541.951013 Z" id="Fill-8" fill="#FF0057" blush:i="0.5.0.1.0.3"/><path d="M410.937353,598.011713 C411.659126,619.273488 405.980507,639.099811 402.324884,659.938981 C397.696393,680.558316 389.002596,723.286645 388.030746,722.99855 C387.057878,722.710456 409.493809,606.476873 409.825214,596.170718 C409.765236,595.439942 410.853994,597.244799 410.937353,598.011713" id="Fill-10" fill="#090E2B" blush:i="0.5.0.1.0.4"/><path d="M546.828473,604.002214 C555.752123,621.619704 560.166418,641.642441 558.734427,661.333283 C557.909212,680.568266 556.712852,699.572322 555.507391,718.840296 C555.488176,719.288156 555.298053,720.373816 555.309177,719.868974 C555.152427,695.635554 555.455815,670.905289 554.872298,646.736848 C553.578855,632.251379 549.725828,615.8775 545.021292,602.100809 C544.787684,601.547982 546.547334,603.422396 546.828473,604.002214" id="Fill-12" fill="#090E2B" blush:i="0.5.0.1.0.5"/></g></g><g id="Head" transform="translate(399.000000, 26.000000) scale(1 1)" blush:width="300" blush:height="300" blush:component="Head" blush:i="0.5.0.2" blush:value="Hair Bun Blue" blush:viewBox="13.5 -16.49999999999997 229.50000000000003 283.5"><g id="Head/Hair Bun Blue" stroke="none" stroke-width="1" fill="none" fill-rule="evenodd" blush:viewBox="13.5 -16.49999999999997 229.50000000000003 283.5" blush:i="0.5.0.2.0"><path d="M199.344059,265.553095 C216.516924,263.335386 241.691505,222.379074 236.024106,172.148465 C230.356708,121.917856 241.691505,121.917856 230.01893,81.5710225 C220.329736,48.0798441 161.708955,79.0941821 138.1545,89.6041 C110.246649,102.056489 86.0355,150.8011 87.6185,184.7161 C87.6185,224.594598 145.237382,272.54045 199.344059,265.553095 Z" id="Fill-1" fill="#b75858" blush:color="Skin-500" blush:i="0.5.0.2.0.0"/><path d="M193.5844,33.9056 C150.2074,14.2296 105.6884,35.1006 105.6884,35.1006 C118.5984,-30.0504 38.0714,-33.9034 17.3444,29.3026 C3.2354,65.4986 37.2294,97.3536 54.9914,81.5726 C39.5924,101.0976 42.2994,153.2116 59.4064,183.8516 C66.4564,196.4786 78.6364,205.7256 88.9734,207.6486 C107.8404,211.1596 88.8364,193.3466 86.9744,187.8896 C87.7264,172.1066 106.4474,144.4096 109.9404,178.8516 C111.3964,187.5766 106.8344,222.2976 107.4114,230.4736 C107.8204,236.2766 108.1734,239.4086 111.7514,246.0656 C115.1854,252.4546 113.0344,265.5186 113.4164,266.9406 C113.9394,263.3896 115.1464,256.9646 113.9464,249.5446 C113.4484,246.4556 112.2384,243.3206 110.8584,239.9496 C107.9674,232.8816 114.1684,216.7296 117.1604,179.2596 C119.2104,153.5926 106.2734,140.1506 121.6944,130.4506 C153.1814,110.6466 206.1304,133.4336 236.4844,108.1216 C250.1884,96.6956 237.1654,53.6756 193.5844,33.9056" id="Fill-3" fill="#001386" blush:i="0.5.0.2.0.1"/><path d="M108.016,170.0277 C110.682,180.5817 111.718862,189.325045 102.418862,193.792045 C93.1178621,198.259045 76.839,190.9327 72.126,181.1207 C67.413,171.3077 69.907,156.1527 79.058,151.3867 C93.319,143.9607 104.57649,156.411576 108.016,170.0277 Z" id="Fill-6" fill="#b75858" blush:color="Skin-500" blush:i="0.5.0.2.0.2"/><path d="M107.0241,22.7615 C108.7201,24.7845 106.6701,28.7715 105.5911,26.3665 C100.2951,21.6835 83.5781,30.9485 79.3101,35.2825 C64.5022581,48.7512605 56.5310332,63.01493 54.9982454,81.52041 C55.0086551,81.4325177 55.1506358,81.1065033 55.2124,80.9273 C62.9104,58.6643 80.6224,35.9053 105.5624,33.7633 C106.4504,33.6903 106.6934,35.0523 105.8134,35.2673 C81.4394,41.4393 66.3594,61.2143 55.2544,81.0903 C55.1694,81.2413 55.0364,81.5563 55.0014,81.5446334 L54.9974988,81.5294302 C54.9966974,81.539119 54.9958978,81.5488089 54.9951,81.5585 C54.9901,81.6215 54.9741,81.4295 54.9711,81.3665 C53.7271,59.3915 68.2001,37.4115 86.1501,26.2935 C91.8931,22.7355 101.9861,16.7525 107.0241,22.7615 Z" id="Combined-Shape" fill="#FFB201" blush:i="0.5.0.2.0.3"/><path d="M100.3978,178.1312 C99.8758,174.3442 99.0018,170.9522 96.5408,168.0812 C92.8728,163.9912 87.4958,161.4252 82.0198,161.7142 C81.6068,161.7352 80.6908,162.3182 80.6278,162.7422 C80.5488,163.2702 81.4808,163.7792 82.0058,163.8082 C87.8878,164.5712 93.6318,167.8562 96.4468,173.1822 C93.1198,171.9562 85.4758,175.8292 86.0728,178.4382 C86.4988,180.3022 92.8178,174.3252 97.8648,176.1792 C98.4678,177.6342 99.0788,179.9952 99.5408,182.3572 C99.6238,182.7792 99.8948,183.2822 100.2708,183.0372 C100.8858,182.6372 100.5948,179.5582 100.3978,178.1312" id="Fill-12" fill="#090E2B" blush:i="0.5.0.2.0.4"/><path d="M132.3031,247.9544 C137.5441,250.6564 146.3971,255.2584 154.0611,258.6254 C156.5331,259.7114 159.0641,260.7364 161.6331,261.6154 C161.8811,261.6984 161.5831,262.6034 159.8031,262.1904 C154.5061,260.9634 149.3321,258.8404 143.9951,256.1334 C139.5371,253.8724 133.7531,250.3594 131.3071,248.4984 C129.3351,246.9994 129.8901,246.7114 132.3031,247.9544" id="Fill-14" fill="#000" blush:i="0.5.0.2.0.5"/></g></g><g id="Expressions" transform="translate(520.000000, 159.000000) scale(1 1)" blush:width="120" blush:height="120" blush:component="Expressions" blush:i="0.5.0.3" blush:value="Smile" blush:viewBox="21 10.200000000000003 89.4 88.80000000000001"><g id="Expressions/Smile" stroke="none" stroke-width="1" fill="none" fill-rule="evenodd" blush:viewBox="21 10.200000000000003 89.4 88.80000000000001" blush:i="0.5.0.3.0"><g id="eye1" transform="translate(21.027098, 10.213671)" blush:i="0.5.0.3.0.0"><path d="M0.0487023333,7.96572872 C1.82485498,-0.0171869856 25.1977023,-2.81531309 35.4827023,3.36568691 C39.0387023,5.47868691 45.6427023,11.2837287 39.7957023,14.4437287 C38.2517023,15.1157287 36.7517023,14.4267287 35.4827023,13.6077287 C21.4647023,3.86572872 -1.18942441,13.5304877 0.0487023333,7.96572872 Z" id="Fill-1" fill="#090E2B" blush:i="0.5.0.3.0.0.0"/><path d="M19.0113023,22.3973287 C13.7233023,23.8973287 9.19030233,28.1473287 8.76930233,31.6693287 C8.51430233,33.7973287 16.8643023,38.9063287 24.9173023,39.3033287 C35.5113023,39.8243287 40.8513023,34.0853287 40.8324531,32.2513287 C40.1193023,26.7013287 33.7283023,18.2233287 19.0113023,22.3973287 Z" id="Fill-6" fill="#FFF" blush:i="0.5.0.3.0.0.1"/><path d="M35.3981023,25.5550287 C27.2551023,19.4010287 14.6431023,23.4110287 8.76910233,31.6690287 C8.43210233,32.0970287 8.52910233,31.0200287 8.76310233,30.5290287 C11.5971023,24.5820287 16.7101023,21.7750287 22.6381023,20.5510287 C26.2051023,19.8140287 29.5311023,19.7540287 33.0101023,21.3120287 C34.3551023,21.9130287 36.7311023,23.7450287 38.5671023,25.8170287 C39.9991023,27.4320287 41.2051023,30.2010287 39.5481023,29.2220287 C38.2511023,28.4550287 36.4781023,26.3720287 35.3981023,25.5550287 Z" id="Fill-8" fill="#090E2B" blush:i="0.5.0.3.0.0.2"/><path d="M24.8135023,36.0623287 C29.3405023,36.0623287 33.0105023,32.7143287 33.0105023,28.5833287 C33.0105023,24.4533287 29.3405023,21.1043287 24.8135023,21.1043287 C20.2865023,21.1043287 16.6165023,24.4533287 16.6165023,28.5833287 C16.6165023,32.7143287 20.2865023,36.0623287 24.8135023,36.0623287 Z" id="Fill-10" fill="#090E2B" blush:i="0.5.0.3.0.0.3"/></g><g id="eye2" transform="translate(81.203378, 15.000183)" blush:i="0.5.0.3.0.1"><path d="M23.2557812,1.861246 C26.6096324,3.34897691 31.0744206,8.28711729 27.357522,8.28711729 C23.6406234,8.28711729 15.5900245,7.23270759 10.1930245,9.45970759 C8.30802454,9.94170759 6.87752199,10.8641173 4.98452199,11.0891173 C0.67652199,11.9281173 -1.66408888,6.76839233 1.38185604,3.64904337 C4.82290212,0.125071736 16.4397812,-1.545754 23.2557812,1.861246 Z" id="Fill-4" fill="#090E2B" blush:i="0.5.0.3.0.1.0"/><path d="M19.455322,34.2343173 C24.826322,32.9853173 28.843322,28.1153173 28.389322,24.4763173 C27.503322,19.6543173 18.218322,16.5753173 13.017322,19.2083173 C7.86632199,21.8153173 4.64332199,27.6403173 5.05932199,29.9403173 C5.66032199,31.5323173 13.966322,35.5113173 19.455322,34.2343173 Z" id="Fill-12" fill="#FFF" blush:i="0.5.0.3.0.1.1"/><path d="M15.011222,31.6060173 C18.549222,31.6060173 21.417222,28.8520173 21.417222,25.4560173 C21.417222,22.0590173 19.396222,18.8490173 15.011222,19.3060173 C11.492222,19.6720173 8.60422199,22.0590173 8.60422199,25.4560173 C8.60422199,28.8520173 11.473222,31.6060173 15.011222,31.6060173 Z" id="Fill-14" fill="#090E2B" blush:i="0.5.0.3.0.1.2"/><path d="M5.25072199,26.6376173 C7.27972199,19.0636173 16.440722,15.1686173 23.685722,18.7546173 C24.705722,19.2866173 26.361722,20.4806173 27.601722,21.9226173 C28.742722,23.2526173 28.593722,23.9496173 28.127722,23.8116173 C27.355722,23.5816173 25.722722,22.1166173 24.395722,21.4866173 C17.685722,18.3036173 10.704722,20.0896173 5.59372199,27.5586173 C5.34272199,27.9456173 5.10472199,27.0746173 5.25072199,26.6376173" id="Fill-22" fill="#090E2B" blush:i="0.5.0.3.0.1.3"/></g><path d="M86.9879908,70.3386563 C86.0131141,75.2575144 79.9689699,75.7359636 76.0323155,74.6212963 C72.832522,73.7152719 72.0034674,71.851321 73.0853454,71.2537752 C74.8485675,70.2799076 80.4997296,72.9889887 82.5858367,70.4027854 C86.305606,65.7912866 74.8914605,48.8346319 78.5177277,51.5592059 C83.3102149,55.1600121 87.6386051,67.0559034 86.9879908,70.3386563 Z" id="nose" fill="#090E2B" blush:i="0.5.0.3.0.2"/><path d="M89.6387968,90.5818454 C88.8707672,91.1602445 87.0677709,93.5463983 85.244688,95.0617056 C81.1444698,98.4697185 74.4745751,99.2530639 70.5444286,98.4697185 C63.1559339,96.997065 59.9595527,92.178225 58.0067117,90.8585998 C56.0538707,89.5389745 59.7200172,87.8442758 62.5249361,88.0931395 C65.3298551,88.3420033 67.2123883,89.156182 72.5654423,91.4592717 C76.0199316,92.9455259 83.8310598,90.8585998 86.0381944,89.5389745 C90.2484115,87.021725 91.5113061,89.1716685 89.6387968,90.5818454 Z" id="Fill-18" fill="#090E2B" blush:i="0.5.0.3.0.3"/></g></g><g id="Facial Accesories" transform="translate(517.000000, 209.000000) scale(1 1)" fill="#000" blush:width="120" blush:height="110" blush:component="Facial Accesories" blush:i="0.5.0.4" blush:value="None" blush:viewBox="210 192.5 0 0"><g id="Facial Accesories/None" stroke="none" stroke-width="1" fill="none" fill-rule="evenodd" fill-opacity="0" blush:viewBox="210 192.5 0 0" blush:i="0.5.0.4.0"/></g><g id="Glass" transform="translate(520.000000, 164.000000) scale(1 1)" fill="#000" blush:width="120" blush:height="75" blush:component="Glass" blush:i="0.5.0.5" blush:value="None" blush:viewBox="210 131.25 0 0"><g id="Glass/None" stroke="none" stroke-width="1" fill="none" fill-rule="evenodd" fill-opacity="0" blush:viewBox="210 131.25 0 0" blush:i="0.5.0.5.0"/></g></g></g></g></svg>